<svg xmlns="http://www.w3.org/2000/svg" fill="none" viewBox="0 0 174 172">
  <path fill="#EACFFF" d="M173 51.5a9.2 9.2 0 0 1-8.4.3c-2.8-1.3-5-3.4-7.3-5.5-4.2-3.8-8.8-7.8-14.6-8.4-2.2-.2-4.4.1-6.4 1l.6-1.2c.5-1.4.3-3 0-4.5a38 38 0 0 0-7.2-16.7L127 13a9.3 9.3 0 0 1-1.8-5c-.1-2 .4-3.9.9-5.7 0-.5-.6-.8-.8-.3-3.2 5.9-10.3 7.3-16.4 7.9-5.6.4-12.2.4-16.6 4.4-1.8 1.6-3 3.8-3.4 6.1-.6-4.2-3.9-7.7-7.6-9.6-5.6-3-12-3.1-18-5.3-3-1-5.9-2.8-7.9-5.4-.2-.3-.8 0-.7.4 1.4 3.6-1.2 7-3.4 9.5L44 18.3c-2.1 2.4-4 5-5.1 8.1a13.2 13.2 0 0 0 1.2 11c-2.7-1.7-6-2.2-9.3-1.5-6.2 1.4-10.7 6-16 9.2-1.5 1-3.2 1.8-5 2-2 .5-4 0-6-.4-.6 0-.8.5-.4.8C6 49.3 7.1 52.3 7.7 55c.7 3.5 1 7 1.1 10.6.2 3.4.3 6.8 1 10 .8 3 2.2 6.2 5 7.7.6.3 1.2.6 1.9.7-3.8 2.2-5.7 6.7-7 10.7a83 83 0 0 0-2 8.7c-.6 3-1 5.8-2 8.6a12 12 0 0 1-5.5 6.6c-.4.2 0 .8.3.8 3.5-.6 7 .2 10 1.9 2.7 1.5 5.1 3.5 7.5 5.5 4.5 3.8 9.8 7.5 16 6.5 1.8-.3 3.5-1 5-2a17.5 17.5 0 0 0 .2 18.8c1.8 2.7 4.1 5 5.9 7.6 2 3 3.4 7 2 10.5-.2.4.2.8.6.5 4.6-4.6 11.4-5 17.4-5.8a37.5 37.5 0 0 0 17.4-7.4c1-1 1.9-2.2 2.4-3.5a14 14 0 0 0 1.4 4.8 14 14 0 0 0 5.8 5.8c5.7 3 12.3 3 18.5 4.4 3.3.8 6.6 2 9.1 4.5.3.3 1-.1.7-.5-2-2.8-.3-6 1.4-8.4 2-2.6 4.1-5 6.1-7.7 3.7-4.8 7-10.7 5.8-16.9a12 12 0 0 0-.8-2.5 12 12 0 0 0 3.4 1.7c3.1 1 6.6.6 9.6-.7 5.5-2.2 9.3-6.9 14.3-9.9a18 18 0 0 1 4.7-2c2-.5 4.2-.5 6.4-.6.4 0 .5-.5.2-.7a13.6 13.6 0 0 1-5.5-7.5c-1-3-1-6.3-1.2-9.4a26 26 0 0 0-1.4-9.2 15 15 0 0 0-5.2-6.7c-1.4-1-3-1.6-4.6-2 3.9-1.7 6.7-6.5 8.5-9.8a48.2 48.2 0 0 0 5.5-18.1 9 9 0 0 1 2-5.3 20 20 0 0 1 3.8-3.2c.3-.3 0-1-.5-.7ZM92.6 14.9c2-2 5-2.9 7.6-3.4 6.3-1.2 12.9-.5 18.9-3.1 2.1-1 4-2.4 5.6-4.2-.5 2.4-.7 4.7.3 7 1.1 2.6 3.2 4.7 4.9 7a39.4 39.4 0 0 1 6.4 17.2 7 7 0 0 1-2 4.8l-2 2.3c-.2-1-.7-1.8-1.3-2.5 1.2-.2 2-1.5 2-2.8-.3-1.7-1.6-2.8-3.2-3.2 1.2-1 1.7-2.7 1-4.1-.6-1.8-3-2.9-4.7-2.4 1.2-1 1.3-2.9.4-4.2-1-1.4-2.7-1.8-4.4-1.5.2-1.5 0-3-1.4-3.7a5 5 0 0 0-4 .2 3 3 0 0 0-2-3 3 3 0 0 0-3.5 1.2c-.4-1.4-2-2.4-3.4-2.5-1.4 0-2.7.5-3.6 1.6-.7-1.2-2.2-2-3.6-1.4-.7.2-1.3.8-1.7 1.4-.2.3-.4.8-.4 1.2-1-.9-2.4-1.4-3.8-.9a3.1 3.1 0 0 0-1.9 2.8c-.8-.4-1.8-.2-2.6.4l-.3.3c.6-1.7 1.4-3.2 2.7-4.5ZM142.5 46c1.9.7 3.5 1.8 5 3.1a8 8 0 0 0-4.1 1 24 24 0 0 0-9.3 7.3c.4-1.2.7-2.3.8-3.5.2-2-.2-3.9-1.1-5.6-.5-1-1.1-1.8-1.8-2.5a15 15 0 0 1 10.5.2Zm-5.5-2c.6-.8 1.6-1.4 2.7-1.2 1.1.2 1.9 1 2.1 2-1.5-.4-3.2-.7-4.8-.7Zm5.5 1.1c.7-.9 2-1.2 3-.7 1.2.5 1.6 1.9 1.3 3v.1a16 16 0 0 0-4.3-2.4Zm6.4 82c.6 1.3.3 3.1-1 4a3 3 0 0 1-4-.8c1.8-.9 3.5-2 5-3.5v.2Zm-7.2 3.2c-4 1.3-8.2 1.2-12.1-.2 1.7-2.3 2.5-5.3 2.4-8.2 0-1-.2-2.2-.5-3.3a19.4 19.4 0 0 0 13.4 7.9c.9.1 1.9.2 2.7.1.3 0 .3-.5 0-.5-.8-.2-1.6-.1-2.4-.2-.9 0-1.8-.3-2.6-.5a20.2 20.2 0 0 1-11.5-8.2l-.2-.5a27.6 27.6 0 0 0 13.9 6.4c1.7.3 3.6.4 5.4-.2a5 5 0 0 0 1.4-.6l-.5.7c-2.5 3.3-5.6 6-9.4 7.3Zm-.1 3.3c-1.3.1-2.3-.7-2.9-1.8a21.9 21.9 0 0 0 4.5-1.2c.9 1.3-.1 2.8-1.6 3ZM138 132c0 1.1-.8 2.2-2 2.3-1.2 0-2.2-1.2-2-2.3 1.3.2 2.7.2 4 0Zm-39 25.3v-.1a18.3 18.3 0 0 1-5.2-13.2c0-1.4.3-2.8.7-4.1.4 6.7 2.8 14.1 9.8 16.2 1.1.3 2.2.5 3.3.4l-.6.2c-2.7.8-5.3 1-8 .6Zm4.5 2.8c-1-.1-2-.7-2.4-1.8 1.3 0 2.6 0 3.9-.3l.7-.1c.5 1.4-1 2.3-2.2 2.2Zm-16.8-12.3a10 10 0 0 0 6.8-5.8l-.2 1.8c0 1.7 0 3.4.4 5a17 17 0 0 0 4.4 8.4l-2.3-.7-.4-.1-.6-.2c-3.8-1.4-7.3-4.3-8-8.4Zm8 9.3a3 3 0 0 1-1 .8 3 3 0 0 1-1.9 0 2.6 2.6 0 0 1-1.3-3l2 1.2 2.2 1Zm-4.8-2.8c-.7.7-2 .7-2.7-.1-.6-.8-.4-2 .2-2.6.7 1 1.5 2 2.5 2.7Zm-3-3.5a2 2 0 0 1-1.3-1.2c-.1-.5-.1-1.3.3-1.7h.3c0 1 .3 2 .8 2.9Zm8.6 6.6c1.5.5 3.2.8 4.9 1-.5 1-1.6 1.7-2.8 1.5a3 3 0 0 1-2.4-2.3l.3-.2Zm15.8-1.3c.6 1.3 0 2.6-1.5 3-1.3.3-2.5-.4-3.4-1.4a40 40 0 0 0 4.9-1.6Zm-.2-1.2c-1.8.8-3.7 1.2-5.6.8-3.5-.7-6.3-3.2-7.9-6.3-2-3.6-2.4-7.8-2.6-11.8l.1.1a13.7 13.7 0 0 0 4.8 3.5c2.9 1.4 6 2.1 9 2.7.3 0 .5-.2.4-.4 1.6-1.5 2.6-3.8 3.5-5.7a14 14 0 0 0 1.2-4.7c1.6 2.7 2.7 5.7 3 8.9.4 3.3.2 7.1-1.7 10a11 11 0 0 1-4.2 3Zm5.3-.8c.3 1.2-.3 2.5-1.5 3-1 .4-2 0-2.7-.8l-.2-.4a48.3 48.3 0 0 0 4.4-1.8Zm-2.5.1.8-.6c2.6-2.4 3.2-6.4 3.1-9.8 0-3.8-1.1-7.8-3.1-11a22.4 22.4 0 0 1 8.4 14.7 19 19 0 0 1-4.4 4.1 26 26 0 0 1-4.8 2.6Zm1.2-21.7c3.5 1.7 7.8 2.3 11.4.4l.3-.1c1 1.7.9 4 .6 5.8a19.4 19.4 0 0 1-3.7 8.3c-.9-5.7-4-11-8.6-14.4Zm3 20.5c1-.6 1.8-1.2 2.7-2l.1.1c1.2.7.8 2.3-.2 3-1.3.7-2.7.2-3.9-.4l1.3-.7Zm3.2-2.4c1.2-1 2.3-2.3 3.3-3.6v.2c1 .7 1 2 .4 3-1 1-2.6 1-3.7.4Zm3.7-4h-.1a23.8 23.8 0 0 0 2.5-5c1 .8 1.6 2.3 1 3.6a3 3 0 0 1-3.4 1.5Zm2.6-5.7a17.6 17.6 0 0 0 .7-4.7c1.2.4 1.7 1.6 1.7 2.7 0 1.5-1 2-2.4 2Zm.7-5.4c0-1-.3-2.1-.8-3l-.1-.2.8-.6c.5.5 1.1.8 1.2 1.7 0 .7 0 2-1 2Zm.7-4.4h-.1l.3-.5c1.3.6 2.7 1 4.1 1.3-.3 1-1.3 1.3-2.2 1a7.2 7.2 0 0 0-2.1-1.8Zm14.6-18.5c.3-1 .1-2.2-.2-3.4a19.3 19.3 0 0 0-3-6.6l-1-1.3 4.7 1.3a23 23 0 0 1 5.2 2.2c3 1.8 5.6 4.7 5.9 8.3 0 1.3 0 2.7-.5 4l-1.5 3c-.7.8-1.5 1.5-2.5 2-3.2 1.4-7.3.3-10.5-.8-3.8-1.3-7-3.3-10.2-5.7v-.1c2.1.8 4.6.8 6.8.4a17 17 0 0 0 3.6-1c1-.5 2.3-1 3-2 .3 0 .3-.1.2-.3Zm-3.5-11.9h.6l2.3-.1a23.2 23.2 0 0 1 11.5 3.5c.6.3 1.2 1 2 1.2.2 2.4.2 4.8-.3 7.2l-.2.9c-.2-3.2-2-6-4.4-8a19.4 19.4 0 0 0-5.7-3.1l-5.8-1.6Zm10.7 24.2 1.1-1.4a2 2 0 0 1 .4 3c-.8 1-2.2.8-3 0l1.5-1.6Zm1.5-2a34 34 0 0 0 3.2-5.1c1.1 1 1.6 2.6.8 4a3.1 3.1 0 0 1-4 1.2Zm3.7-5.8h-.4c.6-1.6 1.1-3.3 1.5-5 .8.3 1.6.7 1.9 1.6.3.9 0 1.8-.6 2.6-.7.7-1.4 1-2.4.8Zm1.2-5.6c.3-1.9.3-3.8.1-5.6 1.5 0 3 1.1 3 2.7a3 3 0 0 1-.9 2l-.8.7-1 .3-.4-.1Zm0-6.4a18 18 0 0 0-1.9-6.3c1.8-.6 3.8.4 4.3 2.3.5 1.8-.7 3.5-2.4 4Zm-2.2-7a21.8 21.8 0 0 0-3.2-4.4c1.3-.8 3.2-1.2 4.3.1.5.7.5 1.7.3 2.5-.2 1-.7 1.4-1.4 1.8Zm-2-1.7c1 1.5 1.9 3.2 2.5 5l.8 3.2-1.4-1-2.2-1.2a25.7 25.7 0 0 0-9.6-2.3h-2.5l-1.7.3-.3-.1h-.3a11 11 0 0 0 10.4-7.6c1.8.6 3.2 2.3 4.2 3.7Zm-1.8-3.2a6.1 6.1 0 0 0-2.2-1.4c.2-.6.3-1.2.3-1.9v-.1c.4-.2 1 .2 1.2.3.4.2.7.6.9 1 .3.7.2 1.4-.2 2.1Zm-1.6-4.6-.5-.1-.1-.6.3-.1c.8-.8 1.7-1.6 2.4-2.5.2.9.1 1.8-.5 2.5-.4.5-1 .6-1.6.8Zm-.8-1.5-.2-.5c-.8-2-2.2-4-4-5.4a15 15 0 0 0-4-2.4l1.7.3a42.9 42.9 0 0 0 9.1-.2 12 12 0 0 0 3.8-1.3c-1.3 3.7-3.5 7-6.4 9.5Zm-10.5-9.7c0-.2.2-.4.3-.5l1.3-1.6c.9-1.1 1.7-2.3 2.4-3.6 1.5-2.3 2.7-4.9 3-7.7.1-.2-.1-.3-.3-.2-.6-.7-1.7-1.2-2.5-1.6l-3.1-1.3c-2-.6-4.1-1-6.2-1 2.5-1.6 5.2-3 8.2-3.4a16 16 0 0 1 9.8.9 7.3 7.3 0 0 1 3.6 8.4c-1 3.5-4 6-6.8 7.9-3 1.8-6.4 3-9.7 3.7Zm.4.9-.4-.1h.4ZM133.3 59v-.1a30 30 0 0 1 9.7-8c.8-.4 1.6-.7 2.4-.8.9-.3 1.7-.2 2.6-.3h.1a23 23 0 0 1 5.4 8.3c-.2-.2-.4-.5-.7-.6-2.7-2.2-6.8-2.5-10-2.1-3.4.3-6.8 1.4-9.5 3.6Zm14.3 15.7a17 17 0 0 0 7.7-8l.4-2a22.7 22.7 0 0 1-.4 12.3s0-.1-.2 0c-.6 0-1.3.5-1.9.7l-2 .5c-1.4.3-2.9.3-4.3.4l-4.2-.1-2.3-.3-1-.3c2.9-.7 5.7-1.7 8.2-3.2Zm7.2 5.8c.7 1 1.8 2.5.7 3.7-.7.7-2.4 1.5-3.2.6h-.1c1-1.4 1.9-2.8 2.6-4.3Zm1.8-5.3c.9.6 1.4 1.8 1 2.8-.1.7-.6 1.1-1.2 1.4-.4.3-.8.3-1.3.3a20 20 0 0 0 1.5-4.5Zm.2-.7c.3-1.7.4-3.5.4-5.2h.1c1.8-.3 3 1.7 2.6 3.2-.4 1.3-1.8 2.1-3.1 2Zm.3-6c0-1-.2-1.8-.4-2.7 0-.9-.3-1.6-.5-2.5 1.2.2 2.4 1.1 2.7 2.4 0 .6 0 1.2-.3 1.7-.4.6-.9.8-1.5 1Zm-1-5.8c-.5-1.9-1.2-3.9-2-5.7 1.3-.3 3 .5 3.4 1.8.6 1.5 0 3.1-1.4 3.9Zm-2.4-6.4c-.7-1.4-1.4-2.8-2.3-4 1-.6 2.4-.3 3 .7.7 1.1.2 2.5-.7 3.3Zm-2.9-4.7c-1-1.4-2.2-2.7-3.6-3.8 1.2-.7 2.8-.6 3.6.4.8 1 .8 2.4 0 3.4Zm-19.3-6.3h-.1c.6-.8 1.3-1.6 2.4-1.9.8-.2 1.7 0 2.2.7-1.5 0-3 .4-4.5 1.2Zm-2-1.5a13.3 13.3 0 0 0-10.7-1.1c.2 0 .3-.2.5-.3a30.2 30.2 0 0 0 8.1-10 27 27 0 0 1 2.2 11.4Zm-12.8-3.4-.6-3.6c-.5-2.4-1.1-5-2.4-7 0-.2-.2-.2-.4-.1l-1.6.3-1.9.5c-1.3.3-2.5.8-3.7 1.3-2.1.9-4.4 2-6.2 3.5V35c1.6-5.8 4.4-12.9 11-14.3 1.7-.3 3.6-.3 5.2 0a5 5 0 0 1 3.2 2.7 19 19 0 0 1 1.3 9.7 17 17 0 0 1-3.4 10v.3h-.2l-.3-3.1Zm-17.2-7.2a14 14 0 0 0-6-8.4 9 9 0 0 0-4-1.2c2.5-2.9 5.6-4.8 9.3-5.8 2-.6 4.2-.8 6.3-.8-4.5 3.8-6.2 10.4-5.6 16.2Zm-4.4-16.7c1-.4 2 0 3 .6-1.6.5-3.2 1.1-4.6 2-.1-1.1.5-2.2 1.6-2.6Zm3.9.4c0-.3.6-1.3.7-1.4.4-.4.9-.7 1.5-.8 1-.1 2.2.5 2.7 1.5a20 20 0 0 0-4.2.5l-.7.2Zm17.9 3.4a12.2 12.2 0 0 0-12.6 3.7 21.3 21.3 0 0 0-4.4 9.2c0-3 .2-6 1.2-9 1-2.8 2.6-5.3 5-7.2l3.8.6c2.5.6 4.8 1.5 7 2.7Zm-5.5-3.1c.6-1 1.9-1.7 3-1.3 1.2.5 1.8 1.8 1.4 3-1.4-.8-2.9-1.3-4.4-1.7Zm15.5 14.1.2.4a34.8 34.8 0 0 1-6.6 9.1L119 42a19 19 0 0 0 2.2-7.3 22 22 0 0 0-1-10.8 7 7 0 0 0-1.5-2.3c3.4 2.4 6.2 5.8 8.1 9.7Zm-5-8.3.2-.4c1.3-.3 2.8 0 3.7 1 .9 1 .8 2.7-.3 3.6a21 21 0 0 0-3.6-4.2Zm4.1 5c1.6 0 3.3.3 4 1.9.8 1.3.3 3.3-1.2 4-.7-2.2-1.7-4-2.8-5.9Zm-4.7-5.8-.1.2c-1.5-1.3-3-2.4-4.8-3.3 1-.7 2.6-.9 3.7-.5 1.5.5 1.4 2.2 1.2 3.5v.1Zm-16.7-6.1c.7-1 1.9-1.5 3-1.4 1.5 0 2.4 1 3 2.2-2-.5-4-.8-6-.8ZM129 34.5c1.2.2 2.5.8 3 2 .5 1.4-.3 3.2-2 3a23 23 0 0 0-1-5Zm1.3 9.2-.1-3.4c.9.7 1.3 1.7 1.5 2.8l-1.3 1.3-.4-.3c.1 0 .3-.2.3-.4Zm-40-24c.6-.7 1.7-1 2.5-.3-1.3.8-2.5 1.9-3.3 3.1 0-1 0-2 .7-2.8Zm-1.2 2.8v.3h.1l-.2.4.1-.7Zm-49 3.5c1.1-3 3.3-5.6 5.4-8l7-8.1c2-2.2 3.8-5 3.5-8 3.5 3.6 8.7 5 13.6 6.2 5.6 1.2 11.9 2.3 15.9 6.8 1.6 2 2.7 4.4 2.7 7a3 3 0 0 0-1.5-.5c.5-1.1.3-2.5-.5-3.5-1-1.3-2.8-1.5-4.4-1.2 0-1.4-1-2.7-2.3-3.3-1.4-.5-3-.2-4 .8-.5-1.7-2-3-3.7-3.2-1.8-.2-3.4.7-4.3 2.2a3.8 3.8 0 0 0-4-2.2c-1.7.3-3 1.8-3 3.4a4.6 4.6 0 0 0-5.5-1.1c-1.7.8-3.3 2.8-3 4.8a3.8 3.8 0 0 0-4.6.7 3.8 3.8 0 0 0-.6 4.1c-1.5-.3-3.2.3-4 1.6-.9 1.4-.5 3.4.7 4.5-1.4.4-2.7 1.6-2.8 3.1-.1 1.3.8 2.7 2 3a4 4 0 0 0-.7 3.5A13.2 13.2 0 0 1 40.1 26Zm47.5-2.8-.9-1.2c.6 0 1 .2 1.4.6v.9h-.5v-.3Zm-9.8.6a45.5 45.5 0 0 0-1-6.5l-.5-1.4c4.2 1.4 8 4 10.5 7.7-2 .4-4 1.4-5.6 2.8a13.7 13.7 0 0 0-3.5 5.4l.2-3.5v-4.5ZM41.6 49.4c.1 1.3.3 2.7.8 4A26.4 26.4 0 0 0 35 49c-3-1.3-6.5-2-10-2a25.3 25.3 0 0 1 9.7-3.3 18 18 0 0 1 7.8.1 9.7 9.7 0 0 0-.9 5.6ZM28.6 60a37.8 37.8 0 0 0 7 14 25 25 0 0 1-16.8-10.5c-1.1-1.7-2.1-3.8-1.6-5.9a6.8 6.8 0 0 1 3.4-4 20 20 0 0 1 11-2.1c4.1.3 8 1.7 11.3 4h-.6l-2 .3a46.8 46.8 0 0 0-10.1 3c-.5.2-1.2.4-1.5.9-.1 0-.2.1-.2.3Zm-1.8 50.7a26.3 26.3 0 0 0 10.5 3.5l2.4.2-.2.3a25 25 0 0 1-14 5c-2 0-3.9-.5-5.6-1.6-3-2-5.2-5.1-5-8.8.3-3.8 3.5-6.2 6.7-7.7 3.7-1.8 7.5-3 11.3-4.4a26.6 26.6 0 0 0-6.2 13.6ZM43 130l-1.4 2.3h-.2c-.7-.2-1-1.2-.5-1.8.4-.7 1.3-.7 2.1-.5Zm-1.3-.6.5-.5.6.6c-.3-.1-.7-.2-1-.1Zm15.6 8 1.1 3.5.7 1.6.8 1.6c.2.1.4 0 .5-.2 5 0 10-2.4 13.6-6a22.4 22.4 0 0 1-4.2 9.5 14.3 14.3 0 0 1-7.8 6.1c-3.2 1-7 0-9-2.7-2.3-3-2.3-7-1.5-10.6.7-3.5 2.4-6.7 4.6-9.5l.3-.2c0 2.3.4 4.7 1 6.9Zm24.3 10.2 1.3.3c0 .8.2 1.5-.5 2.2-.6.7-1.6.9-2.5.5.7-.8 1.2-1.7 1.6-2.7v-.3Zm-6 6.8v-.1c1.4-.9 2.8-2 3.9-3.2 1 1 .8 2.4-.1 3.2-.5.5-1.1.7-1.8.7l-1-.1-1-.4v-.1Zm5.3-7a13.6 13.6 0 0 1-7.7 7.1 14 14 0 0 1-3.5 1l.8-1.3A31.2 31.2 0 0 0 75 140a9.7 9.7 0 0 0 6.1 7.4Zm-12.1 9c-.4 1-1.2 1.9-2.4 2-1.4.3-2.4-.6-2.6-2 1.7.2 3.3.2 5 0Zm.8-.1a17 17 0 0 0 5.4-1.7c.1 2.5-4.4 4.3-5.4 1.7Zm3.2-8.9c-.4 1.5-1 3-1.7 4.3l-1 2c-.5.6-1 1.2-1.3 1.9-1.7.2-3.5.2-5.2 0h-.2l-2.2-.4-1.9-.5h1.3c3.6-.4 6.7-2.6 8.9-5.3a26.5 26.5 0 0 0 4.8-9 35 35 0 0 1-1.5 7Zm-9.8 8.9c-.4 1.3-2 2.1-3.3 1.9-1.5-.4-2.4-1.9-2.6-3.3a32.3 32.3 0 0 0 5.9 1.4Zm-12-17c-1 3.7-1.2 8 .8 11.3.6.9 1.3 1.6 2 2.2l-4.2-2c-1.5-1-3-2-4.3-3.4l.5-1.9.7-2.4c.6-1.6 1.2-3.1 2-4.6 1.5-2.5 3.3-4.8 5.8-6.3a20 20 0 0 0-3.4 7.2Zm5.4 15.3c-.3 1.4-1.8 2.5-3.2 1.9-1.2-.5-1.8-2-1.3-3.2l.1-.3 4.4 1.6Zm-5-2v.1l-.1.4a2.4 2.4 0 0 1-3.3.8c-1.2-.8-1.4-2.5-.7-3.7h.1a28 28 0 0 0 4 2.4ZM41 140.3l.3 1c-1.1.5-2.2-.4-2.3-1.5-.1-1.3.8-2.2 1.8-2.6 0 1 0 2 .2 3Zm-1.6-6.1c.2-.9 1.2-1.4 2-1.3h.1c-.4 1.1-.6 2.3-.7 3.5-1-.2-1.7-1.2-1.4-2.2Zm2 7.7c.5 1.6 1.2 3 2.1 4.3-1 .2-2.1-.3-2.6-1.2-.6-1-.3-2.3.5-3Zm2.1 5 .5-.1c.9 1.1 1.9 2.1 3 3-.9.8-2.3.9-3.2 0-.7-.8-.8-2-.3-3Zm8-13.2a26.8 26.8 0 0 0-6 11.5l-.5 1.5c-1.1-1.3-2-2.8-2.6-4.5-1.3-4-1-8.6 1.5-12a12.2 12.2 0 0 0 9.6 1.7 12 12 0 0 0-2 1.8Zm-11-4.1a3 3 0 0 0 .7-2l.6.8-1.2 1.2Zm0-1c-.3.6-1 1-1.7 1-1.4 0-2.3-1.3-2.4-2.6a16.7 16.7 0 0 0 4-.8l.4.6c-.2.6-.1 1.2-.3 1.7Zm-.5-3a19 19 0 0 1-11.3-.3l.8-.3 2-1c1.2-.8 2.4-1.6 3.5-2.6 2-1.7 3.7-3.8 4.8-6.2l.4-.3a12.7 12.7 0 0 0 0 10.7H40Zm-4.3 1.4c-.7 1.5-1.7 3.1-3.4 3-1.8 0-1.9-2-1.7-3.4 1.6.4 3.3.5 5 .4Zm-23.4-24 .2-.1v1.4c.1 1.5.4 3 .7 4.5-1-.4-1.7-1.4-2-2.5-.4-1.2-.5-3 1.1-3.4ZM11 99.3a4 4 0 0 1 2.2-2.4c-.6 1.7-.8 3.6-.8 5.5 0-.1-.1-.2-.3-.2-1-.6-1.4-1.8-1.1-3Zm2.3 10.1c.5 1.9 1.2 3.7 2.1 5.4a3 3 0 0 1-3.5-1.8 3 3 0 0 1 1.4-3.6Zm2.4 6a24 24 0 0 0 3.6 4.9c-1.4.5-3.3 1-4.3-.5-1-1.4-.2-3.2.7-4.4Zm2.2 2.2-.3-.6.7.6c1.5 1.2 3.2 2.2 5.1 2.6a22.3 22.3 0 0 0 15-4.1 25.5 25.5 0 0 1-7.4 7l-2 1-1.5.7a21 21 0 0 1-9.6-7.2Zm2 3.3a21 21 0 0 0 4.6 3.4 2.9 2.9 0 0 1-3.7.7c-1.4-.9-1.6-2.8-1-4.1Zm5.4 3.8.8.4c1.2.5 2.4 1 3.6 1.2-.8 1.3-2.2 2.4-3.8 1.8-1.5-.4-2-2.5-.6-3.4ZM27.8 98c-2 .7-4.1 1.5-6 2.4-3.3 1.5-6.8 3.8-7.5 7.6l-.1 1.5c-.3-1.2-.6-2.3-.7-3.5-.3-1.9-.3-3.9-.1-5.8A25.3 25.3 0 0 1 23.5 96a29.7 29.7 0 0 1 8.3-.5l2.4.2-6.4 2.4Zm1.2-3.5a27 27 0 0 0-5.6.7c-3.4.7-7 2-10 4l.8-2.8v-.3a14.4 14.4 0 0 1 6-7.1l2.7-1.5 2.7-1.1a10.2 10.2 0 0 0 5.6 8.2H29Zm-15.4-2a3 3 0 0 1 2.7-1.3l-.5.7c-.9 1.1-1.6 2.3-2 3.6-.8-1-.8-2.1-.2-3Zm3.8-5.3c1-.9 2.7-.7 3.5.3l-.6.4c-1.1.7-2.2 1.5-3.2 2.5-.6-1-.6-2.4.3-3.2Zm5.9-3.7-.4-.1c-1.1-.3-1-1.3-.9-2.2 1.2.7 2.5 1.4 3.9 1.8l-.1.4h-2.5Zm2.4.6v.4a2 2 0 0 0-.6-.4h.6Zm-3.2.5c1-.5 2.2-.2 2.8.6h.3v.6c-1.4.2-2.9.7-4.1 1.4-.3-1 .1-2.1 1-2.6Zm-8.2-19.1V65l1.8 2a25.8 25.8 0 0 0 8.1 5.2c3.5 1.6 7.7 2.6 11.5 2.3-.8 0-1.5.4-2.2.6-1.2.4-2.2.9-3.2 1.5a10.5 10.5 0 0 0-4.2 5.9 18 18 0 0 1-11.8-17Zm-.5-5c-1.4-.3-1.7-2.8-1.4-4 .5-2 2.5-1.9 4-1.5-2 3.6-3 7.7-2.9 11.8h-.3c-1-.5-1.7-1.6-1.7-2.8a3 3 0 0 1 2.3-2.8c.4 0 .4-.5 0-.6Zm10.5-13.1.3.1A29 29 0 0 1 42.3 54 23 23 0 0 0 21 52.3a8.6 8.6 0 0 0-4.1 4 7 7 0 0 0 .1 5.5 24.6 24.6 0 0 0 15.2 12 25.3 25.3 0 0 1-7.8-2.2 29.2 29.2 0 0 1-7.6-5l-2.2-2.3h-.2c.3-3.9 1.7-7.6 4-10.7 1.5-2.2 3.6-4.4 6-6.1Zm-1.8-3c1.3-.9 3.1-.5 4.2.6-1.8.9-3.5 2.1-5 3.5-.8-1.3-.5-3.2.8-4.1Zm-4 7.6-1.7 2.4c-1.7-.7-2-2.8-1-4.2 1.2-1.7 3.4-1.8 5.2-1a31 31 0 0 0-2.5 2.8Zm-5 15.4c.2 2 .7 4.1 1.6 6-1.5-.3-3-1.2-3.4-2.7-.4-1.4.4-3 1.8-3.3Zm1.9 6.7a30.7 30.7 0 0 0 2.4 3.4c-1 .8-2.7.8-3.5-.3-.8-1-.2-2.8 1.1-3.1Zm2.8 4c1 1 2 2 3.3 2.8-1 .5-2.5 1.3-3.4.4-.8-.8-.5-2.4 0-3.3Zm9.3-33.5c.1-1.5 1.2-3 2.7-3.4 1.4-.3 2.9.4 3.5 1.7a27 27 0 0 0-6.2 1.7Zm9-4.4c1.3-.2 2.5.9 2.6 2v.2l-3.3.1c-.4 0-.9 0-1.2.2 0-1.2.7-2.4 2-2.5Zm3.3 2.2c.7-1.3 2.8-2.2 3.7-.6l.3.2-.8 1-3.2-.6Zm3.8-7.3c0 1.8.2 3.5.7 5.2-1.8-1.1-2.4-3.6-.7-5.2Zm4-11.3c-1 1.3-1.8 2.7-2.5 4.2l-.4 1-.1-.2c-1.4-.8-2-2.7-1.2-4.1a3 3 0 0 1 4.1-1Zm.3-4.7c1.2-1.3 3.3-1.2 4.6-.2a23.7 23.7 0 0 0-4.6 4.3c-1-1.1-1-3 0-4.1Zm-3.4 10.3h.1c-.5 1.6-.9 3.3-1 5a2.2 2.2 0 0 1-2.1-2.7c.3-1.4 1.7-2.2 3-2.3Zm.8.2c.7-2 1.6-3.8 2.8-5.3l.3 1.7.6 2.6c.6 1.6 1.3 3.2 2.2 4.6a19.7 19.7 0 0 0 7 7l-2-.6c-1-.3-2.1-.5-3.2-.6a11.6 11.6 0 0 0-7.9 1.9c-1-3.7-1-7.6.2-11.3Zm9.4 2.2c-.9-3.4-1.3-7.1.2-10.4a9 9 0 0 1 8-5c3.4-.1 6.2 2.2 8.2 4.9 2.3 3 3.7 6.4 5.2 9.8l-.9-.6A25 25 0 0 0 69 27c-1.1-.4-2.3-.9-3.4-.4h-.1c-2 2-3.5 4.3-4.6 6.8a18 18 0 0 0-1.6 7.3l-.3-.4h-.1a22 22 0 0 1-4.1-8.4Zm17.5-10.5c-2-2.9-4.8-5.4-8.4-5.7a9.6 9.6 0 0 0-8.7 4.2c-2.2 3.2-2.2 7-1.5 10.7.5 2.8 1.5 5.8 3.2 8.2A22.3 22.3 0 0 1 49 26.1c-.1-.8 0-1.7-.4-2.4 1-1.3 2.3-2.4 3.6-3.5a27 27 0 0 1 23.4-4.5c0 .6.3 1.2.5 1.7l.5 2a39.5 39.5 0 0 1 .6 12.2 43.4 43.4 0 0 0-5-10.2Zm-16.7-7.6c1.7-.7 3.8-.2 4.8 1.4-2.5.8-5 2-7.3 3.4-1-1.9.8-4 2.5-4.8Zm5.5 1c0-1.5 1-3 2.7-3.4 1.6-.2 3.2 1 3.5 2.6a27.7 27.7 0 0 0-6.2 1v-.1Zm6.8-.8a4 4 0 0 1 4.1-2.4c1.6.2 2.9 1.6 3.1 3.1-2.3-.6-4.7-.8-7.2-.7Zm13.4 3.3a27 27 0 0 0-5.5-2.4c.8-1 2.2-1.4 3.4-1 1.3.5 2.1 2 2 3.3Zm.3.2c1.4-.4 3-.3 4 .6.7.8 1 2.2.5 3.1a19.2 19.2 0 0 0-4.5-3.7ZM15.8 83c-3-1.4-4.5-5.1-5.2-8.1-.7-3.3-.7-6.7-.8-10.1a60 60 0 0 0-1.2-10.1c-.6-2.5-1.5-5-3.3-6.9 1.1.2 2.3.4 3.4.3 1.5 0 2.8-.4 4.1-1 2.9-1.1 5.3-3 7.8-4.8C25.3 38.9 31 35 37 36.7c2.3.7 4.2 2 5.7 3.7h-1c-.9 0-1.6.5-2.1 1.1a3 3 0 0 0-3-2 3 3 0 0 0-2.7 2.3 4 4 0 0 0-3.9-1.2c-1.7.4-2.8 2-3.2 3.5A4 4 0 0 0 22 44a4 4 0 0 0-1.3 4.4c-2-.6-4.2-.2-5.5 1.6-1 1.3-.9 3.1.1 4.3-1.5-.1-3 .3-3.5 2.1-.3 1.4-.1 3.7 1.1 4.6-1.1.6-2 1.8-2 3.1s.7 2.5 1.8 3a3.3 3.3 0 0 0-1.6 3.6c.3 1.7 1.8 2.8 3.4 3.3-1 .8-1.4 2.4-.7 3.6.8 1.2 2.4 1.5 3.6 1-.4 1.1-.4 2.5.5 3.3.8.8 2.5.5 3.5-.2-.1.7 0 1.4.5 1.9H21c-1.9 0-3.6 0-5-.6Zm18.5 49.6c-3.1.6-6.1 0-9-1.5-5.4-2.8-9.2-7.8-14.7-10.6a16.5 16.5 0 0 0-8.4-2c3.7-2.7 5-7.7 5.8-12.1.6-3 1.2-6.1 2-9.2.6-2.3 1.3-4.7 2.4-7 1.3-2.4 3-4.5 5.2-6 .7.2 1.5.2 2.2.2h1.9c-.6.5-1 1.3-1 2.2-1.2-.8-2.8-.8-3.8.2s-1.2 2.6-.6 3.8c-1.3 0-2.8.5-3.5 1.8-.7 1.2-.4 2.7.5 3.7-1.4.7-2.8 1.8-3 3.4-.2 1.1.2 2.4 1 3-1.1.6-1.4 2.2-1 3.5.3 1.3 1 2.6 2.2 3.2-1.2 1-1.9 2.7-1.2 4.2.5 1.4 2 2.3 3.5 2.2-.9 1.4-1.3 3.3-.2 4.7 1 1.5 3 1.3 4.5.7-.6 1.6-.2 3.7 1.4 4.6 1 .6 2.4.5 3.4-.1-.4 1 0 2.5 1.2 3 1.7 1 3.5.3 4.6-1 0 1.4.5 2.9 2.1 3.2 2 .2 3.1-1.3 4-2.8.3 1.3 1.3 2.5 2.8 2.4.4 0 .8 0 1-.2-1.5 1.2-3.3 2-5.3 2.5Zm5.8-1.2c0 .4.2.7.4 1-.6 0-1.1.5-1.5 1l1.1-2Zm41.6 23.8a38.2 38.2 0 0 1-17.2 7c-3.1.5-6.3.8-9.3 1.7-2.5.7-4.8 1.7-6.8 3.3.5-2.3 0-4.8-.9-7-1.3-2.9-3.4-5.3-5.3-7.7a21.5 21.5 0 0 1-4.5-7.8c-.6-2.7-.6-5.5.1-8.2.2-1 .6-1.7 1-2.6l-.1.1c-.3 1.1.3 2.3 1.2 2.8-1.1.7-2 2-1.6 3.4.3 1 1.2 1.7 2.2 1.8-.6.9-.8 2-.4 3a3.2 3.2 0 0 0 3 1.8c-.7 1-.6 2.5.3 3.3.8.9 2 1 3.1.6-.3 1.4.1 3 1.4 3.8a3 3 0 0 0 3.3-.4c0 1.2.7 2.4 1.8 3 1.4.5 3-.2 3.7-1.4.4 1.5 1.6 2.9 3.3 3 1.4.2 2.9-.5 3.5-1.8.2 1.1 1.4 2 2.5 2 1.5 0 2.6-.9 3.3-2 .6 1.2 2.2 1.6 3.6 1a4 4 0 0 0 2.7-3c.4.3 1.2.6 1.5.6.9.1 1.8 0 2.5-.6 1.1-.8 1.5-2.3.9-3.5.8 0 1.7-.2 2.3-.7.6-.7 1-1.8.8-2.8h.7c1 2.8-.6 5.5-2.6 7.3Zm3.2-8c-.1-.2-.5-.2-.6 0a9 9 0 0 1-6.9-3.4c-1.5-2-2-4.4-2.5-6.8l-.2-.2c-.1-.1-.3-.2-.5 0a21 21 0 0 1-13.7 6.5l-.5-1-.7-1.7c-.5-1.1-.8-2.3-1.1-3.4a38.8 38.8 0 0 1-1.2-7.3c0-.2-.3-.3-.5-.2a10.8 10.8 0 0 1-11 .6 11.2 11.2 0 0 1-5.8-9.6c-.1-2.2.4-4.3 1.3-6.4.3 0 .3-.5 0-.6-1.2-.3-2.5-.2-3.8-.4a42.6 42.6 0 0 1-9.7-2.8 30 30 0 0 1 7-14l.2-.4.3-.3c.3 0 .3-.7-.1-.7a10 10 0 0 1-8.2-7.1 10 10 0 0 1 3.8-10.5c1-.7 2-1.2 3.2-1.6l3.3-1c.1 0 .2-.2.1-.3v-.1c0-.1 0-.4-.2-.4h-.4a36.4 36.4 0 0 1-7.2-14.2l1-.6 2.1-.8A41.3 41.3 0 0 1 42.6 56c.6 0 1.2 0 1.8-.3l.1-.2c.1 0 .1-.3 0-.4a6 6 0 0 1-1.7-3.2c-.3-1.2-.5-2.6-.5-4 0-2.4 1-4.5 2.8-6 1.8-1.5 4-2.2 6.3-2.2 1.4 0 2.7.2 4 .5l2 .6c.6.2 1.2.6 1.8.7.2 0 .4 0 .4-.2v-.1c.4-2.6.9-5 1.9-7.5 1-2.4 2.5-4.7 4.3-6.6l.1-.2a30 30 0 0 1 10.5 5.3c.4.4.8.8 1.2 1 .3.2.6 0 .5-.4l-.1-.1c1.5-3.8 4.2-7.2 8.2-8.2 4.4-1 8.3 1.2 10.6 4.7 1.3 2 2 4.1 2.3 6.5l.1.3c0 .1.3.2.4.1l3.3-2a26.6 26.6 0 0 1 7.2-3l1.8-.4 1.4-.3c.7 2.1 1.5 4.2 2 6.4.3 1.2.5 2.4.6 3.7l.2 1.7.1 1.8c0 .1.3.2.5.1l.7-.2c.1 0 .2 0 .3-.2a14 14 0 0 1 11 .4c3.2 1.7 5.5 5.2 5.5 9 0 2.4-1.2 4.7-2.3 6.9-.3.4.4.8.7.4v-.2a31.1 31.1 0 0 1 9.4 2.5l1.4.8c.4.3.8.6 1.3.7a29.5 29.5 0 0 1-5.4 10.3c-.4.7-1 1.2-1.4 1.8l-.8 1c-.4.2-.4.9 0 .9h.4c-.1 0 0 .4.2.4 4 .7 7.6 3.3 9.6 6.9.5.9.9 1.8 1 2.8l.1.6v.4c.2 1.1 0 2.2-.4 3.4a10.7 10.7 0 0 1-10 6.7c-.3 0-.4.2-.3.3-.1.2-.2.3 0 .4.6 1 1.4 1.7 2 2.6a19.4 19.4 0 0 1 3.5 9.6c-.5.2-1 .6-1.5 1l-1.7.8a18.7 18.7 0 0 1-10.2.7l-.2.1c-.3 0-.6.2-.4.5 2.3 3.4 2.7 7.6 1.3 11.4a10 10 0 0 1-3.7 4.9 9.8 9.8 0 0 1-5.9 1.4c-2.6-.1-4.8-1.1-7.2-2.2h-.2c-.1-.1-.3 0-.3.2 0 1.1 0 2.2-.2 3.3a17 17 0 0 1-1 3.2 46 46 0 0 1-3.1 5.3c-3-.7-5.8-1.2-8.4-2.5-1.2-.5-2.3-1.1-3.3-2-.5-.3-1-.7-1.4-1.2l-1-1c0-.4-.7-.4-.7 0a17 17 0 0 1-1.8 6.3 9 9 0 0 1-7.4 4.6Zm48-8.8c.7 3.1 0 6.4-1.3 9.2-1.3 3-3.2 5.6-5.2 8.1s-4 4.8-5.8 7.4c-1.4 2-2.3 4.4-1.7 6.7a32.6 32.6 0 0 0-15-4.6c-5.7-.9-12.3-2.1-15.9-7.1a17.6 17.6 0 0 1-2.6-7.5v-.2c.4.4.9.8 1.5 1-.7.8-1 2.2-.1 3.1.7 1 2 1.1 3 .6 0 1.3.6 2.7 1.9 3.2 1 .5 2.4.3 3.3-.5a3.2 3.2 0 0 0 2.5 2.6c1.3.2 2.5-.4 3.2-1.5.6 1.2 2 1.8 3.2 1.7 1.2 0 2.4-.9 2.6-2 1.1 1 2.6 1.5 4.1.8 1-.4 1.7-1.5 1.7-2.5a3 3 0 0 0 2.9.5 3 3 0 0 0 1.8-3c1.5.7 3.2 1 4.5-.3.7-.7 1-1.8.6-2.6 1.2.2 2.5 0 3.3-1 .7-1 .9-2.2.3-3.2 1.4 0 2.7-.7 3.3-2 .6-1.3.2-3-.8-4 1.2 0 2.3-.8 2.4-2.2.2-1.3-.3-2.6-1.3-3.3a3 3 0 0 0 .8-2v-1c1.5 1.5 2.4 3.5 2.9 5.6Zm30-39.8c1.9 5.9.5 12.2 2.4 18 .9 2.7 2.5 5.1 4.7 6.8-2.7.1-5.3.4-7.9 1.5-2.4 1-4.5 2.6-6.5 4.3-4.4 3.5-8.8 7.6-14.8 7.9-1.7 0-3.5-.2-5.1-.8a11 11 0 0 1-3.2-2l-.5-.5-.4-.4c.8 0 1.5-.2 1.9-.7.3 1 1.2 2 2.4 2 1.3.1 2.4-.8 2.7-2 .8 1.2 2.3 1.9 3.7 1.4 1.2-.4 2-1.5 2-2.6 1.1.8 2.7 1 4 .1 1.4-.9 2-2.8 1.4-4.3 1 .4 2.4.2 3.2-.6.7-.8.7-2 .2-3 1.4.3 2.9-.4 3.6-1.6 1-1.4.8-3.3-.3-4.5h.2c.4 0 .8 0 1.2-.2.8-.4 1.4-1.2 1.7-2a2.9 2.9 0 0 0-1.2-3.6c.6-.1 1-.5 1.4-.8.7-.6 1.2-1.6 1.2-2.6 0-1.5-1.1-2.8-2.6-3.2a4 4 0 0 0 1.9-4.4c-.5-1.8-2.3-3-4.1-2.8 1-.9 1.3-3.3.6-4.3-1-1.7-3-1.7-4.7-1a3 3 0 0 0-.5-2.6c-.2-.2-.5-.5-1-.7h1.1c5.3 0 9.7 4.2 11.3 9.2Zm4.4-41.2c-.5 1.5-.6 3-.8 4.6a44.8 44.8 0 0 1-8.6 21.8 11.3 11.3 0 0 1-6.5 4.7l.5-.5c.4-.6.7-1.4.6-2.2 1.1.4 2.6-.2 3.4-1 .5-.6.8-1.4.6-2.2-.1-.5-.3-1-.6-1.4l-.6-.7c.5 0 1-.2 1.4-.4a3 3 0 0 0 1.5-1.8c.4-1 0-2.3-.7-3.1a3.3 3.3 0 0 0 3-2.8c.2-1.5-.8-3.4-2.4-3.5 1-.5 1.6-2 1.5-3a4 4 0 0 0-2.6-3c1.2-1 1.7-2.8 1.1-4.3a4 4 0 0 0-3.5-2.3c.8-1 1-2.6.1-3.7-.7-1-2.1-1.3-3.2-.8.8-1.2.7-2.8-.2-3.9a3.4 3.4 0 0 0-3.8-.9c0-1.2-.6-2.5-1.7-3a3.2 3.2 0 0 0-3.6.4 3.2 3.2 0 0 0-2.7-2.2c-1.3-.1-2.4.5-3.1 1.6-.5-.7-1.5-1-2.4-1-.5.2-1 .3-1.4.6l1.9-2 1-1.4c5-2.6 10.9-.9 15.2 2 2.5 1.7 4.7 3.8 6.9 5.8a23 23 0 0 0 7 5c1.8.6 3.9 1 5.8.6a9.4 9.4 0 0 0-3 4Z"/>
  <path fill="#EACFFF" d="M140.5 81a24 24 0 0 0-4.2-1.6l-2.4-.4h-.6c1.2-1.5 2.4-3 3.4-4.6a116.1 116.1 0 0 0 4.7-8.6c0-.1 0-.3-.2-.4-2-1.2-4.1-2-6.3-2.5-2-.5-4-1-6-1.3 1.4-.9 2-3.2 2.1-4.7.3-2 .4-4.4-.3-6.5-1.1-3.9-5.2-5.8-9.1-5.5a16 16 0 0 0-6.8 2.2 32 32 0 0 0-3-13.3c0-.2-.3-.1-.3 0h-.2c-4.9.5-9.3 2.9-13.1 5.8-.1-4.4-2.3-9-6-11.5a7.1 7.1 0 0 0-6.3-1c-2.1.8-3.8 2.4-5 4.3a11.7 11.7 0 0 0-2.2 6.8c-1.4-1.5-3-2.9-4.7-4.1a26.8 26.8 0 0 0-8.2-4.1A37 37 0 0 0 61 45.2V45c-3.5-2.3-8.2-4.3-12.4-2.6-1.7.7-3 2-3.7 3.7-.7 2-.4 4.5.3 6.6.7 2 2 4 3.6 5.2-3 .1-5.9.5-8.7 1-2.6.4-5.2.8-7.7 1.5H32l-.2.3v.3a44.3 44.3 0 0 0 7.8 14.4l.2.3.4.4c-4.3-.1-9.1.8-11.5 4.8-2.4 3.7-.3 8.3 3.2 10.6 2 1.3 4.5 2 7 2.1a45.2 45.2 0 0 0-9 14.7c1 1 2.3 1.2 3.5 1.5a61 61 0 0 0 12.3 1.8 8 8 0 0 0-3.1 4c-1 2.3-1.3 5.2-1 7.7a7.1 7.1 0 0 0 3.9 5.4c2 1 4.3 1 6.4.5 2.4-.8 4.6-2.4 6.3-4.3a48.2 48.2 0 0 0 1.7 10.6c.3 1.2.6 2.7 1.3 3.8 0 .2.2.2.3.2a12.6 12.6 0 0 0 6.4-2l6-3.8 1.7-1.3c0 4.3.8 9.2 4.8 11.7 3.8 2.4 8.4 0 10.5-3.6 1.3-2.2 1.8-4.9 2-7.4a38.7 38.7 0 0 0 9.8 6.1h.2c0 .2.2.3.3.2 1.2.6 2.4 1.3 3.7 1.7l.4-.1c.4-.3.5-.6.7-1l.6-1.8 1-3.6c.8-2.4 1.4-4.8 2-7.2v-.2c3.1 3.1 8.2 5.5 12.6 3.7 4.2-1.7 5.3-6.9 4.4-11-.5-2.4-1.7-4.6-3.3-6.5a58.2 58.2 0 0 0 14.8-2.4c.3 0 .2-.6-.1-.6a122 122 0 0 0-7-13l-.1-.1c2.1.6 4.5.3 6.6-.3 2.2-.7 4.6-2 5.7-4.2 2.5-4.6-.7-9.6-4.8-11.8Zm-6.4-1.1a21.8 21.8 0 0 1 5.4 1.5c1.8.9 3.6 2.2 4.7 4l.8 1.8-.8-.8c-1.2-.9-2.8-1.1-4.2-1.4a44 44 0 0 0-13.8-.3c2.3-1.2 4.4-3 6.3-4.9l.3-.1 1.3.2Zm-3.3 25c.7.8 2.2-.1 1.4-1-.1-.2-.6 0-.4.4-.4.2-.5 0-.5-.2s0-.4.2-.5c.2-.2.5-.3.8-.2.6.2 1 .9.8 1.4a2 2 0 0 1-1 1.2c-.6.2-1.1 0-1.6.2l-3-1.3-.2-.1c1.2-.2 2.5-.8 3-2.1.5-1.4-.3-3.2-1.8-3.2-1.3-.1-2.6 1.4-1.8 2.6.4.5 1 .7 1.5.4.5-.4.7-1 .3-1.4-.2-.1-.5 0-.5.2 0 .4 0 .5-.3.5-.4 0-.6-.2-.6-.6 0-.4.3-.7.7-1 .8-.4 1.7.4 1.9 1.2.4 2-1.8 2.9-3.3 3l-4.1-2 1.3-.1c.8-.3 1.5-1 2-1.8.8-1.4 1.5-4.3-.2-5.3-1.3-.8-3.6.4-2.7 2 .3.7 1.2 1.1 1.8.7.5-.4.7-1.3.2-1.7-.2-.1-.6 0-.5.3.1.3.2.6 0 .8-.4.3-1-.2-1-.6 0-.6.7-1 1.3-1 1.4 0 1.3 1.9 1.1 2.8-.1 1-.6 2.2-1.5 2.8-.4.4-.9.6-1.4.7h-1.3v.1h-.2l-3.1-1.5-.5-.3a5 5 0 0 0 3.5-3c.7-1.4.7-3.8-.7-4.9a2 2 0 0 0-3.2 1.4c0 .7.4 1.4 1 1.6.7 0 1.4-.4 1.4-1 0-.5-.5-.5-.7-.1-.2.5-.7.4-1 0-.1-.5.1-1 .4-1.3.4-.4.9-.6 1.4-.3 1 .5 1.2 2 1.1 3-.1 2.2-1.7 3.6-3.7 4.3l-1.9-.7a9.5 9.5 0 0 0-1.1-10l-.3-.3a18.7 18.7 0 0 1 15 7 34.6 34.6 0 0 1 4.2 7c-.2-.2-.6-.3-1-.3-1 0-1.8 1.3-1.2 2.1Zm3.8 2h.1l.6 1.4-1.2-.5-2.7-1.1c1-.1 1.9-.5 2.3-1.6v-.4l1 2c-.3 0-.4.2 0 .3Zm-15.5 5.5.2-1 .2-.7 2.8.3a5 5 0 0 0 .1 1.7c-1 0-2.2 0-3.3-.2v-.1Zm1-2.2c-2.6-.3-5-.8-7.5-1.7-1-.4-2-.9-3-1.6-1-.6-1.7-1.5-2.3-2.4a8.4 8.4 0 0 0 7.7-5l1.6 1c.4 1.1.4 2.2 0 3.3-.3 1-1.1 2.4-2.3 2.8-1 .3-2.7-.8-2.5-2 0-.7 1-1 1.6-1 .4.1.7.3.8.7.1.2 0 .6-.3.7-.4 0-.2.8.2.7.7-.2 1-1 .8-1.6-.1-.8-.9-1.2-1.6-1.2-.8 0-1.8.4-2.2 1.2-.3.8.2 1.8.8 2.4 1.5 1.6 3.5.8 4.7-.7 1-1.5 1.2-3.4.6-5l.4.2 3.1 1.5.3.2c.8.7 1 1.7 1 2.7 0 1-.2 2.4-1 3.2-1 .8-2.7.9-2.9-.6 0-.6.4-1.3 1-1.4.6 0 1 .3 1.4.8.1.2.4.2.4-.1-.2-1.5-2.2-1.8-3-.7a2 2 0 0 0 1.3 3.3c2 .3 3-1.6 3.3-3.3.2-1.1.2-2.5-.5-3.5l3.8 1.7v.1h.3l.1.1c0 .2.3.4.4.5.1.2.3.4.3.7.2.6.2 1.2-.3 1.6-.4.3-1 .7-1.5.7-.4 0-.6-.4-.6-.8 0-.1.7-.8.8-.7 0 .3.4.3.5 0 .2-.4-.3-.6-.6-.6-.5 0-1 .5-1.2 1-.6 1 .4 2 1.5 1.8 1.2-.2 2.3-1.3 2.1-2.6a6 6 0 0 0-.5-1.2l2.8 1.3v.3c0 .2.3 0 .3 0l.3.5.2.7c0 .4-.2.9-.6 1-.3.2-1 0-1-.4s.3-.5.6-.7c.2 0 .2-.4-.1-.5-.8-.1-1.4.8-1.1 1.5.3.9 1.4 1.1 2.1.7.8-.6.9-1.7.4-2.5l2.1.8 1.9.8-3.1.8c-1.4.3-2.7.5-4.2.6l-1 .1h-.3c-2 .1-4.2 0-6.4-.2Zm-1.5 2.3c-1.2-.2-2.5-.4-3.7-.8l.3-.9.3-.9h.1c1 .4 2.1.5 3.2.7l-.1.9c0 .3-.2.6-.1 1Zm-4-.8-3-1 .4-.8.4-.9 2.5.8-.2.9v1Zm-2.1 6.5-1.2.2-1.3.2c0-1.3-.2-2.5-.5-3.8.5-.1.8-.4 1.2-.6l1-.4c.5 1.3.7 2.9.8 4.4Zm-.7-5.7 1.5 1a48 48 0 0 0 4.7 4.3l2.3 2.4c.8.8 1.7 1.7 2 2.7.4 1.1-1 .7-1.6.5-.5-.1-1-.4-1.5-.7-1-.6-1.8-1.3-2.5-2.2-1.4-1.5-2.3-3.2-3.4-4.9l-.8-1.9h-.1a6 6 0 0 0-.6-1.2Zm.7 6.3-.1 1.6-.2 1.6-1.2.1c-.4 0-.8 0-1.1.2l.1-3.1 1.4-.1c.3-.2.7-.2 1-.3Zm-27.7 11.6c0 1.2-.2 2.3-.3 3.4v1.9l-.2.7c0 .4-.2.6-.6.6-1-.3-1-2.3-1-3.2v-3.4c0-1.8.2-3.7.4-5.5l.6-2c.4-1 .6-1.9.8-2.9a84 84 0 0 1 .3 3.6v6.8Zm-5.6-4.7.8.8.5.4-2.2 2.3-.6-.3-.9-.8a25 25 0 0 0 4-5.2l.7.3c.3.2.7.4 1.1.4-.5 1-1 2-1.7 2.8-.2 0-.4-.2-.5-.3l-.8-.7c-.3-.2-.6.1-.4.3ZM69 130.3c-.5-.1-1 0-1.2.4-.2.3-.2.7.2.9.2.1.4-.2.4-.4.1-.3.3-.4.6-.2l.3.3.2.5c0 .7-.7 1-1.2.9-1.2-.1-1.5-1.4-1.8-2.4v-.2l1.1-2.8.6-1.4c.1.5.4 1 .7 1.5a4 4 0 0 0 1.7 1.7c1.4.7 3.3.5 3.9-1.2.5-1.5-.9-2.8-2.4-2.6-.6.1-1.3.5-1.5 1.2 0 .6.3 1.2 1 1.2.3 0 .3-.5 0-.6-.3 0-.3-.5-.1-.8.2-.2.5-.3.8-.3.5 0 1 .2 1.3.5.8.9-.1 2-1 2.3-2 .4-3.8-2-4-3.7l1.7-3.7c.3 1.4 1.4 2.5 2.7 3.2 1.3.7 3.3 1.4 4.6.5 1.4-1 .7-2.6-.6-3.2-.5-.2-1.3-.2-1.7.3-.4.3-.5 1 0 1.4.1.2.4 0 .4-.3-.3-.7.4-1 1-.8.5.3 1.2.8 1 1.5-.4 1.1-2.2.9-3 .6-1.7-.5-3.5-1.6-4-3.5l-.1-.1 1.4-2.6.4-.7a6.5 6.5 0 0 0 3.3 3.3c1.5.6 4 .8 4.8-1 .6-1.3-.8-3-2.2-2.4-.7.3-1 .8-1 1.5.2.6.8 1.2 1.5 1 .3-.2.3-.6-.1-.7-.8 0-.8-1 0-1.2.5-.2 1.1.3 1.2 1 .3 1.4-1.7 1.6-2.7 1.5a7 7 0 0 1-4.6-3.4v-.1l.9-1.4c3 1 6.7.6 9.3-1.2a18 18 0 0 1-2.4 7.8l-.3-.1c-.2 0-.3.2-.2.3l.3.1A33 33 0 0 1 69.6 133l.3-.4c.4-1-.2-2-1-2.2Zm-6-15.7c-.7-.4-1.7-.4-2.5-.5l.6-1.8.4-1 2.8.8a32 32 0 0 0-2.3 6.7c-.5-.2-1-.1-1.5-.2h-1l.8-4c1 0 1.8.4 2.6.5.2 0 .3-.4.1-.5Zm-8.3-5.7v-.6l2.4-.6.8 1.1.1.2-.9.3-2.3.7v-.1l-.1-1Zm-3.6 0 3-.5.1.4.3 1.1.1.1-3.6.7v-1c0-.2.1-.5 0-.8Zm3.1-1.2a39.6 39.6 0 0 1-19.9-.6l6-2.3a2 2 0 0 0-.4 1.3c0 1 1 1.9 2 1.7 1-.2 2-1.3 1.4-2.4-.4-.7-1.8-.6-1.7.4 0 .4.5.5.6.1.2-.6.7 0 .6.4 0 .3-.4.5-.6.6-.7.4-1.2.2-1.5-.4-.4-1 .3-1.7 1-2.2l2.3-1 1.4-.6c-.6.8-.8 1.8-.7 2.7.2 1.1 1.2 2.5 2.5 2.3 1-.3 1.6-1.9 1-2.7-.6-.7-2.2-.7-2.1.4 0 .3.4.4.5.2.2-.3.5-.6.8-.4.4.2.4.8.3 1.2-.4 1-1.6.5-2-.2-.8-1.2-.4-2.7.5-3.8l3.3-1.4a6 6 0 0 0-.2 3.9c.4 1.3 1.5 2.5 3 2.1 1-.2 1.5-1.5 1-2.5-.6-1.2-2.2-1.2-2.7.2 0 .3.4.4.6.2.4-.6 1-1 1.4-.2.2.3.3.6.2 1-.3 1.1-1.8.7-2.4 0-1.1-1.4-.9-3.5-.2-5.1l4-1.9c-.6 1.3-.5 3 0 4.2.6 1.5 2.2 2.6 3.8 2 1.2-.6 1.7-2.4.6-3.3-.5-.5-1.3-.5-1.8-.1-.6.4-.6 1.2-.2 1.7.3.2.7 0 .5-.4-.5-1 1-1.1 1.3-.3.2.4.1.9 0 1.2-.6 1-2 .7-2.8 0-1.5-1.3-1.3-3.5-.6-5.3l1.5-.8a9 9 0 0 0 7.1 5.1l1.8.1v.3c-1.3 1.2-3.3 2-5 2.7-2 .8-4 1.5-6.2 2Zm-6.4 1.5c1 0 1.8 0 2.7-.2v1.7l-2.8.2v-.1l.1-1v-.6ZM51.2 86c.1.6.5 1.1.7 1.6l.5 1.3c-.7.3-1.5.5-2.2.9v-.5l-.7-1c-.2-.4-.4-.8-.7-1-.1 0-.3 0-.3.2 0 .4.4.7.6 1 0 .2.5 1 .7 1v.3h.2l-2.3 1.3-1-1.3c-.3-.4-.5-.8-.9-1.1l1.7-1c1.2-.8 2.4-1.4 3.8-1.9 0 0-.1.1 0 .2Zm-2.6-6.7c-.5.4-.8 1-1.2 1.4l-.5.6a22 22 0 0 1-4.4-3.7l1-.8c.3-.3.6-.6.7-1l1.7 1.4-.5.7-.8 1c-.2.1 0 .3.2.2a7.3 7.3 0 0 0 1.5-1.6 22 22 0 0 0 5.1 3c-.3.4-.5.8-.8 1l-1 1.1a15.1 15.1 0 0 1-2.4-1.2l.4-.3.5-.6.8-1c0-.2-.2-.3-.3-.2Zm4.9-19.5.1 1h-2.2l-.1-1.1c0-.4 0-.8-.2-1.1h2.3l.1 1.2Zm.2 1.8c.1 0 .3.1.4 0a18.7 18.7 0 0 1 9.3 3 12 12 0 0 1 4 4.6c-2.5-.4-5 0-7 1.1-1 .6-2 1.3-2.7 2.2l-.8-.3c0-.2-.2-.2-.3-.2l-.2-.7-.2-1c0-.6 0-1.3.3-1.9a5.2 5.2 0 0 1 2.4-2.8c1.2-.7 3-.5 3.1 1.2 0 .6-.2 1.3-.8 1.6-.3.2-.8.3-1.2 0-.4-.3-.3-1.2.3-1 .5 0 .7-.6.2-.7-1.6-.5-2 1.7-.8 2.4 1.5.9 3-.8 3-2.2 0-1.7-1.5-2.7-3-2.4a6 6 0 0 0-3.9 3.5c-.3 1-.4 2-.2 3l.3.8h-.1l-1.1-.4-2.5-1a5 5 0 0 1 .5-5c.5-.8 1.8-2 2.7-1.2.5.3.7.9.4 1.4l-.5.5c-.5.2-1.4 0-1-.7 0-.2-.2-.5-.4-.4-.6.4-.5 1.1 0 1.6s1.4.4 2 0a2 2 0 0 0-.7-3.4c-1.7-.4-3.2 1.3-3.7 2.7a5 5 0 0 0 0 4l-3.3-1.6c-.6-1.5-1.2-3.9.4-4.9.7-.4 1.7-.4 2 .4.2.3.2.7 0 1-.3.5-1.2.4-1-.4 0-.2-.3-.5-.5-.2-.3.3-.3.9 0 1.3.4.4 1.1.4 1.6.2 1-.7 1-2.3 0-3-1.2-.8-2.8 0-3.4 1.3a4 4 0 0 0 .5 4.2l-2.4-1.3-1.5-.7s.1-.1 0-.2c-.3-.8-.7-2 .2-2.7.3-.2 1-.3 1.3 0v.7c0 .3-.6.4-.5 0 0-.3-.3-.6-.5-.3-.7.6.2 1.5 1 1.2.9-.3 1-1.5.4-2-.7-.8-1.9-.6-2.4.2-.8 1-.3 2 .2 2.9l-6-3.1c4.5-.4 9-1.2 13.4-1.3h2.7Zm2.5-.5-2-.2-.2-1.2v-1c.7.2 1.6.3 2.4.3-.3.7-.2 1.5-.2 2.1Zm.6-2 2.3.5.5.1c-.4.5-.5 1.3-.5 2a23 23 0 0 0-2.4-.5v-1.1l.1-1Zm7.3-7.8h-1l-1.1-.1c-.2-1-.3-2-.3-3.1.7.1 1.6.3 2.2 0A36 36 0 0 0 65 55h-1.2l-1 .1c-.4-1.2-.7-2.4-.8-3.6.6.1 1.5.3 2 0 .2.1.3-.2 0-.2Zm27.5.2c-.1-.3-.5-.5-.8-.7l-1.1-.8 1-1.8.5-.7 1 1 .9.7c-1 1.5-1.9 3.2-2.5 4.9l-1-.7-1-.5 1-2.6 1 .9c.3.2.6.5 1 .5v-.2Zm20.6-1.7a4 4 0 0 0 1.9-.1v.6l-.5 3.5h-1.5v-4Zm1.4 7.1h.2l-.4.6.2-.6Zm-.8-2.8h.7l-.5 2.3-1.2-.2.2-2.1h.8Zm.1 2.7-.5 1.7-.6 1.8h-.3l-.5-.2h-.3l.5-1.7.4-1.8 1.3.2Zm8.2 7c-.7 0-1.4 0-2.1.2h-.1v-.1l-.2-1c0-.3 0-.6-.2-.9h1.3l1.1-.2.2 2Zm.3.5c2.3-.2 4.5 0 6.7.3a37.8 37.8 0 0 1 3.9.8l5 1.7c-1.5.7-3.1 1.2-4.8 1.8.4-1 .3-2-.3-2.7-.7-.9-1.7-1.1-2.6-.3-.7.7-.8 2 .3 2.5.7.3 2-.5 1.4-1.4-.2-.2-.5-.1-.5.1 0 .5-.3.8-.7.6-.4-.2-.4-.6-.2-1 .3-.7 1.1-.8 1.7-.2.6.6.8 1.6.5 2.4a95.1 95.1 0 0 1-4.5 1.5c.6-.9 1-2 .8-3 0-1.1-.8-2.8-2.1-2.3-1 .3-1.3 1.8-.5 2.5.6.5 2 0 1.5-.8 0-.3-.4-.2-.4 0-.2.5-.8.5-.9 0 0-.5.2-1 .7-1 .7-.1 1 .9 1.1 1.4a4 4 0 0 1-1 3.4l-4.2 1.3c1.2-1 2.1-2.6 1.7-4.3-.3-1.6-2.4-2.9-3.8-1.7-1.2.9-1.2 3.1.5 3.4 1.5.1 2-2.1.6-2.3-.3 0-.4.5-.2.6.5.3.4 1-.2 1-.6 0-1-.7-.9-1.3.3-1.2 1.7-1.4 2.5-.8 1 .7 1.1 2 .8 3-.4 1-1.2 2-2 2.6v.2l-3.2 1c-.2.2-.4.2-.7.3l.4-.7.5-1.6a6 6 0 0 0-.1-3c-.3-1-.8-1.7-1.7-1.8-1-.1-1.7.3-2.3 1-.6.8-1 1.8-.6 2.7.2.7.8 1.3 1.6 1.3.7 0 1.4-.5 1.5-1.3.1-.7-.4-1.4-1.2-1.4-.3 0-.4.5 0 .6.8.3.6 1.3-.3 1.3-.7 0-1-.8-1-1.4 0-1.2 1.7-3 2.9-1.8.8.9.7 2.8.5 3.8a9 9 0 0 1-.6 1.9c-.1.3-.3.4-.2.7a4 4 0 0 0-1.3.7c-.3-.5-.5-1.1-1-1.6a8.6 8.6 0 0 0-5.1-3.3l.5-.4h.3c.2.1.4-.2.2-.3 3-2.9 7-4.4 11-4.7Zm4-1.6c0-.3 0-.6-.2-.8l-.3.1c-.2.3 0 .6 0 .8v1c-1-.2-2.2-.2-3.3 0v-2.1c2.3 0 4.6.2 6.9.6l-.1.1a4 4 0 0 0-.3 1.7l-2.7-.3v-1ZM122 88.5c0-.2-.2-.3-.4-.2-.2.2-.2.4-.3.7 0 .2-.2.3-.3.5a19 19 0 0 0-2.2-.7l.2-.5.2-1a20 20 0 0 1 5.4 2.3l-.5.6-.4.6-2.2-1.1c0-.2.2-.3.3-.4 0-.2.3-.6.2-.8Zm-6.8-.2h-1.6c-.2 0-.3 0-.3.2-.5-.5-1.1-.9-1.8-1.1l3.7-.2v1Zm-6.2 12-1.3-2.6-.6-.9v-.1a16 16 0 0 1 2 2.4l1 2.2c.2.6.2 1.3.5 1.9l-1.5.5c.6-1 .2-2.4-.1-3.3Zm-6 3c.3 1 .8 1.8 1.4 2.6l-.4.8-.5.6c0-1.3-.1-2.7-.6-4Zm-8 10.8c0-.9 0-1.7-.2-2.6-.2-1.5-.6-3-1.2-4.2v-.6c.4 1.3 1 2.5 1.5 3.8a43 43 0 0 0 2.4 4.8c-.9.2-1.7.3-2.6.3.2-.5.1-1.1.1-1.5Zm-10.6 0v.7H84l-.7-.1v-.6l1.2-1.5-.1 1c-.2.1-.2.4 0 .4Zm-1.1 1 .6.2h.4v1.2c-.2 0-.3.1-.3.4v.4l-.6-.1H83l.3-2Zm0 2.5.7.1c0 1-.2 2-.5 3l-.5-.2-.9-.4c.4-.9.6-1.7.8-2.6h.4Zm-6.8-2.3-.3-1-.2-1.2a8.1 8.1 0 0 1 .2-3l.8-2a8.7 8.7 0 0 0 1.3 7.4h-1.6c.1-.1 0-.4-.2-.2Zm-10.7-6.6c-.3-.3-.8-.5-1.2-.7l-1-.6.7-.7 1.8-1.1.6.6.7.5L66 109l-.1-.2Zm-1.6-6.8a6 6 0 0 1-1.2-3.7c.1-1 .6-2.1 1.3-3-.9 1.4-1.2 3.2-.2 4.6.9 1.4 2.2 2 3.7 2-1.2.3-2.4.4-3.7.3 0 0 .1-.1 0-.2Zm-2.8-.3-1.9-1c.4-.6.5-1.4.8-2a9.2 9.2 0 0 1 2.8-2.9 6 6 0 0 0-1.2 2c-.6 1-1 2.6-.5 3.9Zm-2.2-1.3-.4-.4a8 8 0 0 1-1.8-2.3h.2v-.2h.2l.3-.2.5-.3 1.2-.5 2.7-1.1 1.4-.6-1.7 1.3a9 9 0 0 0-1.9 2c-.3.7-.8 1.5-.7 2.3Zm1-17.4a11 11 0 0 1-2.6-4.4l1.8-.6 2.1-.3h.3c-1.4.4-2.7 1.4-3 3 0 .3.3.5.4.2.6-2.1 2.6-2.9 4.5-3.2-1.3.5-2.3 1.5-2.5 2.9-.2 1.6 1 3 2.3 3.8a7 7 0 0 0 2.3 1.1 10 10 0 0 1-2.4-.5 9.5 9.5 0 0 1-3.1-2Zm2 2.2-5.4-.6c.4-.3.7-.6.9-1l.5-.8h1v.1c.8 1 1.8 1.7 3 2.3Zm-2-14 2.1-1c-.5 1 .3 2.4.7 3.1.4 1 1.1 2 1.9 2.8l-2.2-1.6c-.3-.2-2.8-2.8-2.5-3.1.1 0 .1-.2 0-.2Zm2.5-1 1.9-.4a7.2 7.2 0 0 0 0 4.7c.1.5.2.9.5 1.3a12.5 12.5 0 0 1-2.2-3.6c-.2-.5-.6-1.4-.3-1.9.2 0 .1 0 0-.1Zm24.1-7.3v.6a9.6 9.6 0 0 0-1.2-3.2l-.2-2 .6.1h.7c-.1 1.4 0 3 .1 4.5Zm2.6-4.3a10.3 10.3 0 0 0-1.9 3l-.1-3.5.1-1.4.6.6c.3.3.7.6 1.1.7 0 .2 0 .5.2.6Zm.8.1 1.7.7c.6.4 1 1 1.4 1.6.3.3.4.7.6 1l-1.3-1c-1.5-.5-3 1-3.8 2.1-.7.8-1.2 1.8-1.5 2.8v-.6a11 11 0 0 1 2.9-6.6Zm6.2-2c1 .1 2 .5 3 1a261 261 0 0 1-2.4 5L95.9 65l-.2.4c.9-2.8 1-5.9.8-8.8Zm10 9.2.6.8.4.5-2 1.5c0-.3-.2-.4-.3-.7l-.8-1.1c.8-.3 1.5-.7 2.1-1.1v.1Zm3.1 4.7c.5 0 1 .2 1.4.4-.3 1.4-.5 2.6-1.2 3.8l-1.3 1.6.6-1.5c.4-1.4.6-2.9.5-4.3ZM92.9 103l2-1c.4 1 1 2 1.6 2.9.4.5 1.5 2 2.4 1.6 1-.5.5-2 .2-2.7-.4-1.2-1.1-2.2-1.8-3.2l1.7-1.4v.2c.7.6 1.1 1.4 1.6 2.1a9 9 0 0 1 1 2.5c.4 1.6 0 3.5-1.7 4-1.6.6-3.5-.3-4.7-1.4A7.6 7.6 0 0 1 93 103Zm1.6 3.8s-.2 0-.3-.2l-.3-.4.6.6Zm-9-4.4-.1-1.1H87l.1 1.2c0 .4 0 .8.2 1.1h-1.8c0-.2-.1-.2-.2-.2.2-.1 0-.8 0-1Zm-.5 1.3-1.2-.1c-.1-.2-.4-.3-.5-.1H83l.1-.2c.2-.3.1-.6.1-.9l.2-1.2 1.5.1v2.4Zm-4-.9c.2-.3.3-.6.3-1l.2-.8 1.6.2-.3 1.1v1l.1.1c-.5 0-1-.2-1.6-.4l-.1-.2Zm-.2 0c-.4 0-.7 0-1.1-.2 0-.2-.3-.3-.5-.2l-.6-.3 1-1.5 1 .4h.4l-.1.8v1Zm-16-3.2c-1-1.3-.6-3.2.4-4.4 1.1-1.3 2.7-1.8 4.4-2.3l.9 1.9c-1 .6-2 1.4-3 2.2-.5.6-1.2 1.4-.7 2.2.4.7 1.3.5 2 .2 1-.7 2-1.6 3.2-2.3l1.5 1.8-.5.5-2 1c-2.1.8-4.5 1.2-6.1-.8Zm4.3 2.5-2 1.7c-.2-.4-.7-.7-1-1 1-.1 2-.3 3-.7Zm-1.6-23.9a9 9 0 0 0 2.2 1L69 81c-1-.6-2.1-1.2-3.2-1.1-.7 0-1.3.5-1.2 1.3.1 1.8 2.3 2.3 3.8 2.4v.3l-.1 1.4a8.3 8.3 0 0 1-3.8-1.3c-1.2-.7-2.7-2-2.5-3.5.1-1.5 1.5-2.4 3-2.6.9 0 1.7 0 2.5.3ZM65.3 77l.6.2h-.2c-.1 0-.3 0-.4-.2Zm14.2-8v.2l-1.3.6-2-3c-.6-.6-1.4-1.1-2.1-.6-.8.6-.4 1.7 0 2.4.3 1 .9 2 1.7 2.7l-1.3 1a4 4 0 0 1-1.2-1l-1-1.8-.3-1.2c-.5-1.5-.3-3.4 1.3-4.1 1.3-.6 2.9 0 3.9 1s1.7 2.5 2.3 3.9Zm-.6-2.5.1.3v-.3Zm.3-2h.1v.4-.4Zm5.3 0c-.2-.6-.7-2-1.6-2-1 .2-1.1 1.4-1.2 2.1 0 1.3.2 2.5.6 3.7l-.4.1-2 .6v-.4a13 13 0 0 1 0-4.4l.7-2 .6-.8c.4-.4.8-.6 1.5-.6 1.4 0 2.6 1.2 3.3 2.4l.3.8.1.9.2.2c.2 1 .2 2 .1 2.8H85c0-1.1 0-2.3-.4-3.4Zm.3 5.5-1.6.2s.1 0 0-.1v-1.4l1.6-.2V70Zm-2.1-.5v.4l.3.3h.1l-1.4.4-.5.2-.4-1.4v-.1c.6-.3 1.2-.4 2-.6l-.1.8Zm0-1.2c-.3-.9-.4-1.8-.5-2.7v-1.1c.1-.5.5-2 1.2-1.1 1 1.1 1 3 1 4.5l-1.7.4Zm-2.8 1.3.4-.1c.1.5.2 1 .5 1.4l-1.4.7c0-.5-.2-1-.4-1.4l-.1-.1 1-.5Zm-9.3 16.7h-.1c-.6 0-1.2-.2-1.8-.1 0-.8 0-1.6.2-2.3l1 .2.8.1a10 10 0 0 0-.1 2.1Zm-.7-2.7-1-.1c0-.7.2-1.3.4-2l1.8.7-.3 1.5-1-.1Zm-.5-2.4.7-2 .1-.2 1.7.7-.7 2-1.8-.5Zm1-2.5.8-1.5 1 .4.6.3-.7 1.4H72c-.5-.3-1-.5-1.6-.6Zm.5-1.9c-1-.6-2.8-1.8-2.3-3 .1-.5.3-.6.7-.5.1 0 .3 0 .5.2.3 0 .6.3.9.4l1.5 1c-.5.6-1 1.2-1.3 1.9Zm1.4.4-1-.3 1.2-1.6 1.5.8-1 1.5-.7-.4Zm.4-2.2 1.6-1.7.6.7.5.5-1.1 1.2-1.6-.7Zm1.3-2.5.2.2-.2-.2Zm1.2 1c-.3 0-.5-.3-.7-.4l1.6-1.4.4.5.4.6.2.1-1.4 1.2c0-.2-.4-.3-.5-.5Zm.9-2.3a9 9 0 0 1-1.2-2c-.3-.5-1.2-2.3-.3-2.6.8-.3 1.5 1 1.8 1.4l1.4 2.1-1.7 1Zm1 .7-.5-.5 2-1.1c-.1 0 0 .2 0 .2.2.4.4.9.4 1.3l-1.6 1v-.1l-.4-.8Zm-3.7 1.2h.3l-1.2 1.4-1.3-.8-1.4-.8c-.6-.2-1.5-.1-1.8.6-.3.7.3 1.5.7 2.1.5.7 1.2 1.3 2 1.5l-.7 1.4s0-.2-.2-.2l-2.2-.7c-1.6-1.2-2.7-2.9-2-5 .6-1.5 2.3-2.1 3.8-1.8 1.6.3 2.8 1.4 4 2.3Zm-8 8.8-.2-.4c-.2-.3-.2-.4.1-.7.3-.3.4-.4.8-.4l.6.1c.8.2 1.4.6 2.1 1l-.4 1.8c-1-.2-2.3-.5-3-1.4Zm3.4 8.5c-.7.2-1.5.3-2.2.3-.6 0-1.7.1-2.2-.3-1-1 .8-1.4 1.4-1.6h2.4l.2-.3c0 .6.2 1.3.4 2Zm-.1-3.9c.6.2 1.2.2 1.8.2h.1c0 .9.2 1.8.4 2.7h-1.1l-.8.1c-.3-1-.4-2-.4-3Zm1.2 3.3 1-.1.2-.1.5 1.6-1 .4c-.2.1-.6 0-.9.2l-.5-2h.7Zm1 4.8a2 2 0 0 0 1.1-.3c.3 0 .6-.2.8-.4l1 1.7-.7.4-.9.5v-.1c-.5-.6-1-1.2-1.2-1.8Zm.8 2-2 1.4c-.3.3-2.5 2-2.4.5 0-.7 1-1.4 1.5-1.8l1.9-1.7 1 1.6Zm.2-2.7-1 .4a10 10 0 0 1-1-2.1c.2 0 .6 0 .9-.2a3 3 0 0 0 .9-.3l.8 1.8c-.2 0-.5.3-.6.4Zm.5 3 .9-.4c.2-.2.6-.3.8-.6l1.3 1.6-.6.5-1 .6-1.4-1.8Zm2.6 1.5.7-.5c.4.4.9.8 1.4 1l-.4.7-.7.7v.1L74.3 99v-.2l.7-.4Zm1.6 3c-.4.7-.7 1.5-1.2 2.2l-.9 1c-.3.4-1.2.8-1.6.3-.5-.8.4-2.1.8-2.7l1.6-1.7 1.3 1Zm-.3-.8a3 3 0 0 0 1.2-1.4c.6.4 1.1.8 1.8 1l-.9 1.7-.2-.2-2-1.1Zm5.4 3 1.5.4-.6 2.3-.4 1.4c-.1.2-.4 1.2-.7 1.2-.3 0-.7-.2-.7-.5v-.4c-.1-.6 0-1.1 0-1.6.2-1 .5-1.8 1-2.7Zm-1-3.2h-.2A17 17 0 0 1 74 95a15.7 15.7 0 0 1-3-8.3A16 16 0 0 1 79.7 72a15.6 15.6 0 0 1 17 2.1c2 1.8 3.4 4 4.2 6.6l.1.3a15.4 15.4 0 0 1-3 14.4 12.4 12.4 0 0 1-4.5 4.1c-1.9.9-4 1.1-6 1.3-2.3 0-4.5 0-6.7-.4Zm20-34.9c1.3.9 1.7 2.4 1.4 3.9-.4 1.6-1.6 2.7-2.8 3.9l-1-1c.8-.6 1.5-1.8 2-2.8.2-.6.6-2-.3-2.5-.8-.4-1.7.6-2.2 1.1l-1.1 1.5c-.3.3-.6.7-.7 1.2l-1.4-.8c.9-2.2 3.3-6.4 6.2-4.5Zm-5.5 2v-.2l.4-.5.2-.1-.6.8Zm7.2 17.8h1l.5-.1v2H102c.2-1.2.1-2.5 0-3.8.3 0 .6 0 .8-.2.3 0 .6-.1.8-.3l.2 1.8h-.5l-1 .3c-.1 0-.1.4.1.3Zm1.8 3.9c1 .2 1.7.2 2.5.6.7.3 1.8.8 2 1.6.2 2-4.2-.1-5-.3.3-.6.4-1.3.5-2Zm0-6.5c.6 0 1.3-.3 2-.4.6-.1 2.3-.6 2.5.5.2 1.3-3.2 1.3-4.3 1.2l-.2-1.3Zm-.7 7.5c-.3-.2-.6-.2-1-.2h-1l.5-2.4h1c.2 0 .5.2.9.1l-.4 2.5Zm0-7.8-.9.4-.7.2-.5-2.2c.5-.1 1.2-.3 1.6-.6l.6 2.2ZM87.9 68.5l2.2.4-.6 1.2-1.9-.2c.2-.4.3-.9.3-1.3Zm2-.2a10.7 10.7 0 0 1 1-3.1c0-.3.3-1 .6-1 .3-.3.8-.2 1 .1v1l-.1 1.2a9 9 0 0 1-.8 2.3 8 8 0 0 0-1.7-.5Zm.6.8V69c.6 0 1.1.2 1.6.4-.3.3-.5.8-.7 1.2l-1.6-.4.7-1.1Zm2 .6c.7.1 1.3.4 1.8.7l-.4.4-.6.5-1.5-.5.8-1.1Zm1.7 1.5.6-.6 1.2.6-.4.4-.2.3-.1.2v.1l-.2.2-1.6-.9c.3 0 .5-.2.7-.3Zm1.5 1 .3-.2c0-.2.3-.3.4-.5l.9.7-.8 1.1-1.1-.8.3-.3Zm.7-1.3c.4-.4.7-1 1-1.5.4-.6 1.2-1.8 2-2 1.4-.3.3 2.3 0 2.7l-1.5 2c-.4-.5-1-.9-1.5-1.2Zm1.3 1.6 1.4 1.3-.2.1-.8.6c-.2.1 0 .5.2.4l.8-.5.4-.2 1.1 1.4-.4.5-.7.5-.9-1a8.6 8.6 0 0 0-1.8-2l.9-1.1Zm2.9 3.9.4-.4.2.3.1.2.7 1.2a4 4 0 0 0-.7.5l-.6.5c-.2-.6-.6-1.2-1-1.7l.9-.6Zm1.2-.2c.9-.9 3.2-3.4 3.8-2.1.4.8-.6 1.6-1.1 2a7 7 0 0 1-2 1.4l-.7-1.3Zm-.3 2.4.7-.5.8 1.8c-.3 0-.6.3-.9.4l-.7.2-.6-1.5.7-.4Zm1.8.5-.6-1.2c1-.3 1.9-1 2.6-1.8.7-.6 1.4-1.5.8-2.4-1-1.6-3.7.7-4.6 2l-1.7-2h.3c1.1-1 2.4-2 4-2.2 1.4-.3 3.1.3 3.8 1.7.6 1.4-.2 3-1 4a6 6 0 0 1-3.5 1.9h-.1ZM94 69.6l-1.8-.7c.5-1.3 2-5.2-.2-5.5-1-.1-1.5 1-1.8 1.7-.4 1-.7 2-.7 3.2l-2-.3v-.2a9 9 0 0 1 1.4-4c.7-1 2.3-2.9 3.8-2.2 1.2.7 1.8 2.5 2 3.7a7 7 0 0 1-.7 4.3ZM91.6 102l.4.7-1.6.5-.5-1-.3-1.2c1 0 2-.4 3-.7l.5-.1.6 1 .6.6-1.7.7-.5-.8-.6-1-.2.1c0 .5.1.8.3 1.2Zm-3.8 1.6v-1.1l-.3-1.2 1.7-.2c0 .7.3 1.6.7 2.2l-2.1.3Zm2.7 2.7.1 1.4c0 .3 0 2-1 1.3-.3-.2-.5-.8-.6-1.1l-.4-1.2c-.3-.8-.4-1.7-.4-2.6l1.7-.2c.2.8.5 1.5.6 2.4Zm3.6-5.4-.7-.8 1.7-1 .8.7c.2.3.4.5.7.6-.6.5-1.3.9-2 1.2 0-.3-.4-.5-.5-.7Zm2.7 0 1.4 2.2.5 1.2.1.8c0 .4.1.6-.3.8-.3.3-.4 0-.7-.2l-.4-.4-1-1.1a12 12 0 0 1-1.2-2.2l1.6-1Zm-.5-1.4-.8-.6 1.5-1.3v.2l.8.7.7.5-1.5 1.2c-.1-.4-.5-.5-.7-.7Zm-8.4 4.7c-.1 1 0 2.3.4 3.3.3.8.8 2.3 1.7 2.2 1 0 1.2-1.2 1.2-2 0-1.3-.4-2.7-.8-4a12 12 0 0 0 1.8-.5v.2c.5 1.6 1 3.2.8 5-.3 1.4-1.2 2.8-2.6 3.2-1.7.5-3-1.5-3.5-2.8-.5-1.5-.7-3-.8-4.5l1.8-.1Zm10.9-5.5c-.2-.3-.5-.4-.8-.6l-.9-.6 1.1-1.4 1 .8.7.5-1.1 1.3Zm.8-2.1-1.1-.8 1-1.6.1.1 1 .6.8.5-1 1.5c-.3 0-.6-.2-.8-.3Zm1.2.6c.4-.5.8-1 1-1.6l.8.4c.4.2.7.5 1 .9a7 7 0 0 1 1.6 2.2v.5c0 .6-.6.6-1 .4-.5-.2-.8-.5-1.2-.8l-2.3-2Zm1-2.4-.2.2c-.2-.3-.5-.4-.8-.5l-1-.6h-.2l.6-.8.4-.8v.1l1.9.8a8 8 0 0 1-.8 1.6Zm.6-2.3L101 92h-.2c.3-.5.4-1.1.6-1.6l1.2.1.8.1c-.2.7-.3 1.3-.6 1.9h-.2Zm1.3-1.2c.8.8 2.3 1.2 3.4 1.4.8.1 2 .1 2.1-.9.2-1-.8-1.8-1.5-2.2a6 6 0 0 0-3.4-.9l.2-1.9.5.2c1.3.4 2.4 1 3.5 1.7 1.3.7 2.8 1.8 2.2 3.4a4.2 4.2 0 0 1-3.5 2.4 5 5 0 0 1-2.3-.6l-.5-.3-.4-.2-.8-.4c.2-.5.4-1 .5-1.7Zm2.7-4.8-2-.2v-2c1.1.2 2.3.1 3.4-.1.6-.2 1.4-.6 1.4-1.4 0-.8-.8-1.2-1.4-1.3l-1.8.2-1.9.4-.6-2.2 2.5-.2c.8 0 1.7 0 2.5.2 1.5.4 3 1.5 3 3.3 0 1.7-1.3 2.9-2.8 3.2h-2.3Zm.6-7.3h.5l1.2.2-1.7-.2Zm5 3.8c0-1.5-1-2.7-2.4-3.2.7.2 1.5.5 2.1 1 .6.4 1.2.8 1.6 1.4.5.6.7 1.3 1 2l-.6.7c-1 .8-2.2 1.3-3.5 1.6a4 4 0 0 0 1.9-3.5Zm.3-2.3c-1.2-.9-2.6-1.3-4-1.7a8.6 8.6 0 0 1 5.1 1.2c.7.4 1.2 1 1.8 1.4h.1c-.1.7-.3 1.5-.7 2.1a5.9 5.9 0 0 0-2.3-3Zm1.4-.9a8.7 8.7 0 0 0-4.2-1.2h.3c1.8-.3 4-.6 5.6.2v2.4c-.4-.6-1.2-1-1.7-1.4ZM110 78l-3.1.6h.1l2.5-1.1 5.3-2.2c.3 1 .4 2 .5 3-1.5-.8-3.6-.5-5.3-.3Zm-.5-1.2-1.5.7c.8-.5 1.4-1.1 2-1.7 1.1-1 2.5-2.1 2.9-3.6l.5.5a6 6 0 0 1 1.2 2l-5.1 2.1Zm0-1.1-.2.2c1.2-1.3 2-3 2-4.7l1.2.7c-.3 1.5-1.9 2.7-3 3.8ZM109 74c-.2.7-.5 2-1 2.7.6-1.2 1-2.6.4-3.8a4.1 4.1 0 0 0-3.9-2.1c1.3-.4 2.6-.6 3.9-.5h.9c0 1.3 0 2.5-.3 3.7Zm0-4.3c-1.4-.2-3 0-4.3.4l1-.7c0 .2.3 0 .2-.2l2.1-1.5.8.8.7.5-.5.7Zm.3-1.5-1-.8.8-.7.6-.7.4.6.9 1-1 1-.7-.4Zm1.2-1.9-.6-.6.2-.2 1-.8c.1 0 .3.1.4 0l.7-.5.5 1.1c.2.2.3.6.6.7l-1.9 1.2-.9-.9Zm-.5-2-.4-.3-.8-.4c.8-1 1.4-2 1.9-3.2l.6.2.4.1c-.5 1.2-1 2.5-1.7 3.6Zm-.7 0 .5.4-.7 1-1.2 1.2c0-.2-.2-.4-.4-.6-.2-.2-.4-.5-.7-.6.7-.6 1.3-1.2 1.8-1.9l.7.5Zm-4.4 3.9.3.6c-.8.6-1.7 1.2-2.4 2a9.6 9.6 0 0 0 1.5-3.7l.6 1Zm-2.2 1.5.2-.8a4 4 0 0 0-1.7-4l-.3-.1c1 0 2 .1 3 .5a10 10 0 0 1-1.2 4.4Zm-3-5.3h-.4l.4-.1a11 11 0 0 1 2-.5c.7-.2 1.4-.1 2.1-.2v.6l.1.6a7.4 7.4 0 0 0-4.1-.4Zm-.3-.5c-.8.3-1.5.7-2.2 1.2a18 18 0 0 1 1.8-1.9l1.8-1.6 1.8-1.2a9 9 0 0 1 1.1 2.7c-1.4-.3-3.1.3-4.3.8Zm1.1-2.7-1.8 1.6-2.3 2.4 1.2-2.3 2.5-5c.8.5 1.6 1.3 2.2 2.1l-1.8 1.2Zm-5.1 4.5-.1-.8v-3.7l-.5-2.5c-.2-.7-.5-1.5-1-2h.6c.6-.2 1.2-.2 1.7-.2.3 3.2 0 6.2-.7 9.2Zm-1-6.7.5 2.5v1.7a8 8 0 0 0-1.2-3c-.6-.9-1.8-1.9-3-2 .9-.6 1.7-1 2.8-1.4l1 2.2Zm-7 9.5L87 70h-1.8c0-.1 0-.2-.1-.1v-1.3h2Zm-1.5-6.6c-.9-1-2-1.7-3.4-1.7h-.3c.6-.5 1.2-.9 2-.9h.2a9 9 0 0 1 1.5 2.6Zm-4.6-1.4c-.8.6-1.3 1.6-1.6 2.5l-.2.5a19 19 0 0 1 2.7-6.4l1.1.8.9 1c-1.2 0-2.2.8-2.9 1.6Zm-2 2.1v-1.4c.1-1.8.4-3.4 1-5 .6.1 1 .3 1.6.6a14.9 14.9 0 0 0-2.6 5.8Zm-.5-1.7v3l-.8-2.6-.9-2.8c-.2-.9-.4-1.8-.8-2.6l.7-.1c1-.1 1.9 0 2.8.2a14 14 0 0 0-1 5Zm-2.1-2.5.9 3 1.2 4.3c-1.3-3-3-6-5.2-8.5a7 7 0 0 1 2.3-1.2l.8 2.4Zm.6 5.3a15 15 0 0 0-1.6-1.8c-1.1-1-2.4-2.1-3.8-2.7a7 7 0 0 1 1.3-1.7c1.5 2 2.9 4 4 6.2Zm-1.9-1.3 2 2a9.5 9.5 0 0 0-2.8-1.7c-1-.5-2.5-1-3.6-.9 0-.7.3-1.5.7-2.2 1.3.9 2.6 1.7 3.7 2.8Zm-2.8.1a12.8 12.8 0 0 1 3 1.1c-1-.2-2.1-.2-3 .5-.9.6-1.3 1.7-1.3 2.8-.4-1.5-.6-3-.4-4.6l1.7.2Zm-1.8 4.7c.4 1.2 1 2.4 1.6 3.4l-1.8-1.9-.8-1h.1c.2 0 .3 0 .5-.2l.4-.3Zm-.7 0h-.3l-.3.2-1.5-2 .5-.1 1-.4.9 1.2h.1l.1.6-.5.4Zm-1.7-2.4-.6.2-.2-.3-.3-.3-1-1.7h.4s.1.2.3 0c.2 0 .4 0 .6-.2.1 0 .3 0 .4-.2.4.8.7 1.5 1.2 2.1l-.8.4Zm-.8-2.7h-.1c-.5 0-1 .2-1.4.3-.7-1-1.2-2-1.8-3.2a9 9 0 0 0 1.1-.2c.3 0 .6 0 .9-.2l.3.8 1.1 2.4h-.1Zm-2.3-3.5-1 .3-1-2-.4-1.4 1 .1c.4 0 .9 0 1.2-.2l1 3-.8.2Zm-1.2 3-.2.2c0 .3 0 .6-.2.9 0 .3-.2.6-.4 1l-1.4-1 .2-1.1.3-1 1.7 1Zm-.3 2.2c.3-.5.7-1.3.6-2l.8.6h.2l.1.3.2.2 1 1.7.2.3c-.3.3-.7.5-1.1.6h-.1a14 14 0 0 0-2-1.7Zm3.4 1.4.1.1c0 .1 0 .3.2.3l1 1.5-1.2.4-1.3-1.7c.5 0 .9-.3 1.2-.6Zm1.6 2.2 1 1.3 1.9 2a10 10 0 0 0-2.8-1.2h.4l.7-.4c.1-.1 0-.3-.2-.3l-.7.2-.8.4H68c-.1-.6-.4-1-.6-1.5l1.3-.5Zm-.6 2.6a3.6 3.6 0 0 0-3.3 3c-.1-1.1 0-2.2.4-3.3h1c.7 0 1.3.2 1.9.3Zm-6.4 4c1.2 1.3 2.6 2.2 4.2 2.8l.1.1c-1.2-.5-2.5-1-3.6-1.6-1.5-.7-2.8-1.6-4.2-2.3.4-.7 1-1.2 1.7-1.7 0 .8 1.6 2.5 1.8 2.8Zm.5 1.7c.4.3.8.4 1.3.6-2-.6-4.2-.8-6.3-.4 0-1 .3-1.8.7-2.5 1.3 1 2.9 1.6 4.3 2.3Zm2.7 1.5h-.3c-1-.2-2-.3-3-.1-1.4.1-3 .3-4 1l-.3-1.2-.1-.5c2.6-.4 5.2 0 7.7.8Zm3.3 8.7v.5l.2 2-.2-.1c-1-.1-5.1-.1-4.7 1.9.3.7 1.4 1 2 1 1.2.1 2.3-.2 3.4-.5l.5 1.6a13 13 0 0 1-5 .5h-.2v-.1H64c-1.4-.3-2.8-1.1-3.3-2.5-.6-1.7.8-3 2.3-3.6 1.6-.5 3.4-.6 5.1-.7Zm-8 4.3a4 4 0 0 0 1.2 2 4.1 4.1 0 0 1-2.2-3.9 14 14 0 0 1 2.7-1.8c-1.3.8-2.2 2.2-1.8 3.7Zm2.6 2.9.4.1c-.9 0-1.8 0-2.7-.2-1.4-.4-2.6-1-3.4-2.2l-.1-.1c.2-.5.5-.9.9-1.3l.8-.8c0 2.3 1.9 4.3 4 4.5Zm-1 .6-1 .1h-2.4c-.8 0-1.5-.3-2.2-.5 0-.7.3-1.4.5-2a7.3 7.3 0 0 0 5.1 2.4Zm-1.4.7c1.7-.1 3.5-.4 5.2-.9h.6c-1.7.3-3.4.9-5 1.5l-2.5 1.1-1.4.7-.4.4a8 8 0 0 1-.7-3.3c1.2.7 3 .6 4.2.5Zm1.4 5.4a6 6 0 0 1 .8-2.1l.5-.9a5 5 0 0 0 .9 5.3c-.6 0-1.3-.2-2-.4 0-.6-.3-1.1-.2-1.9Zm3.9 3.5.6.4.5.4-1.6 1.2-.5-.5-.3-.2 1.3-1.3Zm-1 2.3-.6.4-2 1.2-.5-.4-.4-.7c1-.3 1.9-.8 2.7-1.3l.4.4.5.4Zm-2.2 2.2-.2.2.2-.2Zm0 1.2.9-1.3 1 .7c.5.2.8.5 1.3.6h.1c-.5.8-1 1.6-1.4 2.6l-2.9-.7 1-2Zm4.6-3.2-.6-.5c1-.7 2.1-1.6 3-2.5-.6 1-1 2-1.3 3.1l-.3.4-.8-.5Zm1.5 1.3a9 9 0 0 1 1.5-3.8l-.2.3c-.5 1.6-.5 3.8 1.3 4.5a4 4 0 0 0 3.5-.3 7.5 7.5 0 0 1-3.8 1l-1.4-.4c-.3 0-.6-.3-.9-.4v-1Zm4.7 2c.9-.3 1.8-.8 2.7-1.4-.7 1-1.3 1.8-2.3 2.2a6 6 0 0 1-2.6.7l-2 .1a8 8 0 0 1-.5-2c1.3.8 3.4.7 4.7.3Zm-1.9 2a6 6 0 0 0 2.6-.7c.9-.4 1.5-1.2 2-2l-1.1 2c-1.3 1.4-3 2-4.8 2-.4-.4-.7-.8-.9-1.3.7.2 1.5.1 2.2 0Zm3.7-.2.3-.3-2 4.4h-.2a7 7 0 0 1-2.3-1.5l-.5-.5a7 7 0 0 0 4.7-2Zm.5.7.1 2.4c.1.3.2 1.2.6 1.5-.8 0-1.6-.1-2.3-.4l1.6-3.5Zm1.8-2.8a5.3 5.3 0 0 0 5.5 4.8 8.2 8.2 0 0 1-4 1.8 8.7 8.7 0 0 1-1.5-6.6Zm-1.2-2.6c-1.2.8-3 1.8-4.4 1.4-2-.5-1.6-3.1-1-4.6.8-1.5 2-2.6 3.1-3.7l1.2 1c-1 .5-1.7 1.4-2.3 2.3-.4.8-1 2-.1 2.7.7.6 1.7.2 2.3-.5.5-.4.8-1 1.2-1.5l.8-1.6a14.3 14.3 0 0 0 2 1l-.1.3a8.7 8.7 0 0 1-2.7 3.2Zm2 1.5c.1-1.6.9-3.3 1.4-4.8l1.2.3.1.3.5.1a7 7 0 0 0-1.2 3.5c0 .8-.1 2 .7 2.4 1 .3 1.4-.7 1.7-1.3.5-1.3.8-2.7 1.1-4h1.7v.1c-.2.8 0 1.4-.1 2.1 0 .8-.3 1.5-.7 2a4.5 4.5 0 0 1-3.8 2.4 2.8 2.8 0 0 1-2.6-3.1Zm7.4 2.7.1-.4a7 7 0 0 0 2 3.1l-.2.9-2.3-.2c0-1.2.2-2.3.4-3.4Zm.4-1.6v-.8l.6 1.6c.7 1.4 2 3 3.8 2.6.4 0 .7-.1 1-.3-.6.6-1.2 1.2-2 1.7a8.2 8.2 0 0 1-3.4-4.8Zm6.6 1.9c.3-.3.4-.7.6-1v1.2l-.5 2.1c0 .4-.2.7-.3 1 0 .3-.1.7-.3 1l-2.2-1a8 8 0 0 0 2.7-3.3Zm.3 3.4a16.6 16.6 0 0 0 .7-5.7v-.5a17.2 17.2 0 0 1 1.1 5.3v2.3h-.2a15 15 0 0 1-2-.4l.4-1Zm3-3.6-1-2 1.4 1.8c1 1.4 2.5 2.8 4.2 3.3a6 6 0 0 1-2.4 1.5l-2.3-4.6Zm.8-.3-1.7-2.3.2.1 2.2 1.7c1.2.8 3.3 1.7 4.7 1.2l-.8 1.6-.5.8a10 10 0 0 1-4.1-3.1Zm3 0c-.8-.1-1.5-.5-2.3-1l-1.8-1.3a7.6 7.6 0 0 0 7.1.6c0 .7-.2 1.4-.5 2-.9 0-1.7 0-2.5-.2Zm2.9-2a7 7 0 0 1-2.7.6l.5-.2c1.5-.7 2.2-2.5 2-4.1-.2-.9-.5-1.6-.9-2.4a9 9 0 0 1 1.3 6h-.2Zm-3.2-9.5 1-1.1h.3c1 1 4.5 4.7 5 2.3.3-1-.5-2-1-2.6a7 7 0 0 0-2.5-2.2l.8-1.6c.4.4 1 .8 1.6 1l.4.4s-.2.1 0 .1l.3.2 1.1 1.5c1 1.3 1.8 2.8 1.2 4.4-.6 1.8-2.7 1.8-4.1 1-1.5-.8-2.8-2.2-4-3.4Zm5 8.2.4-.5 1.1 1.3s0 .2-.2.3l-.4.6-1.5-1 .6-.7Zm1.7 1.5.2-.3 2 1.5v.2l.6.3-.4.4-1 .5a9 9 0 0 0-1.9-2l.5-.6Zm2.4.5.4-.6c.2-.3.4-.5.4-.8.8.5 1.7 1 2.6 1.3a3 3 0 0 0-.4.9l-.3.7c-1-.4-1.9-.9-2.7-1.5Zm.4-1.6-.4.8-.3.7a14 14 0 0 1-2.3-2l.7-.6.7-.8 1.6 1.9Zm-2-2.3-.7.8-.6.8c-.9-1-1.6-2-2.2-3a8 8 0 0 0 3.5 1v.4Zm-3.3-2.1.3.1c1.5.6 3.4.2 4-1.4a4 4 0 0 0 .4-1.8l.1.3c.2.6.4 1.2.4 2 0 .6-.1 1-.4 1.7h-.4c-1.6.2-3.1-.2-4.4-1Zm6.7-1.9a12 12 0 0 0-4-5.2 19.6 19.6 0 0 1 6.6 5.5c-.5.7-1.2 1.2-2 1.6 0-.6-.3-1.3-.6-1.9Zm-1.8-4.3 1.5.8 2.3 1c.6.3 1.3.8 2 .8l-1.1 1.8a17.8 17.8 0 0 0-4.7-4.4Zm4 1.4-2.4-1.2-1.4-.7c2 .8 4.2 1.2 6.3 1 0 .7-.3 1.2-.5 1.8-.6-.5-1.3-.6-2-1Zm-2-1.7-1.4-.5a6 6 0 0 0 2.3 0c1.4 0 3-.5 3.9-1.6a9.2 9.2 0 0 1-.2 2.6c-1.5 0-3-.2-4.5-.5Zm4.6-2.6c-1 1.3-2.8 1.7-4.3 1.8l-2-.1c2.6-.3 5.3-2.4 5.2-5 .7 1 1 2 1.2 3.2h-.1Zm-3.5.1c-1.3.9-3 1.5-4.4 1.2h-.2.3a4.7 4.7 0 0 0 3.7-2.7c.6-1.5-.2-2.7-1.3-3.6-.6-.5-1.3-.9-2-1.2 1.9-.4 3.9.3 5.3 1.7l.4.4a4 4 0 0 1-1.8 4.2Zm3-7.4-3.9.5a8 8 0 0 0 2.8-1.3l1-.8.2.1h1.8v.4l.1.8v.1c-.6.2-1.3.2-2 .2Zm1 1.4c0-.3 0-.5.2-.7l1.5-.1 1.4.2-.3.8-.1.6c-1-.2-1.8-.4-2.7-.4v-.4Zm1.7-1.6v-.2h-.1V86l-.1-.3v-.3l-.1-.4c1-.1 1.8-.4 2.8-.6l.2.7.3.8-1 .2-2 .2Zm3.1-1.3-.2-.8c.7-.2 1.5-.5 2.2-.9l.5 1 .5.8-2.7.8c0-.4-.1-.6-.3-1Zm2.9-.9-.6-1a11 11 0 0 0 2.5-1.5c0 .2.2.4.3.5l1 1.5c-1 .5-1.8 1-2.7 1.3 0-.3-.3-.5-.5-.8Zm3-1.5c-.2-.3-.5-1-.8-1.1l.1-.1.2-.1 2-1.6.9.8.9 1c-.9.6-1.7 1.3-2.7 1.8l-.6-.7Zm-4.3.2a16.3 16.3 0 0 1-7.2 1.6 7.7 7.7 0 0 0 1.2-4.5c0-1.6 0-3.3-.6-5 .5 0 1-.2 1.4-.4h.1c1 0 1.8.3 2.5 1a4 4 0 0 1 1.2 2.8c0 1.1-.5 2.5-1.7 2.6-.7 0-1.3-.5-1.3-1.2 0-.3.1-.7.4-.8.2-.2.7-.5.9 0 0 .4.6.3.6-.1 0-.7-.7-1-1.3-1-.7.2-1.3 1-1.3 1.6-.3 2 2 2.7 3.3 1.8 1.5-1.1 1.5-3.4.7-4.9-.6-1-1.8-1.9-3-2.2l.6-.2 3.2-1.1c.9-.1 1.7 0 2.5.3a4 4 0 0 1 2 2.4c.2 1-.4 2.5-1.6 2.5-.5 0-1.1-.3-1.3-.8-.1-.7.6-1.2 1.2-1 .3 0 .5-.4.2-.6-1.3-.7-2.6 1-2 2.2.8 1.4 2.8 1.2 3.6 0 1-1.4.6-3.3-.6-4.4-.6-.7-1.5-1-2.4-1.2l3.6-1c1.2 0 2.5.4 3.2 1.4.4.6.6 1.6-.3 2h-1c-.4-.3-.6-1-.1-1.2.2-.2 0-.7-.3-.6-1 .3-1 1.6-.2 2.2.8.6 2.3.4 2.7-.5.5-1 0-2.2-.8-2.8-.5-.5-1.2-.8-2-.8l4.3-1.3c.6.2 1.1.7 1.2 1.4 0 .5-.5 1-1 1-.5-.2-.6-.7-.4-1 .2-.3-.2-.6-.4-.4-.5.5-.4 1.2 0 1.7.6.5 1.4.3 2-.2.5-.6.5-1.5 0-2.2-.1-.2-.4-.5-.7-.6l3.6-1.4-1.3 2.3-2.3 2.9a72.8 72.8 0 0 1-5.1 5.3 21.5 21.5 0 0 1-6 4.4Zm-5.8-18c0-.1 0-.1 0 0 0-.5-.3-.8-.4-1.1l-.5-1a11 11 0 0 1 2.6-.7l.2.9c.1.3.1.9.3 1.2-.8.1-1.5.4-2.3.6Zm-1-.9.5 1c-.7.2-1.5.5-2.2 1l-.6-.8c-.3-.3-.4-.7-.6-1l.1-.2a15 15 0 0 1 2.3-1v.1h.2v.1l.1.3.3.5Zm-3.1-.6-.8.5-.3.1-.2.2.9-1.9h.2c1.6-2.1 3.1-4.1 5-6 .7-1 1.6-1.7 2.5-2.6.4-.4.9-.9 1.4-1.1.4-.2.9-.3 1.2 0 .4.4 0 1-.2 1.3-.7 1-1.7 2-2.5 2.9a48.8 48.8 0 0 1-7.2 6.6Zm-.8-9.4c-.4 4.8-2.2 10.3-7 12.2a9.5 9.5 0 0 0-4.4-9l.5-1V56l.3-.4 1.2-.8c.6-.3 1.3-.6 2-.6 1.2-.1 2.3 1 2.6 2.1a3 3 0 0 1-.8 3c-.4.5-1.4.7-1.7 0-.4-.6.2-1.3.4-1.8.2-.4-.3-.5-.5-.4-.6.6-1 1.6-.7 2.4.3.7 1.1 1 1.9 1 1.8-.3 2.5-2.5 2.2-4-.4-1.9-1.9-3.3-3.7-3-.9.1-1.7.5-2.4 1l1.8-3.8h.2c.1 0 .3-.1.1-.3.7-.8 1.6-1.2 2.6-1.4 1-.2 2.5-.1 3.2.9.6.9.7 2.4-.3 3.1-1 .7-2.3-.3-1.5-1.4.2-.3-.2-.6-.4-.4-1.1.8-.5 2.6.8 2.8 1.6.4 2.7-1.3 2.6-2.8a3.3 3.3 0 0 0-3.2-3c-1 0-2.4.3-3.3 1l1.8-3.7c.2 0 .3-.1.2-.2 1-.4 2-.9 3-.4.5.3.9.8.7 1.4 0 .1 0 .4-.2.5-.5.4-1.1 0-1-.5.1-.3-.2-.5-.4-.3-.7.7 0 1.7.8 1.7.8.1 1.5-.7 1.5-1.5 0-1-.6-1.7-1.5-2-.9-.3-1.8-.1-2.6.3l1.6-3c.5-.4 1.4-.7 1.6 0 .2.4.2 1 0 1.3-.2.4-.7.4-.8-.2 0-.1-.2-.3-.4-.1-.4.5 0 1.2.7 1.3.7 0 1.3-.7 1.3-1.4 0-.8-.2-1.7-1-1.9a2 2 0 0 0-1 0l.5-.8 1.4-2.6c.8 5.7 1.7 11.2 1.3 16.8ZM108 39.7l-1 2c0-.8-.1-1.5-.8-2-.8-.6-1.9-.6-2.3.3-.4.6-.3 1.6.5 1.9.7.1 1.6-.2 1.5-1 0-.1-.3-.2-.4 0-.2.2-.5.5-.9.4-.6-.2-.3-1 .2-1.3.6-.3 1.3.2 1.5.7.3.5.3 1.1.4 1.7l-1.6 3.2h-.1c0-1.1-.4-2.3-1.6-3-1.1-.5-2.5 0-2.8 1.2-.3 1 .6 2.1 1.7 1.9.9-.2 1.4-1.6.5-2.1-.2-.2-.4.1-.3.3.2.6-.2 1.5-1 1s-.1-1.7.7-1.8c1.8-.1 2.2 2 2.3 3.3l-1.8 3.7c0-1.3-.7-2.7-1.8-3.6-.7-.5-1.7-.9-2.6-.6-.8.2-1.4.8-1.6 1.7-.2.8 0 1.7.7 2.1.7.5 1.7.4 2.2-.2.5-.5.7-1.3.2-1.9-.4-.5-1.4-.5-1.4.4 0 .3.4.4.5 0 .4.1.5.3.4.6l-.2.4a1 1 0 0 1-.7.3c-.6 0-1.1-.6-1.1-1.2 0-1.2 1.3-1.9 2.3-1.6 1.9.6 2.8 2.8 2.6 4.6l-2 4.1a5 5 0 0 0-3.1-3.5c-.9-.4-2-.6-2.8-.2a2 2 0 0 0-1.2 2c.2 1.7 2.7 2.7 3.5 1 .3-.7 0-1.5-.6-1.8-.7-.3-1.4.2-1.4 1 0 .2.4.2.5 0 .1-.6.9-.5 1 .1 0 .3-.3.5-.5.7-.5.3-1.3 0-1.6-.5-.4-.5-.3-1.2.2-1.6.4-.5 1.1-.5 1.7-.4a5 5 0 0 1 4 3.8l-.5 1a8.6 8.6 0 0 0-9.8 1.4 158.1 158.1 0 0 1 2-5.3 30.4 30.4 0 0 1 17.6-15.6l-1.2 2.4Zm-13 6.7-.1-.1c-.5-.5-1.2-1-1.8-1.3a24 24 0 0 1 1.8-1.8l.8.7.9.7-1.7 1.8Zm-.3.2-1.5 2.2-1-.8-.9-.7 1.6-2c.5.4 1.1 1 1.8 1.3Zm-5.5 7.2 1 .7-.9 3c-.2-.3-.5-.4-.8-.6l-.8-.7.6-3 .9.6Zm-2.1 1.5-.3-1.5c0-4.6-.4-9.2-.4-13.8 0-1.1 0-2.3.7-3.3l.4-.4c.2 0 .6.2.7.4l.2.8v2a135.6 135.6 0 0 1-1.3 15.8Zm-.4 2.5H86l-.6.1c-.1-1.1-.3-2.3-.6-3.4h.7l.8-.2.4 3.5ZM85.6 54l-.8.2-.8-3 .9-.1.6-.1.8 2.9a7 7 0 0 0-.7.1Zm-.8-3.3-1 .2-1.1-3 .6-.2.7-.2 1.2 3-.4.2ZM83 47l-.6.3-1.3-2.5c.3 0 .5-.1.7-.3l.6-.3c.5.8 1 1.7 1.3 2.6l-.7.2Zm-1.5-2.8-.5.4-1.4-2 .6-.4c.2 0 .5-.2.6-.4.5.7 1 1.3 1.3 2-.2 0-.4.2-.6.4Zm2.1 7.8c.7 2.3 1.1 4.6 1.3 7a8.6 8.6 0 0 0-9.4-3.7l-.4-1 .4.8c.1.2.5 0 .4-.2-1.2-2.3.4-5.3 3-5 1.2.1 2.4 1 2 2.3-.3 1.1-1.7 1.1-2.2.1-.2-.4-.7 0-.6.3.2 1.4 2.2 1.7 3.1.7 1-1.2.5-3-.8-3.7a3.8 3.8 0 0 0-5.5 4.1l-.1-.2-1.7-4.1c0-1.7.5-3.4 2-4.3.8-.4 1.9-.5 2.4.4.2.4.4 1 .2 1.4-.2.6-1 .7-1.2 0 0-.2-.5-.3-.6 0-.3 1.3 1.5 1.6 2.2.8.9-1 .4-2.7-.7-3.4-1.1-.8-2.8.1-3.7 1-.7.8-1 1.7-1.1 2.8L71.2 44c-.3-1.3.2-2.8 1.5-3.3.7-.2 1.6 0 1.8.7.1.2.2.6 0 .8-.2.3-.7.4-.9 0-.1-.2-.6 0-.5.2 0 1 1.4 1 2 .3.5-.8.2-2-.6-2.6-1.1-.7-2.5-.1-3.3.8l-.7 1.4-1.1-3 .1-.1c-.3-1 0-2.4 1-2.6.5 0 1 .2 1.1.6v.6c0 .3-.5.5-.6.1-.1-.2-.4-.2-.5 0-.3.3 0 .7.3.9.4.2.9 0 1.2-.2.6-.6.5-1.7 0-2.3-.8-.7-1.9-.5-2.6 0a2 2 0 0 0-.6 1.4l-.5-1.5-1-2.8 2.3 1a26.3 26.3 0 0 1 7.5 5.5l.1.1a34.4 34.4 0 0 1 6.5 12Zm-16-15.5.8 2c-.4-.4-1-.6-1.6-.4a1.9 1.9 0 0 0-1.4 2.5c.3.9 1.6 1.3 2.3.4.5-.7-.3-2.1-1.1-1.5-.2 0-.2.4 0 .4.3 0 .8.3.6.7-.1.2-.6.2-.8.1-.5-.2-.5-1-.3-1.4.7-1.2 2.3-.8 2.7.3l.1.1 1.2 3.2.3.6c-1-.6-2-1-3-.4-1.1.5-1.6 1.7-1 2.8.5.8 2 1 2.4-.1.4-1-1.1-2-1.6-1 0 .3.2.4.3.4l.3-.1c.4.5.4.8-.2.8-.3 0-.6-.3-.7-.6-.2-.5 0-1 .4-1.4 1-.8 2.3-.2 3.4.4l1.7 4.4c-1.3-.9-3-1.3-4.3-.7-1.3.5-2.5 2.1-1.4 3.4.9 1 3 .9 3.2-.8 0-.6-.3-1.1-1-1.3-.5-.1-1.2.2-1.3.7 0 .3.3.6.5.3.3-.3.9-.5 1 0 .2.8-.5 1.1-1 1a1 1 0 0 1-1-1c0-.4.3-.9.6-1.2 1.5-1.4 3.4-.4 5 .3l1.4 3.5a6.3 6.3 0 0 0-4.3-.1c-1.6.6-3 2.7-1.6 4.2 1 1.3 3.3.8 3.2-1.1 0-.7-.7-1.4-1.4-1.2-.6.2-.7 1-.2 1.4.3.2.6-.2.4-.5.3-.2.4-.1.5.2v.2c0 .3-.1.6-.3.8-.4.3-1 .2-1.4 0-1-.7-.6-2 .1-2.8.9-.7 2-.8 3.1-.8.8 0 1.6.1 2.3.5l.7 1.8a7.3 7.3 0 0 0-3.2 2.4c-1.4 2-2 4.4-1.6 6.8v.4a34.5 34.5 0 0 1-5.3-24.5 32 32 0 0 1 2-6.7c0 1 .3 1.8.6 2.6ZM63.2 60a30.9 30.9 0 0 1-10.7-9.7c0-.3 0-.3.2-.5.3-.4.3-.4.6-.3.6.2 1 .5 1.4.8 1.8 1.2 3.1 2.8 4.4 4.5l2.3 2.8 1.8 2.4Zm-3.2-.1 2 .7c-.3.3-.3.7-.4 1l-.2 1.1-1.5-.7h-.3l.1-1 .2-1c.1 0 0-.1 0-.1Zm-17 6.5c-1.1 0-2.2.5-2.7 1.5s-.2 2.3.8 2.8c1.2.6 2.5-1 2-2-.2-.6-.7-1-1.3-.7-.4.2-.7.7-.4 1.1.2.2.5.2.5 0 0-.4.2-.5.6-.4.1.3.1.6 0 .8-.2.5-.8.9-1.3.5-.5-.3-.6-1-.5-1.6.3-1.3 1.8-1.6 2.9-1.7l1.6.8 1.6.8c-1 .1-2 .6-2.8 1.3-.9 1-1.7 2.7-.3 3.6 1.1.7 2.5-.7 2.3-1.9-.1-1-1.8-1.3-1.9-.2 0 .3.4.4.6.2 0-.2.1-.3.3-.3.4 0 .3.7.2 1l-.3.4c-.3.3-.5.4-.8.2-1.2-.3-.4-1.8.1-2.4.9-1 2-1.5 3.3-1.6l3.6 1.8c-1.4-.2-3 .9-3.9 1.9-1 1.1-1.2 3.1.3 4 1.4.7 3.1-.7 2.9-2.2-.1-.6-.6-1.2-1.2-1.1-.7 0-1.1.6-1 1.2.1.3.6.2.6-.1 0-.8 1-.3 1 .2l-.3.7c-.3.4-.7.8-1.3.8-1-.2-1.3-1.4-1-2.2.3-.8 1-1.5 1.7-2 .8-.5 1.7-1 2.7-.7.1 0 .2 0 .2-.2.8.4 1.6.8 2.5 1l.7.4a6 6 0 0 0-2.6 2.6c-.7 1.3-1 3.5.6 4.3 1.4.7 2.8-1 2.5-2.3 0-.6-.6-1.2-1.2-1.2-.7 0-1.2.7-1 1.3 0 .3.5.2.6-.1 0-.7.7-.5.9-.1v.9c-.2.5-.7 1.1-1.3 1-1.2-.2-1-2-.8-2.8a6.4 6.4 0 0 1 3-3.3c.5.3 1 .5 1.6.6-.5.9-.8 1.8-.8 2.9 0 2.3 1 4.7 2.4 6.6A29.1 29.1 0 0 1 36.6 63l6.2 3.2Zm1 9.3-.6.9-1 .8-1.2-1.3-.5-.7c.7-.2 1.3-.7 1.6-1.4l1.7 1.7Zm7 6.3c.4-.3.8-.6 1-1l.6.2 2.1.8-.3.5-.8 1c0 .1.2.4.4.2l.8-1c.2-.1.4-.3.5-.6.9.3 1.7.5 2.6.6l-.3.7-.7.9c-.1 0 0 .1 0 .2l-1.4-.2-.1-.2h-.5a30 30 0 0 1-4.7-1.2l.8-.9Zm3.7 4.1.7 1.7c0 .3.4.2.3 0l-.4-1.8-.3-1 3.2.4v1l-.2 1-5.1 1.5c-.3-1-.6-2.1-1.1-3h-.2c1-.4 1.8-.8 2.7-1 0 .4.3.8.4 1.2Zm-8.2 4.2 1 1.1-.9.6-1.6 1c-.7-.7-1.3-1.4-1.8-2.2.7-.6 1.4-1.3 2.3-1.8l.9 1.2Zm-1.7 3c-1 .8-2 1.7-2.9 2.7l-1-1.3-.9-.9 2.8-2.6c.5.8 1.2 1.6 2 2.1Zm7.1-3.4a46 46 0 0 1 6.4-2h.1l.4-.2c.3 0 .1-.5-.2-.4l.1-.8v-1.2l4.1.2-1.5.6c-1.1.6-2.2 1.3-3.1 2.2a7.7 7.7 0 0 0-2.6 5.8 9 9 0 0 0 .6 3.1l-1.4.7c-1-.2-2.1-.6-2.8-1.5a3.3 3.3 0 0 1-.7-3.3c.4-1 1.8-2.8 2.7-1.4.3.4.4 1 .2 1.6-.3 1-1.8 1-1.5-.2.1-.4-.3-.5-.5-.2-.4.6-.1 1.5.6 1.8.8.3 1.7-.2 2-1 .7-1.4-.3-3.8-2.1-3.1-1.8.6-2.6 3-2 4.7a4.3 4.3 0 0 0 3.3 3l-3.3 1.5c-1.7 0-4-1.5-3.7-3.5.1-.8 1.1-1.9 2-1.1.4.3.5.9.2 1.2-.3.3-.8.2-1.1 0-.3 0-.6.2-.4.5.7 1 2.3.3 2.4-.8.1-1.4-1.4-2.2-2.6-1.6-1.5.7-1.5 2.6-.7 3.8.7 1 1.8 1.8 3 2l-3.6 1.5c-1-.2-2-.4-2.6-1-.7-.7-1-1.7-.6-2.5.6-1 1.7-1 2.4-.1.3.5.5 1.4-.3 1.7-.6.1-1-.6-.8-1.1 0-.3-.3-.5-.5-.2-.8 1.3 1 2.5 2 1.6 1.3-1 0-3.2-1.4-3.4-1.5-.1-2.5 1.4-2.2 2.8.3 1.5 1.7 2.4 3 2.6l-1.6.7-1.7.7h-.2c-.6 0-1.4.1-2-.3-.6-.4-.6-1 0-1.5.4-.2 1.2-.5 1.6 0v.6c-.2.2-.7-.2-1-.3-.2-.1-.4.2-.3.4.5.8 1.9.8 2-.3.2-1-1-1.5-1.8-1.3-1 .2-2 1-1.6 2 .3 1 1 1.2 1.8 1.2l-5.9 2.3c2.2-3.2 4.5-6.5 7.2-9.4a28 28 0 0 1 10.2-7.1Zm7.5 19.5 1.4-.6c-1.3 1.6-2.5 3-3.7 4.7l-4.3 5.4c-.7.7-1.4 1.5-2.3 2-.5.3-1.7.9-1.7 0 0-.6.3-1.1.5-1.6 1-1.8 2.6-3.2 4.1-4.5 2-1.7 4.2-3.4 6-5.4Zm-.7-.5c-.2 0-.3-.2-.4-.3l-.7-1 2.9-1 .4-.2c.1.4.4.9.7 1.2l-3 1.3Zm.8 10.2v-.2l.4.1.4.1.6.1 1 .1-.5 3-.1-.2H60l-1.1-.2c0-.9.1-1.9.3-2.8h.1Zm2.3 5.4A32.6 32.6 0 0 1 68 107a8 8 0 0 0 1.7 6.4 8 8 0 0 0 3 2.2L72 117c-1 .3-2.2.7-3.3.6-1.3 0-2.8-1-2.6-2.5 0-1.2 1.8-2.3 2.6-1 .4.5.4 1.3-.2 1.6-.6.3-1.2-.2-1.3-.7-.1-.4-.5-.3-.6 0 0 .8.6 1.4 1.3 1.5.8 0 1.4-.4 1.6-1 .7-1.7-1.2-3.1-2.7-2.5-2 .8-1.8 3.4-.3 4.6 1.4 1.1 3.4.9 5 .2l-1.6 3-.1.4c-.7.4-1.6.5-2.3.6-1 0-1.9 0-2.5-.7-.6-.6-.6-2 .5-2 .5 0 1 .2 1.3.5.2.2.4.4.4.7 0 .4-.6.6-.8.1 0-.2-.5-.3-.6 0 0 .6.5 1.2 1.1 1 .6 0 1-.6 1-1.1 0-1.5-2.2-2.5-3.3-1.6-1.4 1-.6 3 .7 3.5.8.4 1.7.4 2.5.2.5 0 1-.2 1.5-.4l-1.4 3c-1.1.8-3 2.1-4.1.9-.4-.5-.5-1.3 0-1.6.3-.4 1-.2 1.3 0 .2.2.5.6.1.8h-.4c-.2 0-.3.2-.3.3.4 1.1 2 0 1.5-1-.6-1.2-2.4-1.4-3-.3-.7 1 0 2.4 1 2.8 1.3.4 2.4 0 3.4-.8l-.5 1-1.1 2.7h-.1c-.7.8-2.2 1.3-2.6 0-.2-.4 0-1 .5-1.1h.5l.3.3c0 .4 0 .5-.2.4-.2 0-.3.1-.3.3.1.4.5.5.9.3s.4-.8.2-1.2c-.3-.8-1.6-1-2.2-.3-.7.7-.5 2 .4 2.5a2 2 0 0 0 2.2-.2l-2.2 5.3-.6-2.2-.6-3a54 54 0 0 1-.2-6.6ZM66 131c0 1 .6 2 1.4 2.3.5.1 1 .2 1.5 0l-5.2 3.1L66 131Zm15.5-8.1-.6-.3.9-1.7.2-.4.9.5.5.2a15 15 0 0 1-.8 2.2c-.3-.3-.7-.4-1.1-.5Zm1.8-9.6h-.2A5 5 0 0 1 78 110c.5.8 1.4 1.4 2.4 1.5 1.7.2 3.4-.8 4.4-2 0-.3.2-.4.3-.6a7.8 7.8 0 0 1-1.8 4.4Zm1.7 1 2.4.3v2c-.6 0-1 .2-1.5.4l-.8.2v-3Zm2.4 2.7c0 1 .3 2 .6 3-.4.1-.8.4-1.2.7l-1 .7a28.5 28.5 0 0 1-.7-3.8c.8-.1 1.5-.2 2.3-.6Zm-.4 4.2 1.1-.7 1.4 2.9-.9.8-1.2 1.3-1.5-3.6 1.1-.7Zm1.9 3.5.9-.8c.5 1 1.2 1.8 1.9 2.7-.5.2-.8.7-1.2 1l-1 1.2-2-3 1.4-1.1Zm2 3.3 1.1-1 2 2.1-1 1-1.2 1.2c-.7-.7-1.5-1.5-2-2.3l1-1Zm-2.2-8c-.7-2-1-4.3-.8-6.5a12 12 0 0 0 7 3c.9 0 1.7 0 2.6-.3l.4 1.6c-.3 2.3-3 3.7-5 3-1.3-.3-2-1.8-1-2.8.5-.5 1.3-.6 1.9-.3.8.4.5 1.6-.4 1.2-.3-.1-.5.4-.3.5.5.5 1.3.2 1.7-.3.5-.8 0-1.7-.7-2-1.6-1-3.6.6-3.4 2.4.4 2 2.7 2.4 4.4 2a4.2 4.2 0 0 0 3-2.6 23 23 0 0 0 1.2 3.4c-.2 1.8-1.4 3.8-3.5 3.7-.8-.1-1.7-.8-1.8-1.6-.2-.8.4-1.2 1.1-1.3.3-.1.7 0 1 .2.2.3.1.8-.3.8s-.3.7 0 .7c.7 0 1.2-.5 1.2-1.1 0-.7-.6-1.2-1.3-1.4-.7 0-1.7.2-2.2.7-.5.6-.4 1.5-.1 2 .7 1.5 2.5 2 4 1.3 1.3-.5 2-1.8 2.1-3.1l1.4 3.5v.1c0 .6-.6 1.3-1 1.6-.4.4-1 .7-1.5.9-.7 0-1.6-.1-1.4-1 .1-.3.3-.6.6-.7.5-.1.8.3.5.7-.1.2 0 .4.3.4.5 0 .7-.5.6-1 0-.5-.6-.8-1-.8-1.2 0-2.1 1.3-1.5 2.3.6 1.2 2.4.8 3.3.2.3-.2 1.2-1 1.5-1.8l.3.8.6 1.5-.1.1c0 1 0 2.2-1.2 2.5-.4 0-1 0-1.2-.5a.7.7 0 0 1-.1-.6c.2-.4.5-.2.8-.3-.3.2-.1.6.2.5.4 0 .4-.4.3-.7-.2-.4-.6-.5-1-.5-.9.1-1.3 1.1-.9 2 .5.8 1.7 1 2.5.6.9-.5 1-1.4 1-2.2l2.4 6a43.2 43.2 0 0 1-9.3-6.9c-2.9-2.8-5.6-6-6.9-9.9Zm14.8 11.1a2 2 0 0 0 2.9-.8c.3-.7 0-1.6-.9-1.7-.6-.2-1.4.6-1 1.3.2.2.6.1.6-.2 0-.2.5-.3.7-.2.2.1 0 .6 0 .8a2 2 0 0 1-1 .6c-.8.2-1.4-.4-1.7-1 0-.2-.2-.2-.2-.2l-.7-1.5-.5-1.3c1.1.7 2.4 1.2 3.7.8.9-.3 2.1-1.4 1.6-2.5-.4-.9-1.9-1.3-2.6-.6-.6.6-.3 2 .7 1.8.3 0 .2-.4 0-.5-.4-.2-.4-.7 0-.9.3-.1.7 0 1 .2.8.6 0 1.5-.6 1.8-1.3.6-2.7 0-4-.7l-1.3-3.5c.8.5 1.8.7 2.7.9.8 0 1.6.1 2.4-.2 1.3-.5 2.3-1.9 1.6-3.2-.5-1.1-2.1-1.4-2.9-.3-.7 1 .6 2.7 1.6 1.6.2-.1 0-.5-.2-.4-.8.3-1.1-.6-.6-1a1 1 0 0 1 1.3 0c.7.7.3 1.8-.4 2.4-1.7 1.3-3.9 0-5.7-.2a31 31 0 0 1-1.3-4c1.6.8 3.5 1.3 5.3.6 1.5-.7 2.5-2.3 2-4-.6-1.4-2.5-2.2-3.5-.7-.4.6-.4 1.4.1 1.9.5.3 1.2.2 1.4-.3 0-.3-.2-.5-.4-.3-.4.2-.7 0-.7-.5 0-.4.5-.7.8-.8.6-.2 1 .3 1.4.8.4.8.2 2-.4 2.6-1.6 1.7-4 1-5.9.2l-.3.1-.4-1.8c1.1-.4 2.2-1 3-2 1.3-1.6 2-3.7 2.2-5.7a12 12 0 0 1 5.8 8.6c.4 2.2.1 4.5-.2 6.7-.3 2.2-.7 4.4-1.2 6.5l-2 6.7-2.2-5.9Zm5.8-16.5c-.3-1-.8-2-1.4-2.9l-.2-.2 1-.6.5-.4c1 .8 1.7 1.7 2.2 2.8-.4 0-.8.4-1.2.5l-1 .8Zm20-18.7.4-.4.6-.5 1.9 2.6c-.3.1-.4.3-.6.5l-.3.5c-.7-1-1.3-2-2-2.7Zm0-.7-.3.3c-.6-.8-1.2-1.4-1.9-2 .2 0 .4-.2.6-.4l.5-.4a18 18 0 0 1 1.7 2c-.2 0-.5.3-.7.5Zm-2-2.5-.5.6c-.8-.8-1.8-1.5-2.8-2.2l.5-.5c.1-.2.4-.4.4-.7l3 2.4-.5.4Zm-3.9-4.6-.7-.4-1.3-.6a37.4 37.4 0 0 1 11.6-1c1.2 0 3-.2 3.8.8 1.3 1.5-1.5 2-2.5 2.2h-3.8c-.6-.2-4.9-.7-7-1Zm12 1.4c.8-.2 1.8-.4 2.2-1.3.3-.7 0-1.6-.7-2-.8-.7-2-.7-3.1-.8a31 31 0 0 0-10.2.5l1-.4c5.6-.7 11.2-.7 16.6.5 1.3.3 2.8.8 3.4 2.1.6 1.4-.3 2.7-1.6 3.1-1.4.5-3 .2-4.3 0l-4.5-.8-4.9-.8-1.8-.3c2.6.3 5.3.7 7.9.2Zm-1-13.3-.7-.7c-.2-.2-.6-.6-1-.5 0 .4.4.7.7 1l.7.7-2 2.3-.7-.7-.5-.5-.4-.3c-.1-.1-.3 0-.3.1 0 .2.1.2.2.3l.6.6.5.6.3.3-1.9 1.8c-.2-.4-.6-.6-1-1l-.9-.7c2.4-2.1 4.5-4.5 6.5-6.8l.2-.3.2.1.4.4.4.4c.2 0 .3.3.4.3-.4 1-1 1.8-1.6 2.6Zm2.1-3c-.1-.2-.4-.3-.6-.4l-.6-.5-.3-.2 1.6-2.1h.2l.7.2.7.2c-.6 1-1 1.9-1.7 2.8Zm2-3.2c-.3-.2-.6-.2-1-.3l-.7-.1c.4-.6.7-1.2.8-1.9l2.8-1.2-2 3.5Zm-2.2-5.8c1.3.4 2.6 1 3.8 1.6l-2.4 1.1s0-.2-.2-.3l-2-.6.4-.9c.2-.2.3-.5.4-.9Zm-2.7-.7 2.1.6-.3.9c0 .3-.2.6-.3.8l-3-.8c.3-.6.6-1.1.7-1.7l.8.2Zm-1.4-.3-.6 1.7-3.2-.7v-.6c.2-.3.3-.6.3-1v-.2l3.5.8ZM129.6 50c.7 1.8.8 4 .6 5.9 0 1-.2 2-.5 2.9a4 4 0 0 1-.7 1.3l-1 1.2v.2h-.5c-3.6-.6-7.3-.7-10.8 0a34.1 34.1 0 0 0 9.8-9 8.5 8.5 0 0 0 1.7-4v-.6c.6.6 1 1.3 1.4 2Zm-2-1.4c-.2 1.4-1 2.9-1.9 4a40 40 0 0 1-11 9.5 64 64 0 0 0 6.8-7c.6-.6 1.3-1.4 1.2-2.3 0-.8-.8-1.1-1.5-1-1 0-1.7 1-2.4 1.5a44.4 44.4 0 0 0-6.7 8l.5-1.5a48 48 0 0 1 7.3-9.4c1-1 2.2-2 3.6-2.7 1.1-.5 4.2-1.2 4 .9Zm-12.9-.8c3.6-1.5 7.2-3 11-1.5l.5.2h-.5c-3 .1-5.7 2.9-7.7 5a35.4 35.4 0 0 0-4 5.2h-.1l-.3-.1c.7-2.9 1.1-5.9 1.1-8.8Zm-.7 1.5-.8.2a3 3 0 0 1-1.1 0l-.3-3.3h2.2v3.1Zm0-3.6c-.8 0-1.5.2-2.2.3l-.1-1.2-.3-2h1.3s.1.2.2.1l.7-.1h.1l.3 3Zm-.3-3.4h-2.4a66.8 66.8 0 0 0-.3-2.8c.5 0 1-.1 1.4-.3l.7-.2.6 3.3Zm-2.3-7.8.1-.1c.6 1.3 1 2.7 1.4 4.1l-.8.4-1.2.4h-.1l-.6-2.4 1.2-2.4Zm-5.6 1.5c0 .6.3 1.3.7 1.6.1.1.3 0 .3-.2l-.5-1-.1-.6 1.7-.5c0 .5.1 1.1.5 1.5.1.2.4.1.4 0l-.5-1.6c.8-.3 1.7-.4 2.5-.6l-1.2 2c-2 .6-3.8 1.4-5.6 2.4l-.5-.6a3 3 0 0 1-.3-.9l-.2-.1 2.8-1.4Zm-3.3 1.6.2-.1v.1c.1.6.3 1.3.8 1.7l-2.1 1.3-.7-.8-.6-.7 2.4-1.5Zm-2.6 1.7.6.8.6.8-1.8 1.3-.6-.5-.7-1 1.9-1.4Zm-1.6 2.6.6.6-2 1.9c-.3-.4-.6-.6-1-.8l-.7-.6.8-.7 1.7-1.4.6 1Zm-2.7-8.6c1.1 2.2 1.7 4.6 1.7 7l-1 .8a31.7 31.7 0 0 0-6.7 7.6 65 65 0 0 0 1.7-14.1c0-1.7.3-3.6-.2-5.2l-.7-1.2c2.2 1 4 3 5.2 5.1ZM89.3 28c.8.4 1.2 1.2 1.3 2 .4 1.6.2 3.4.1 5 0 1.7-.2 3.3-.3 4.9-.4 3.8-1.1 7.5-2 11.2v.1l-.1.1a152.3 152.3 0 0 0 .8-13.1c0-.8 0-2.3-.9-2.6-.9-.3-1.5.7-1.8 1.4-.4 1-.5 2.2-.4 3.3l.1 4.4.3 7.2v-.3c-.5-3.2-1-6.4-1.2-9.6-.2-3.1-.4-6.4.2-9.4.3-1.5.8-3 1.9-4.1.5-.5 1.3-.8 2-.5ZM81 32.7c1-1.8 2.5-3.5 4.3-4.5l2.1-.6c-.7.5-1.3 1.3-1.7 2a21 21 0 0 0-1.1 10 60 60 0 0 0 1 9.4 33.9 33.9 0 0 0-6.3-10.3c.4-2 .7-4 1.7-6Zm-2 6.8 1.6 2-.6.3-.6.4a55 55 0 0 0-1.5-1.9l.3-.2.5-.5h.3Zm-.4-.4-.6.5-.3.4a27 27 0 0 0-1.6-1.6l.4-.5.4-.6 1.7 1.8Zm-3.9-3.6 1.7 1.5-.4.6-.4.5c-.5-.5-1-1-1.7-1.4.2 0 .3 0 .3-.2l.3-.6.2-.4ZM72.5 34l1.9 1.3a1 1 0 0 0-.4.4c-.2.3-.2.5-.2.8v.1l-.3-.2-1.5-1c0-.3 0-.6.2-1l.3-.4Zm-.5-.3-.3.6-.1.9-1.3-.7-.7-.3c.1-.6.2-1.1.5-1.6l2 1.1Zm-5.7-3 3.3 1.6c-.2.4-.4 1-.4 1.6a5 5 0 0 0-2-.5l-.6-1.6-.4-1v-.2Zm-.4.6.2.6.5 1.5-.9 2.3c0-.2-.2-.3-.3-.4l-.3-.3-.5-.4s-.3 0-.2.2l.3.4.3.4c.2.2.3.5.6.5l-.7 2.3-1.7-.7c.7-2.1 1.6-4.3 2.7-6.4Zm-3.2 8.4c0-.5.2-1 .4-1.5l.8.4c.3 0 .6.2.8.3l-.5 2.5c-.3-.2-.6-.2-.9-.2h-1l.4-1.5Zm-.4 1.8 1 .2h.9l-.3 3-.8-.1-1.3-.3.5-2.8Zm-.5 3.1 1.2.4 1 .3v2.6h-2.3l.1-3.3ZM54 42.7c2.5.6 4.5 1.9 6.7 3l.4-.1v1.7c0 3 .4 5.9 1.3 8.7l.3.8a70 70 0 0 0-6.9-9c-1.1-1.3-2.2-2.6-3.6-3.6-.9-.7-2-1.2-3.2-1 1.6-.7 3.4-.8 5-.5Zm-5.7 1.4c1.5-.7 3 .2 4.1 1.2a52.6 52.6 0 0 1 10 12.5l-.4-.6-2.5-3.1c-1.5-1.8-3.2-4-5.3-5-.7-.3-1.8-.6-2.2.2-.5 1 .2 1.9.8 2.5a28.9 28.9 0 0 0 6.6 6.4c-2.1-1-4.3-2-6.2-3.3-2.3-1.7-4.4-4-5.4-6.7-.5-1.4-1-3.4.5-4.1Zm-2 9.1c-.7-1.8-1.1-4-.8-6 .2-1 .7-2 1.4-2.7-.3.6-.3 1.2-.3 1.9.4 3 2.4 5.8 4.6 7.8a26 26 0 0 0 8.6 4.8c-1.9-.4-3.7-.8-5.6-1h-4.6v-.1a17 17 0 0 1-3.2-4.7Zm4.5 5.4.1 1.1.2 1.2-2.1.1-.2-1.2c0-.4 0-.8-.2-1.2h2.2Zm-2.7 0 .2 1.3.2 1.2-2 .2V61l-.3-1.3-.2-1 2.1-.1Zm-2.6.3.3 1c0 .5.2.9.4 1.3l-1.1.2-1 .2-.5-1.3-.3-1.2 2.2-.2Zm-2.6.3.3 1.3.5 1.1c-1 0-1.8.2-2.7.3l-.7-1.1-.5-1.1 3.1-.5Zm-3.4.5v.1c-.1.5.2 1 .4 1.3l.6.9-1.8.2-1-1-.5-1 2.3-.5Zm-2.7.5c0 .5.4 1 .6 1.3l.8.8-1.2.2-3.5-1.7 3.3-.6Zm-2.1 5.6h1l1.2-.1c.1 0 0-.3 0-.4h-1.2l-1.2.1a44 44 0 0 1-1.8-4.5 84 84 0 0 0 3.5 2v.2c.5 1.8 1.3 3.6 2.2 5.2l-.6.4-.8.3h-.2l-.4.2a42 42 0 0 1-1.7-3.4Zm3.6 6.3-1.6-2.5.4-.2c.5 0 1.1-.3 1.5-.7l1.6 2.5c-.5.5-1 .8-1.7.8l-.2.1Zm.2.2c.7 0 1.5-.2 1.9-.8a20 20 0 0 0 1.7 2c-.4.7-1 1.3-1.6 1.5a20 20 0 0 1-2-2.7Zm-9.2 9.5c.9-1.7 2.4-3 4.2-3.8a17 17 0 0 1 7.4-1.1h.2a20.5 20.5 0 0 0 9.2 6.7c-3-.4-5.9-.8-8.8-1.4L35.7 81a9.8 9.8 0 0 0-4.8 0 3 3 0 0 0-1.8 1v-.2Zm3-.4c1.6-.1 3.2.3 4.8.6 1.7.4 3.3.8 5 1 3.3.7 6.6 1.2 10 1.6h-.3l-6.5-1-3.4-.5c-1 0-2-.4-3-.3-1.3 0-2.2 1.6-.8 2.2.8.4 1.8.3 2.6.3H44l3.8-.2h.7a94.7 94.7 0 0 1-15.1.5c-1.4 0-3.9 0-4.3-1.6-.5-1.7 1.9-2.4 3-2.6Zm15.6 3.2h-3.2l-3.4.2h-1.8c-.4-.1-1.4 0-1.5-.6-.4-1.4 3-.7 3.5-.6l3.4.5 3 .5Zm-14.3 6.8a9.1 9.1 0 0 1-4.2-4 7 7 0 0 1-.8-2.8c.4.7 1.2 1.2 2 1.5.9.2 1.7.2 2.6.2l3 .1a81.4 81.4 0 0 0 12.1-.6l1.5-.1-1.6.8a32.6 32.6 0 0 0-8.7 6.7h-.1c-2-.5-4-.8-5.8-1.8Zm6 2.7.9.8 1.2 1.2-1.8 2.1h-.4V98l-1.1-.6-1-.5c.6-1 1.3-1.9 2.2-2.8Zm-2.5 3 1 .7 1 .5v.1h.5l-1.9 2.4-1.1-.5-1.4-.5 2-2.6Zm-2 3 1.3.6 1.1.5-1.3 2-.1-.2s-.2-.1-.2 0l-.2-.1-.2-.1-.6-.2-.5-.1c0-.2-.3-.2-.5-.3l1.2-2Zm-1.4 2.4h.2v.3c.3.1.8 0 1.1.3.3.1.5.4.8.4l-1.4 2-1-.1-1-.2c-.3 0-.4.2-.2.3a5 5 0 0 0 2 .5l-.5.8-2.8 1a44 44 0 0 1 2.7-5.3Zm-1 6.4-1.8-.7 2.5-.8c0 .2.3.3.4.1l1.9.5-.4.8-.4.6-2.2-.5Zm4.8 1.1-2.3-.5c.4-.3.8-.8.9-1.3l1.9.4c-.2.2-.3.5-.3.8l-.2.6Zm3.2-.3-.2.8H40l-2.2-.4.1-.6.4-.8 2.3.3-.1.7Zm3.1 1.2-3-.3.3-.8.1-.7 2.8.2-.2 1.6Zm.4 0c.2-.5.3-1 .3-1.6h2.9v.6l.1 1h.1-3.4Zm-.7 14.7a8 8 0 0 1-.6-1.4c-.6-2.2-.4-4.7.2-6.9.3-1.3.8-2.6 1.6-3.6s1.7-1.5 2.6-2h.5c3 0 6.2-.6 9-1.5l-3.2 2c-1.7 1-3.3 2-4.8 3.1-2.4 2-5 4.8-5.5 8 0 .8 0 1.6.2 2.3Zm.5-2c.4-3 2.9-5.8 5.2-7.7 2.3-1.9 5-3.2 7.5-4.9l-.5.5c-1.1 1-2.2 2-3.3 2.8-1.7 1.5-3.5 3-4.4 5.2-.3.6-.6 1.6 0 2.2.8.6 1.9 0 2.5-.5 2.1-1.3 3.6-3.5 5.1-5.4l4.9-6.3a61 61 0 0 1-10.7 14.8c-1.1 1.1-2.9 3-4.6 2.6-1.5-.3-1.8-2-1.7-3.3Zm14.4.2c-2.8 3.2-6.8 6-11.3 4.6-.7-.2-1.4-.6-2-1 1 .4 2.2 0 3.1-.5a44 44 0 0 0 7.5-7.7c2-2.6 3.5-5.3 5.1-8a30 30 0 0 0-2.4 12.6Zm.8 1.8v-3.4l1 .1c.3 0 .8.2 1.1 0l-.1 3.2h-1.8c-.2 0-.1.3 0 .3l1 .1h.8v2.7l-.9.2h-.8c-.1-1-.3-2.1-.3-3.2Zm.9 6.7-.6-3.1c.6.2 1.5.2 1.8-.2v1l.4 2-.7.2h-1Zm1.9 6.6-1-3c.4-.2 1-.4 1.2-.8.2-.1 0-.3-.2-.3l-.6.5-.5.2-.7-2.9h.8l.8-.1.2 1c.3 1 .5 2.2 1 3.2l-1 2.2Zm.6 0 1-1.7 1.7-.9.4 1c.1.1.2.5.5.5-1.2.5-2.4 1-3.6 1.1Zm6.3-2.7-2.5 1.5c0-.3-.2-.5-.4-.7l-.4-.8 3.1-2 .2.7c.2.3.3.6.6.7.2 0 .3 0 .3-.2 0-.3-.3-.5-.4-.7-.2-.2-.2-.4-.3-.7l2-1.2c0 .2.2.4.4.6.2.2.5.6.8.6l-3.4 2.2Zm3.7-2.3-.7-.7-.6-.6 2.7-2 .6.6c.3.2.4.6.7.7l-2.7 2Zm3-2.3-.6-.7-.7-.6h.1l2.2-2 1 1 .4.3-2.3 2Zm5.7 12a8 8 0 0 1-3.6-4.1c-1-2.4-1.1-5-1.3-7.5a28 28 0 0 0 6-6.4 47.8 47.8 0 0 0-1.9 13.2c0 1.5 0 3 .8 4.3l.5.8-.5-.2Zm4.2.2a2 2 0 0 1-1.2.5c-.8 0-1.8-.6-2.3-1.3-.8-1.3-.8-3-.7-4.5a61.9 61.9 0 0 1 1.1-10v1.4c-.2 1-.2 2.2-.2 3.3 0 1 0 2 .3 2.8.2.6.5 1.4 1.2 1.6.5.2 1-.2 1.3-.7.3-.8.2-1.8.3-2.5a1074.4 1074.4 0 0 1 .4-4.9l.7 10.8c0 1.2 0 2.7-1 3.5Zm6.8-10.9c-.3 4.1-1.4 8.6-5.4 10.7l-.6.3.4-.7c.5-1.4.3-3 .2-4.5a249.5 249.5 0 0 0-1.3-16.1 23.9 23.9 0 0 0 6.8 10l-.1.3Zm1.4-.2-1.4-1.2 1.3-1.2 1-1c.6.7 1.2 1.3 1.9 1.8h-.1l-.4.4-.8.9c-.3.3-.6.5-.7.9l-.8-.6Zm1.1 1 .8-1c.3-.3.8-.6 1-1v-.1l.2-.2 2.5 2.2-1 1c-.3.2-.6.5-.6.8v.2l-2.9-2Zm5.5 3.4a40 40 0 0 1-2.4-1.4h.2l.6-.6 1.2-1.2 1.7 1.3-.3.9-.6 1.2-.4-.2Zm3 1.5-2.3-1.1.8-1.2.3-.7c.6.4 1.2.8 1.8 1l-.1.2-.5 1.8Zm.6.3h-.2l.2-.7.3-1.2c.5.1 1 .4 1.4.6l1.1 2.7-2.8-1.4Zm4.4-1.3-.6 1.7-.3 1.4-1.3-3.3.8-1.8 1.7 1-.3 1Zm1.1-3.7-.6 2.2-1-.6c-.3 0-.5-.2-.8-.3l1-2.9.6.3c.3 0 .5.3.7.2.2 0 .4-.2.2-.3-.2-.2-.5-.2-.7-.3l-.8-.2c.2-.9.5-1.7.6-2.6l1.8.4-1 4Zm1.8-6.7-.6 2.1-1-.2-.7-.2.6-3.4c.7 0 1.4.2 2 .1l-.3 1.6Zm.4-2.1h-2.1l.2-1.2.2-1.4h2.3l-.6 2.6Zm13.1 4.8a8.1 8.1 0 0 1-6.3.5c-2.4-.8-4.3-2.3-6.5-3.7.8-3.3 1.6-6.8 1.2-10.1a32.4 32.4 0 0 0 6 9.6c1 1 2.3 2 3.7 2.7a4 4 0 0 0 3.2 0c-.4.4-.8.8-1.3 1Zm2-2.4c-.8 1.3-2.5 1.2-3.7.7-1.3-.6-2.5-1.6-3.5-2.7a23.2 23.2 0 0 1-4.3-6.2c1.4 2 3 3.6 5.2 4.5.6.2 1.7.7 2.3.3.6-.5.4-1.2.2-1.8-1-1.7-2.5-3.2-4-4.6l-1.6-1.5 1.8 1.3c2.3 1.7 5 3.3 6.6 5.7.8 1.1 2 3 1 4.3Zm1.3-2.3c0 .4-.2.7-.3 1 0-.3 0-.6-.2-1-.8-2.8-3.4-4.9-5.7-6.6l-10-7.2c.4.3 1 .4 1.4.6a34.1 34.1 0 0 0 11.3 1.6c3 3 4.5 7.5 3.5 11.6Zm-4.9-12.5h-.1V111h3.6v1.4c0 .2.3.2.4 0v-1l.1-.5 1.7-.2 1.5-.1.1.8.2.9c-2.5.3-5 .5-7.5.4Zm8-.4-.2-1c0-.2 0-.5-.2-.7 1-.2 2-.3 2.9-.6 0 .4.3.6.4 1l.3.8-3.3.5Zm8-1.6-4.3 1-.1-.6c-.1-.4-.3-1-.6-1.2l1.8-.7h.1l.5.2 1.5.5 1.2.4c-.2.2-.2.3-.1.4Zm0-1h-.2l-1.5-.6-1.5-.7-.5-1.4h1l.2.2.6-.1c.2 0 .4 0 .6-.2l1.3 2.9Zm-1.5-3h-.3l-.1-.2h-1.9l-1-2.2 1-.2 1-.1 1.3 2.6Zm-1.7-3.2-.5.1-1.2.3-1-2.2c.1 0 .3 0 .5-.2.2 0 .5-.2.6-.4.1-.1 0-.3-.2-.3s-.4.2-.6.4l-.5.2-1.4-2.6.5-.4.5-.6c1.2 1.8 2.2 3.8 3.3 5.7Zm9.2-11.8c-.8 2.2-2.8 3.5-4.8 4.3-2.5 1-5 1-7.6.6-1.8-2.7-4-5.2-6.8-7.1l3.2.6 5 .8 5.1.9c1.5.2 3 .5 4.5-.1.7-.3 1.4-.8 1.7-1.5l-.3 1.5Z"/>
</svg>