<svg xmlns="http://www.w3.org/2000/svg" viewBox="0 0 500 500">
  <g fill="#f5f5f5">
    <path d="m405.66 90.57-2.05-3.37c-17.28-28.49-48.53-45.66-81.48-43.57a86.69 86.69 0 0 0-12.61 1.73c-30 6.41-56 29.06-66.83 58.08-6.35 17.06-8.13 36.7-20.18 50.25-15.7 17.62-42.34 18.18-65.76 17.45s-50.09-.11-65.7 17.59c-9.78 11.08-12.89 26.84-12.1 41.68 2.08 39.29 29.46 74.43 64.29 91.89s75.82 19 113.92 11.35c53.39-10.76 104.16-40.32 134.68-86s38.24-107.81 13.82-157.08Z"/>
    <circle cx="118.48" cy="98.75" r="38.04"/>
  </g>
  <path fill="#263238" d="M463.4 465.69c0 .15-98.24.26-219.39.26s-219.41-.11-219.41-.26 98.22-.26 219.41-.26 219.39.12 219.39.26Z"/>
  <path fill="#fafafa" d="M297.38 261h-77.74l-14.85 22-14.49-22h-76.36a8.84 8.84 0 0 1-8.84-8.84V100.75a8.84 8.84 0 0 1 8.84-8.85h183.44a8.84 8.84 0 0 1 8.84 8.85V252.2a8.84 8.84 0 0 1-8.84 8.8Z"/>
  <path fill="#263238" d="M297.38 261h.48a8.88 8.88 0 0 0 1.43-.21 8.78 8.78 0 0 0 6.61-6.54 10.19 10.19 0 0 0 .21-1.15c0-.4.05-.81 0-1.23v-15.22c0-19-.05-46.38-.08-80.25v-55.42a8.66 8.66 0 0 0-6-8.44 10.31 10.31 0 0 0-3.73-.42H113.05a9.27 9.27 0 0 0-1.15.21 8.51 8.51 0 0 0-6.29 6.31 17.89 17.89 0 0 0-.25 4.29v147.18a20.33 20.33 0 0 0 .16 3.68 8.61 8.61 0 0 0 4 5.71 8.36 8.36 0 0 0 3.35 1.15c1.17.12 2.42.05 3.62.07h73.92l.06.09 14.47 22h-.3l14.87-22 .05-.07h.08L277 261h20.43H277l-57.31.07.13-.07q-6.9 10.28-14.83 22.05l-.15.23-.15-.23-14.5-22 .16.09h-73.83c-1.22 0-2.41.05-3.67-.07A9.1 9.1 0 0 1 105 254a20 20 0 0 1-.18-3.77v-149.4a9.07 9.07 0 0 1 6.94-8.92 10.06 10.06 0 0 1 1.22-.22h183.33a10.85 10.85 0 0 1 3.87.45 9.18 9.18 0 0 1 3.34 2 9 9 0 0 1 2.21 3.14 9.51 9.51 0 0 1 .71 3.75v55.42c0 33.87-.06 61.29-.08 80.25v15.22c0 .42 0 .84-.05 1.24a8.65 8.65 0 0 1-.21 1.17 8.86 8.86 0 0 1-6.73 6.57 8.15 8.15 0 0 1-1.43.17Z"/>
  <path fill="#263238" d="M183.24 185c0 2-1.47 3.18-3.83 3.18h-1.77v2.43h-2v-8.81h3.81c2.32.04 3.79 1.26 3.79 3.2Zm-2.07 0c0-1-.62-1.54-1.87-1.54h-1.66v3.06h1.66c1.25.04 1.87-.52 1.87-1.52Zm9.3 1.79v3.86h-1.84v-.84a2.23 2.23 0 0 1-2.06.94c-1.58 0-2.53-.88-2.53-2.05s.85-2 2.91-2h1.56c0-.84-.5-1.33-1.56-1.33a3.25 3.25 0 0 0-1.95.63l-.71-1.37a5.22 5.22 0 0 1 2.92-.82c2.07-.03 3.26.93 3.26 2.98Zm-2 1.72v-.69h-1.35c-.92 0-1.21.34-1.21.79s.42.82 1.11.82a1.45 1.45 0 0 0 1.49-.92Zm3.12 1.49.65-1.41a4.67 4.67 0 0 0 2.36.65c.9 0 1.24-.23 1.24-.61 0-1.11-4.09 0-4.09-2.68 0-1.28 1.16-2.19 3.14-2.19a5.64 5.64 0 0 1 2.6.59l-.65 1.4a3.88 3.88 0 0 0-2-.5c-.88 0-1.26.27-1.26.62 0 1.16 4.09 0 4.09 2.71 0 1.26-1.17 2.15-3.2 2.15a5.88 5.88 0 0 1-2.88-.73Zm6.68 0 .65-1.41a4.67 4.67 0 0 0 2.35.65c.91 0 1.25-.23 1.25-.61 0-1.11-4.09 0-4.09-2.68 0-1.28 1.16-2.19 3.13-2.19a5.65 5.65 0 0 1 2.61.59l-.66 1.4a3.83 3.83 0 0 0-1.95-.5c-.88 0-1.25.27-1.25.62 0 1.16 4.08 0 4.08 2.71 0 1.26-1.17 2.15-3.19 2.15a5.85 5.85 0 0 1-2.93-.73Zm18.07-6.12-2.45 6.77H212l-1.52-4.2-1.57 4.2H207l-2.44-6.77h1.85l1.6 4.58 1.66-4.58h1.66l1.61 4.58 1.65-4.58Zm.23 3.39a3.72 3.72 0 1 1 3.72 3.48 3.48 3.48 0 0 1-3.72-3.48Zm5.45 0a1.74 1.74 0 1 0-1.73 1.87 1.72 1.72 0 0 0 1.71-1.87Zm7.49-3.49v1.81h-.44a1.66 1.66 0 0 0-1.8 1.88v3.2h-2v-6.77h1.88v.89a2.72 2.72 0 0 1 2.36-1.01Zm8-2.46v9.33h-1.87v-.78a2.61 2.61 0 0 1-2.11.88 3.49 3.49 0 0 1 0-7 2.6 2.6 0 0 1 2 .82v-3.28Zm-1.92 6a1.74 1.74 0 1 0-1.73 1.87 1.72 1.72 0 0 0 1.73-1.92Z"/>
  <rect width="23.7" height="32.79" x="138.13" y="205.84" fill="#ebebeb" rx="5.48"/>
  <rect width="23.06" height="32.79" x="194.7" y="205.84" fill="#ebebeb" rx="5.48"/>
  <rect width="23.06" height="32.79" x="166.98" y="205.84" fill="#ebebeb" rx="5.48"/>
  <rect width="23.71" height="32.79" x="222.29" y="205.84" fill="#ebebeb" rx="5.48"/>
  <rect width="23.71" height="32.79" x="249.48" y="205.84" fill="#ebebeb" rx="5.48"/>
  <path fill="#ff725e" d="m153 221.37 2.53 1.37-1.14 1.91-2.55-1.52v2.82h-2.18v-2.84l-2.56 1.54-1.12-1.91 2.54-1.37-2.54-1.4 1.12-1.91 2.56 1.54v-2.84h2.18v2.84l2.55-1.54 1.14 1.91Zm27.66-.15 2.54 1.37-1.14 1.91-2.56-1.5.05 2.82h-2.19v-2.84l-2.56 1.54-1.11-1.91 2.53-1.37-2.53-1.4 1.11-1.91 2.56 1.54v-2.84h2.19l-.05 2.84 2.56-1.54 1.14 1.91Zm28.34 0 2.54 1.37-1.14 1.91-2.61-1.5.05 2.82h-2.19v-2.84l-2.56 1.54-1.09-1.93 2.53-1.37-2.53-1.4 1.11-1.91 2.56 1.54v-2.84h2.19l-.05 2.84 2.56-1.54 1.14 1.91Zm27.36 0 2.53 1.37-1.14 1.91-2.56-1.5.05 2.82h-2.19v-2.84l-2.56 1.54-1.12-1.91 2.54-1.37-2.54-1.4 1.12-1.91 2.56 1.54v-2.84h2.19l-.05 2.84 2.56-1.54 1.14 1.91Z"/>
  <path fill="#263238" d="M156.11 238.84h-12.26a5.73 5.73 0 0 1-5.72-5.72v-21.76a5.73 5.73 0 0 1 5.72-5.72h12.26a5.72 5.72 0 0 1 5.72 5.72v21.76a5.73 5.73 0 0 1-5.72 5.72ZM143.85 206a5.32 5.32 0 0 0-5.31 5.32v21.76a5.31 5.31 0 0 0 5.31 5.31h12.26a5.32 5.32 0 0 0 5.32-5.31v-21.72a5.33 5.33 0 0 0-5.32-5.32Zm40.74 32.84h-12.27a5.73 5.73 0 0 1-5.72-5.72v-21.76a5.73 5.73 0 0 1 5.72-5.72h12.27a5.72 5.72 0 0 1 5.71 5.72v21.76a5.72 5.72 0 0 1-5.71 5.72ZM172.32 206a5.32 5.32 0 0 0-5.31 5.32v21.76a5.31 5.31 0 0 0 5.31 5.31h12.27a5.31 5.31 0 0 0 5.31-5.31v-21.72a5.32 5.32 0 0 0-5.31-5.32Zm39.96 32.84H200a5.73 5.73 0 0 1-5.72-5.72v-21.76a5.73 5.73 0 0 1 5.72-5.72h12.27a5.72 5.72 0 0 1 5.71 5.72v21.76a5.72 5.72 0 0 1-5.7 5.72ZM200 206a5.32 5.32 0 0 0-5.31 5.32v21.76a5.31 5.31 0 0 0 5.31 5.31h12.27a5.31 5.31 0 0 0 5.31-5.31v-21.72a5.32 5.32 0 0 0-5.31-5.32Zm40.28 32.84H228a5.73 5.73 0 0 1-5.72-5.72v-21.76a5.72 5.72 0 0 1 5.72-5.72h12.26a5.73 5.73 0 0 1 5.72 5.72v21.76a5.73 5.73 0 0 1-5.7 5.72ZM228 206a5.33 5.33 0 0 0-5.32 5.32v21.76a5.32 5.32 0 0 0 5.32 5.31h12.26a5.31 5.31 0 0 0 5.31-5.31v-21.72a5.32 5.32 0 0 0-5.31-5.32Zm39.47 32.84h-12.26a5.73 5.73 0 0 1-5.72-5.72v-21.76a5.72 5.72 0 0 1 5.72-5.72h12.26a5.73 5.73 0 0 1 5.72 5.72v21.76a5.73 5.73 0 0 1-5.72 5.72ZM255.21 206a5.33 5.33 0 0 0-5.32 5.32v21.76a5.32 5.32 0 0 0 5.32 5.31h12.26a5.31 5.31 0 0 0 5.31-5.31v-21.72a5.32 5.32 0 0 0-5.31-5.32Z"/>
  <path fill="#ff725e" d="M267.91 230.13a40.81 40.81 0 0 1-6.57.26 40.81 40.81 0 0 1-6.57-.26 42.24 42.24 0 0 1 6.57-.26 42.24 42.24 0 0 1 6.57.26Z"/>
  <circle cx="206.74" cy="145.35" r="26.49" fill="#ff725e"/>
  <path fill="#fff" d="M202.08 140.53h-.44v-2.47a5.17 5.17 0 1 1 10.33 0v2h-.44v-2a4.73 4.73 0 1 0-9.45 0Z"/>
  <path fill="#fff" d="M213.31 157.8h-13.13a2.17 2.17 0 0 1-2.18-2.18v-13.13a2.18 2.18 0 0 1 2.18-2.18h13.13a2.19 2.19 0 0 1 2.18 2.18v13.13a2.18 2.18 0 0 1-2.18 2.18Zm-13.13-17.05a1.74 1.74 0 0 0-1.74 1.74v13.13a1.74 1.74 0 0 0 1.74 1.74h13.13a1.74 1.74 0 0 0 1.74-1.74v-13.13a1.74 1.74 0 0 0-1.74-1.74Z"/>
  <path fill="#fff" d="M206.81 149.49a2.07 2.07 0 1 1 2.06-2.06 2.07 2.07 0 0 1-2.06 2.06Zm0-3.68a1.62 1.62 0 1 0 1.62 1.62 1.61 1.61 0 0 0-1.62-1.62Z"/>
  <path fill="#fff" d="M206.52 149.17h.44v3.72h-.44z"/>
  <circle cx="288.45" cy="106.93" r="8.18" fill="#e0e0e0" transform="rotate(-78 288.44 106.93)"/>
  <path fill="#fff" d="M285.81 109.83a.25.25 0 0 1-.18-.08.24.24 0 0 1 0-.35l5.3-5.3a.24.24 0 0 1 .35 0 .25.25 0 0 1 0 .36l-5.3 5.29a.25.25 0 0 1-.17.08Z"/>
  <path fill="#fff" d="M291.1 109.83a.25.25 0 0 1-.17-.08l-5.3-5.29a.25.25 0 0 1 0-.36.24.24 0 0 1 .35 0l5.3 5.3a.24.24 0 0 1 0 .35.25.25 0 0 1-.18.08Z"/>
  <path fill="#455a64" d="M78.06 415.55s-26.42-30.41-36.39-60.82-5.24-26.92-5.24-26.92 13.46 29.54 23.68 43.81 28.42 35.2 28.42 35.2Z"/>
  <path fill="#455a64" d="M83.32 332.54a1.54 1.54 0 0 0-2.86 1c1.61 10.69 5.09 35.75 5 52-.17 21.12 0 29.28 0 29.28h11s-2-43.66-4.44-57c-1.78-9.31-5.48-19.67-8.7-25.28Z"/>
  <path fill="#455a64" d="M89.32 411.26a116.45 116.45 0 0 0 9.05-32.83c.9-7.77-.71-18.28-3.11-32.3a86.23 86.23 0 0 1-1.39-15.54 2.62 2.62 0 0 1 4.92-1.23c1.33 2.37 5.17 10.46 6.15 15.53 2.66 13.84 5.67 20.76 3.37 33.9s-10.83 33.36-10.83 33.36Zm9.9.89s29-62.34 31-71.59 8.85-30.56 9.65-29.35 2 12.46-3.21 25.33-27.55 77.51-27.55 77.51h-9.89"/>
  <path fill="#263238" d="M86.14 409.36a5.17 5.17 0 0 1-.81-.56c-.52-.39-1.3-.94-2.25-1.71a106 106 0 0 1-7.8-6.88 131 131 0 0 1-21-27 177.19 177.19 0 0 1-14.37-31.12 196.83 196.83 0 0 1-3.21-9.88c-.36-1.18-.6-2.1-.77-2.72a5.84 5.84 0 0 1-.23-1 5.72 5.72 0 0 1 .35.92l.88 2.69c.76 2.33 1.89 5.69 3.39 9.81a189.06 189.06 0 0 0 14.49 30.95 137 137 0 0 0 20.82 27c3.11 3.09 5.76 5.44 7.64 7 .93.8 1.69 1.38 2.17 1.8a6.1 6.1 0 0 1 .7.7Zm3.18-29.91a8.77 8.77 0 0 1-.26-1.83l-.54-5a306.56 306.56 0 0 0-5.26-32.71l-1.06-4.92a10.16 10.16 0 0 1-.32-1.82 10.72 10.72 0 0 1 .56 1.76c.32 1.15.75 2.81 1.25 4.88a219.2 219.2 0 0 1 5.58 37.77 11.26 11.26 0 0 1 .05 1.87Zm6.79-50.58a3.88 3.88 0 0 1 .34.79l.87 2.32c.39 1 .83 2.24 1.25 3.71s1 3.11 1.41 5l.72 2.93c.24 1 .41 2.1.63 3.21.48 2.21.77 4.61 1.12 7.13a116.3 116.3 0 0 1 .7 16.52 116.19 116.19 0 0 1-1.88 16.44c-.53 2.48-1 4.86-1.62 7-.31 1.09-.56 2.16-.87 3.16l-.93 2.92c-.55 1.84-1.23 3.45-1.76 4.88s-1 2.64-1.51 3.61l-1 2.25a3.94 3.94 0 0 1-.4.76 4.55 4.55 0 0 1 .28-.81l.93-2.29c.38-.95.91-2.2 1.4-3.65s1.15-3 1.68-4.89l.88-2.87c.31-1 .54-2.06.83-3.15.6-2.17 1-4.53 1.56-7a121.7 121.7 0 0 0 1.82-16.35 121.6 121.6 0 0 0-.64-16.43c-.34-2.51-.61-4.9-1.06-7.11-.21-1.1-.37-2.18-.6-3.2l-.68-2.93c-.39-1.87-.92-3.52-1.31-5s-.8-2.72-1.15-3.74l-.75-2.35a4.54 4.54 0 0 1-.26-.86Zm43.45-16.41a1.19 1.19 0 0 1 0 .28c0 .22-.08.48-.13.81-.13.71-.29 1.76-.57 3.1-.56 2.68-1.5 6.54-3 11.22s-3.42 10.18-5.77 16.21-5.06 12.61-7.64 19.61-4.63 13.81-6.52 20-3.66 11.75-5.38 16.34A103.69 103.69 0 0 1 106 410.7c-.59 1.23-1.13 2.15-1.47 2.79l-.41.71c-.09.16-.14.24-.15.23a.84.84 0 0 1 .1-.26l.35-.74c.31-.65.81-1.59 1.37-2.84 1.16-2.47 2.74-6.1 4.38-10.71s3.4-10.15 5.24-16.35 3.87-13 6.49-20 5.32-13.59 7.69-19.61 4.39-11.47 5.89-16.13 2.49-8.48 3.12-11.14c.32-1.33.52-2.37.69-3.08l.19-.79a.91.91 0 0 1 .08-.32Z"/>
  <path fill="#455a64" d="M50.11 298.69a2.49 2.49 0 0 0-4.11 2.54 71.15 71.15 0 0 0 3.64 9.38c4 8.47 15.7 38.88 21.19 55.58S84 414.05 84 414.05l11.71-1.9S85 361 74.57 342.51c-8.41-14.82-16.83-36.24-24.46-43.82Z"/>
  <path fill="#263238" d="M74 376.64a6.55 6.55 0 0 1 .61 1.4c.34.92.82 2.26 1.35 3.93 1.08 3.34 2.4 8 3.72 13.19s2.44 9.91 3.21 13.33c.35 1.61.64 3 .88 4.05a7.73 7.73 0 0 1 .24 1.51 7.5 7.5 0 0 1-.48-1.45l-1.07-4-3.38-13.27a487.6 487.6 0 0 0-3.54-13.22l-1.16-4a7.63 7.63 0 0 1-.38-1.47Zm15.92 36.46a1.24 1.24 0 0 1-.06-.31c0-.25-.08-.55-.14-.92-.12-.81-.23-2-.48-3.55-.43-3.08-1.19-7.51-2.45-12.92a186.45 186.45 0 0 0-5.48-18.7 303.61 303.61 0 0 0-8.83-22.2c-6.89-15.49-13.77-29.24-18.3-39.4-2.28-5.08-4-9.21-5.22-12.1-.59-1.44-1-2.57-1.31-3.33l-.33-.87a1.13 1.13 0 0 1-.09-.31 1.35 1.35 0 0 1 .15.28l.38.85 1.43 3.29a462 462 0 0 0 5.39 12c4.62 10.09 11.57 23.82 18.47 39.34a287.5 287.5 0 0 1 8.8 22.26 177 177 0 0 1 5.37 18.8 130.21 130.21 0 0 1 2.26 13c.21 1.54.28 2.75.37 3.56l.07.93a1.3 1.3 0 0 1 0 .3Zm5.83-.95a12.85 12.85 0 0 1-.4-2l-.91-5.38c-.8-4.54-2-10.79-3.81-17.59a242.79 242.79 0 0 0-7.08-22.32 12.41 12.41 0 0 1-.62-1.91 12 12 0 0 1 .85 1.82c.5 1.19 1.21 2.92 2 5.08a170 170 0 0 1 5.44 17.21 178.4 178.4 0 0 1 3.65 17.67c.33 2.28.58 4.13.71 5.42a13.34 13.34 0 0 1 .17 2Z"/>
  <path fill="#ff725e" d="M74.08 410.47h45.71v55.69H74.08z"/>
  <path d="M74.08 410.47h45.71v55.69H74.08z" opacity=".3"/>
  <path fill="#ff725e" d="M64.65 410.47h40.55v55.69H64.65z"/>
  <path fill="#ffbe9d" d="m386.91 286.57-24.03-3.48-48.07 7.11-13.49 4.77 2.39 29.5 46.22 8.51 31.18-9.24 11.79-17.35-5.99-19.82z"/>
  <path fill="#ff725e" d="m402.06 289.39-20.12-4.74s-14.21 44-49.3 42.07c-28.6-1.55-28.93-33.47-28.93-33.47l-20.61 6.6s-7.89 52.87.84 90.33c2 8.75 4.77 20.54 4.77 20.54l-2.79 54.73 152.44.24-36.3-176.3Z"/>
  <path d="M342.3 454.83c7.42-.19 14.26.44 21.68.26 8.9-.22 17.87-.44 26.66 1 6.58 1.09 13 3.09 19.58 4.13 9 1.42 18.59.92 26.59-3.41l-1.29-7.47-30.38-7.34Z" opacity=".3"/>
  <path fill="#ff725e" d="M265.89 312.17c7-9 18.56-12.75 18.56-12.75l7.8 67.89-14.77 98.86-48.38-.23s26.68-140.72 36.79-153.77Zm133.82-23.28s32.56 2.61 44.24 56c5.28 24.13 12 52.4 13.89 71.41 1.39 13.78-6.1 35.36-19.84 37.13l-17.28 2.32a28.55 28.55 0 0 1-10.18-.37c-10.91-2.51-12-10-14-18l-5-15.92c-2.76-15.14 11.35-18 19.14-17.79l-5.81-69.11Z"/>
  <path fill="#263238" d="M280.42 337.17a3.54 3.54 0 0 0-.15.74l-.33 2.15-.22 1.56c-.08.56-.12 1.19-.19 1.86-.14 1.33-.3 2.85-.37 4.54a114.81 114.81 0 0 0-.08 11.87 144.9 144.9 0 0 0 1.44 14.45c.75 5.11 1.69 9.93 2.65 14.29s1.89 8.27 2.71 11.55 1.51 5.91 2 7.73l.58 2.09a3.53 3.53 0 0 0 .24.72 3.72 3.72 0 0 0-.14-.74l-.48-2.12-1.86-7.77c-.78-3.24-1.68-7.2-2.59-11.56s-1.86-9.17-2.6-14.26-1.26-10-1.48-14.41-.23-8.46 0-11.82c.05-1.69.18-3.2.29-4.54q.07-1 .15-1.86l.17-1.56.23-2.16a3.84 3.84 0 0 0 .03-.75Zm155.81 85.2A5.86 5.86 0 0 0 436 421a21.82 21.82 0 0 0-1.26-3.51 23.93 23.93 0 0 0-19.11-13.91 21 21 0 0 0-3.73-.12 6.1 6.1 0 0 0-1.36.17 44.65 44.65 0 0 1 5 .31 24.69 24.69 0 0 1 18.83 13.7 48.49 48.49 0 0 1 1.86 4.73Zm-7.52-26.58a2.51 2.51 0 0 0-.79-.07 16.6 16.6 0 0 0-2.15.1 24.67 24.67 0 0 0-6.87 1.72 25.25 25.25 0 0 0-6.1 3.61 17.37 17.37 0 0 0-1.59 1.44c-.35.37-.53.58-.51.61s.88-.7 2.33-1.76a28.71 28.71 0 0 1 12.79-5.26c1.77-.26 2.89-.3 2.89-.39ZM395 326.72a7.39 7.39 0 0 0 .08-1.43c0-.92.06-2.24.17-3.87a62.14 62.14 0 0 1 6.86-24.42c.75-1.45 1.4-2.61 1.87-3.39a7.38 7.38 0 0 0 .67-1.26 7.54 7.54 0 0 0-.85 1.15 38.8 38.8 0 0 0-2 3.33 56.32 56.32 0 0 0-6.9 24.58c-.06 1.64-.06 3 0 3.89a6.9 6.9 0 0 0 .1 1.42Zm-62.36 48.43a2.17 2.17 0 0 0 .14.56c.12.36.27.91.54 1.57a32.58 32.58 0 0 0 2.71 5.49 35.29 35.29 0 0 0 34.57 16.6 33.69 33.69 0 0 0 6-1.31c.69-.21 1.21-.44 1.56-.57a3 3 0 0 0 .53-.23c0-.05-.77.21-2.15.6a35.71 35.71 0 0 1-6 1.14 35.46 35.46 0 0 1-34.21-16.42 37.91 37.91 0 0 1-2.84-5.37 13.5 13.5 0 0 0-.85-2.06Zm68.62 75.05c.05-.05.56.68 1.78 1.68a16.35 16.35 0 0 0 6 2.84 31.53 31.53 0 0 0 9.8.87c3.72-.27 7.83-.71 12.09-1.34a62 62 0 0 0 11.8-2.72 15 15 0 0 0 4.33-2.89 22.49 22.49 0 0 0 3-3.45 32.61 32.61 0 0 0 3.33-5.77c.31-.73.55-1.29.7-1.68a2.28 2.28 0 0 1 .26-.58 4.11 4.11 0 0 1-.16.61c-.12.41-.33 1-.62 1.73a29.22 29.22 0 0 1-3.21 5.91 22.34 22.34 0 0 1-3 3.54 15.12 15.12 0 0 1-4.44 3 58.81 58.81 0 0 1-11.9 2.79c-4.29.64-8.39 1.06-12.14 1.31a31.5 31.5 0 0 1-9.93-1 16 16 0 0 1-6-3 9.58 9.58 0 0 1-1.27-1.33 2.62 2.62 0 0 1-.42-.52Z"/>
  <path fill="#263238" d="M395.89 343.72c.13 0 3.57 13.29 7.66 29.77s7.3 29.86 7.16 29.9-3.57-13.3-7.66-29.78-7.3-29.86-7.16-29.89ZM391.74 419a4.08 4.08 0 0 1-.17-1.1 19.59 19.59 0 0 1-.07-3 8.89 8.89 0 0 1 1.47-4.27 12.7 12.7 0 0 1 1.67-2.1 11.77 11.77 0 0 1 2.31-1.72 29.28 29.28 0 0 1 9.48-3.06 26.64 26.64 0 0 1 3-.26 3.78 3.78 0 0 1 1.11 0c0 .08-1.57.14-4.06.59a31.58 31.58 0 0 0-9.28 3.14 11.6 11.6 0 0 0-2.22 1.64 12.56 12.56 0 0 0-1.62 2 8.61 8.61 0 0 0-1.5 4 25.56 25.56 0 0 0-.09 3 4.93 4.93 0 0 1-.03 1.14Z"/>
  <path d="M281.92 382c-8.31-14.07-8.49-32.35-1.24-47a131.76 131.76 0 0 0 1.48 46.94" opacity=".3"/>
  <path fill="#ffbe9d" d="M325.89 417.08h.06Zm.36.17.13.06Zm-.25-.14.3.14Zm-.24-.11.13.06Zm-30.59 28.11c2.62-4.94 23.05-18 23.05-18l-5.53-1.28-6.11 2.58a15 15 0 0 1-2.63 5.72c-2.24 3.2-6.05-.11-6.05-.11l2.58-12.37 12.08-7.27s11.36 1.74 13.2 2.62l4.84 4.43c2.13 1.67 8.27 8.24 9.95 8.44S395 418.22 395 418.22c7.23 5.73 11 17.1 12.18 25.31 0 0 1.29 4-.11 6.22l-64.73 5.08-13.72 3.79a97.13 97.13 0 0 1-11.27 3.87c-4.56 1-7.63-.51-7.76-3s3.42-2.8 3.42-2.8a69 69 0 0 0 8.82-3.88 15.47 15.47 0 0 0 5-5.46l-4.89.58s-10.4 7.22-14.31 9.34-4.68-1.77-5-3 11.68-12.91 11.68-12.91-11.41 7-13.46 8.8-5.09 2.31-5.74 1.12-2.55-1.23.06-6.17Zm31.21-27.8.11.06Zm.18.09Zm-.07-.03h.07Z"/>
  <path fill="#eb996e" d="M351.43 446.25a2.81 2.81 0 0 0 .06-.8 4.68 4.68 0 0 0-.06-.94 7.07 7.07 0 0 0-.23-1.23 17.56 17.56 0 0 0-3.31-6.39 37 37 0 0 0-5-5.18 14.37 14.37 0 0 0-2.35-1.82 25.22 25.22 0 0 0 2.12 2.07 47.64 47.64 0 0 1 4.84 5.23 18.81 18.81 0 0 1 3.36 6.18c.52 1.74.47 2.89.57 2.88Zm-32.74-19.51a7.5 7.5 0 0 0 6.45-2.17c-.08-.11-1.33.82-3.12 1.4s-3.33.63-3.33.77Zm-3.4 13.54a64.32 64.32 0 0 0 10.22-4.2 31.23 31.23 0 0 0-5.2 1.88 32.61 32.61 0 0 0-5.02 2.32Zm10.96 6.92a12 12 0 0 0 2.66-.95 11.76 11.76 0 0 0 2.6-1.11 10.52 10.52 0 0 0-5.26 2.06Zm-9.25-6.02a11.32 11.32 0 0 1 2 1.76 11.09 11.09 0 0 1 1.16 2.42c.06 0 .12-.33 0-.85a4.33 4.33 0 0 0-.82-1.86 4.28 4.28 0 0 0-1.57-1.28c-.45-.22-.77-.24-.77-.19Zm-4.82-7.55c-.07.12.83.61 1.42 1.64a13 13 0 0 1 .73 2.05A2.43 2.43 0 0 0 314 435c-.67-1.16-1.8-1.5-1.82-1.37Zm1.62-13.5c.06 0 .24-.2.39-.65a3.55 3.55 0 0 0 0-1.8 3.48 3.48 0 0 0-.86-1.58c-.33-.33-.6-.45-.64-.4a9.44 9.44 0 0 1 1 2.1 8.62 8.62 0 0 1 .11 2.33Z"/>
  <path fill="#263238" d="M407.6 451.6a9.29 9.29 0 0 1-.08-1.49c0-.48 0-1.06-.07-1.74s-.06-1.45-.16-2.29a51.31 51.31 0 0 0-2.83-13 46.59 46.59 0 0 0-3.06-6.64c-.6-1-1.12-1.89-1.72-2.7l-.83-1.18a8.8 8.8 0 0 0-.83-1c-2.15-2.65-3.8-4-3.72-4.08a6.83 6.83 0 0 1 1.16.93 14.81 14.81 0 0 1 1.28 1.21c.47.49 1 1 1.57 1.7.27.34.56.68.86 1s.57.77.87 1.18c.62.81 1.16 1.75 1.77 2.71a43.43 43.43 0 0 1 3.14 6.7 47.62 47.62 0 0 1 2.71 13.12c.07.85.06 1.63.08 2.31s0 1.27 0 1.75a7.46 7.46 0 0 1-.14 1.51Z"/>
  <path d="M429.81 405.35a32.52 32.52 0 0 0-19.18-1.75 26.53 26.53 0 0 1 25.89 16.74c.46 1.24 1.38 2.71 2.7 2.52s1.68-1.72 1.68-2.95c.01-6.47-5.12-12.07-11.09-14.56Z" opacity=".3"/>
  <path fill="#fff" d="M280 332.59a3.14 3.14 0 0 1-.86-.29c-.55-.21-1.32-.56-2.26-1a47.34 47.34 0 0 1-7-4.29 48 48 0 0 1-6.14-5.4c-.72-.76-1.29-1.4-1.65-1.85s-.56-.72-.53-.75.94.9 2.44 2.34a63.53 63.53 0 0 0 6.19 5.25 62.43 62.43 0 0 0 6.83 4.37c1.88 1.03 3.04 1.55 2.98 1.62Zm115.47 3.77a1.12 1.12 0 0 1-.25.17l-.77.46c-.67.41-1.69 1-3 1.66a84 84 0 0 1-11.65 4.91 112.15 112.15 0 0 1-18.23 4.38 176.92 176.92 0 0 1-22.88 1.9c-8.15.19-15.91 0-23-.12a153.24 153.24 0 0 1-18.7-1.41 72.56 72.56 0 0 1-12.32-2.86c-1.41-.48-2.5-.88-3.22-1.19l-.82-.35a1.47 1.47 0 0 1-.28-.13l.3.08.84.3c.73.28 1.83.65 3.25 1.1a79.12 79.12 0 0 0 12.3 2.69 161 161 0 0 0 18.66 1.29c7 .13 14.8.27 22.93.08a179.7 179.7 0 0 0 22.82-1.86 114.07 114.07 0 0 0 18.19-4.25 90.52 90.52 0 0 0 11.68-4.74 51.77 51.77 0 0 0 3-1.57l.79-.41c.26-.1.35-.14.36-.13ZM280.38 372a5.52 5.52 0 0 1-1.24-.26l-3.33-.91a831.5 831.5 0 0 1-21.8-6.53l-3.28-1.06a6.89 6.89 0 0 1-1.18-.46 5.52 5.52 0 0 1 1.24.26l3.33.91a831.5 831.5 0 0 1 21.8 6.52l3.28 1.07a6 6 0 0 1 1.18.46Zm2.91 55.27c0 .13-10-2.73-22.3-6.4s-22.19-6.76-22.15-6.9 10 2.72 22.3 6.4 22.19 6.76 22.15 6.9Zm144.53-119.58a6.92 6.92 0 0 1-1.1.87c-.72.53-1.8 1.27-3.15 2.15A107.32 107.32 0 0 1 401 321.8c-1.52.53-2.76.93-3.63 1.18a6.74 6.74 0 0 1-1.36.34 7.73 7.73 0 0 1 1.3-.53l3.57-1.33a134.05 134.05 0 0 0 22.51-11.05l3.24-2a7.09 7.09 0 0 1 1.19-.72Zm19.92 56.82a12.37 12.37 0 0 1-1.62.77 75.08 75.08 0 0 1-4.55 1.8 105.67 105.67 0 0 1-31.57 6.28c-2.07.09-3.74.11-4.9.07a13.43 13.43 0 0 1-1.79-.08 10.76 10.76 0 0 1 1.79-.12c1.15 0 2.82-.1 4.88-.24a122.62 122.62 0 0 0 15.95-2.07 124.43 124.43 0 0 0 15.53-4.18 159.3 159.3 0 0 0 4.6-1.65 10.4 10.4 0 0 1 1.68-.58ZM419 455.39a2.16 2.16 0 0 1 .05-.56l.25-1.57c.1-.64.25-1.52.35-2.5s.27-2.08.31-3.32c0-.61.08-1.26.12-1.93s0-1.38 0-2.1c0-1.45-.06-3-.14-4.63a67.9 67.9 0 0 0-1.61-10.48 68.68 68.68 0 0 0-3.33-10.07c-.68-1.48-1.29-2.91-2-4.18-.34-.64-.65-1.27-1-1.86l-1-1.66c-.61-1.08-1.27-2-1.8-2.81s-1-1.51-1.45-2.06l-.94-1.29a2.08 2.08 0 0 1-.3-.47 3 3 0 0 1 .38.4l1 1.24a24 24 0 0 1 1.53 2c.56.81 1.24 1.71 1.87 2.78l1 1.66c.35.58.67 1.22 1 1.86.72 1.27 1.36 2.7 2 4.19a60.38 60.38 0 0 1 5 20.71c.06 1.64.15 3.2.09 4.66 0 .73 0 1.44-.06 2.12l-.15 1.94c-.07 1.25-.27 2.35-.4 3.33s-.28 1.82-.43 2.49l-.35 1.57a2.49 2.49 0 0 1 .01.54Zm38.58-30.65c-.05 0-.08-.82-.31-2.26a19.43 19.43 0 0 0-2-5.82 24.52 24.52 0 0 0-5.65-7.12 29.34 29.34 0 0 0-9.61-5.62A37.45 37.45 0 0 0 429 402a69.78 69.78 0 0 0-9.18.35c-2.61.24-4.72.51-6.18.67l-1.68.18a2.19 2.19 0 0 1-.59 0 2.26 2.26 0 0 1 .57-.13l1.67-.28c1.45-.23 3.56-.54 6.17-.84a67.15 67.15 0 0 1 9.24-.46 37.53 37.53 0 0 1 11.16 1.93 29.58 29.58 0 0 1 9.76 5.76 24.31 24.31 0 0 1 5.66 7.31 18.39 18.39 0 0 1 1.83 6 12.49 12.49 0 0 1 .12 1.7 2.46 2.46 0 0 1 .03.55ZM350 395.79a2.35 2.35 0 0 1-.57.1l-1.63.17-6 .5c-5.07.39-12.08.87-19.82 1.27s-14.77.65-19.86.71h-7.63a2.09 2.09 0 0 1-.57-.06 2.49 2.49 0 0 1 .57-.05h1.63l6-.15a902.2 902.2 0 0 0 19.83-.86l19.82-1.12 6-.34 1.64-.07a2.28 2.28 0 0 1 .59-.1Z"/>
  <path d="M355.81 397.87c6.3 1.85 15 2.3 21.17 0-4.8 6.83-14.07 9.3-22.12 7.08s-15.46-10.27-16.08-18.6c3.9 5.25 10.73 9.65 17.03 11.52Z" opacity=".3"/>
  <path fill="#fff" d="M406.9 391.28a3.15 3.15 0 0 1-.51.14l-1.45.31a361 361 0 0 1-41.23 5.38c-2.3.16-4.17.27-5.46.32l-1.48.05a1.61 1.61 0 0 1-.52 0 2.68 2.68 0 0 1 .51-.08l1.48-.15 5.44-.49c4.6-.41 10.94-1 17.94-1.89s13.29-1.78 17.85-2.48l5.4-.84 1.48-.21a1.58 1.58 0 0 1 .55-.06Z"/>
  <path d="M396.42 346.76c-1.58 18.1 3.35 36.06 8.24 53.56a7.44 7.44 0 0 0 1.34 3 2.6 2.6 0 0 0 3 .83c1.53-.78 1.32-3 .89-4.64l-13.59-52" opacity=".3"/>
  <path fill="#e0e0e0" d="m143.22 364.79 20.55 100.9h178.4a3.56 3.56 0 0 0 3.56-3.56 3.56 3.56 0 0 0-3.56-3.56h-35.92l-19.05-93.84a3.9 3.9 0 0 0-3.78-3.12l-136.34-1.49a3.89 3.89 0 0 0-3.86 4.67Z"/>
  <path fill="#263238" d="M143.22 364.79a2.4 2.4 0 0 1-.06-.3 3.69 3.69 0 0 1 0-.92 4 4 0 0 1 1.89-2.95 3.87 3.87 0 0 1 1.18-.46 5.86 5.86 0 0 1 1.4-.09h3.21l8 .07 51.55.49 35.94.36 20.14.21 10.56.11 5.39.05h1.38a3.92 3.92 0 0 1 1.38.4 4.08 4.08 0 0 1 2 2.05 6.34 6.34 0 0 1 .37 1.37l.28 1.36.55 2.72 1.13 5.51 2.28 11.23 4.72 23.23c3.22 15.82 6.57 32.27 10 49.23l-.24-.2h35.32a6.64 6.64 0 0 1 1.39.08 3.86 3.86 0 0 1 2.32 1.66 3.82 3.82 0 0 1-1.32 5.52 3.76 3.76 0 0 1-1.68.45H163.62v-.15l-14.94-73.72-4.05-20.16c-.46-2.31-.81-4.07-1-5.26s-.33-1.8-.33-1.8l.39 1.79 1.1 5.24 4.15 20.14 15.1 73.7-.19-.16h178.52a3.42 3.42 0 0 0 1.46-.39 3.33 3.33 0 0 0 1.14-4.81 3.26 3.26 0 0 0-2-1.35 6.72 6.72 0 0 0-1.29-.08h-35.63v-.19c-3.44-17-6.77-33.42-10-49.24l-4.71-23.23-2.34-11.38-1.11-5.51-.56-2.73-.27-1.35a5.68 5.68 0 0 0-.35-1.29 3.65 3.65 0 0 0-1.71-1.84 3.72 3.72 0 0 0-1.23-.36h-1.34l-5.4-.06-10.56-.12-20.13-.24-35.94-.42-51.55-.63-8-.11-3.21-.05a6.2 6.2 0 0 0-1.38.07 4.06 4.06 0 0 0-1.15.45 3.89 3.89 0 0 0-1.89 2.88 4.65 4.65 0 0 0 0 1.18Z"/>
  <path fill="#fff" d="M225.42 411a5.89 5.89 0 1 1-5.89-5.89 5.89 5.89 0 0 1 5.89 5.89Z"/>
  <path fill="#263238" d="M143.38 365.61h9.36l25.51.12 84.15.59 12.17.1h3a7.3 7.3 0 0 1 1.53.09 4.12 4.12 0 0 1 1.44.58 4.19 4.19 0 0 1 1.81 2.46c.23 1 .39 1.92.59 2.88 1.51 7.6 3 14.93 4.35 21.91l7.33 37.12 4.91 25a1031.47 1031.47 0 0 0 1.64 8.59c.08.42.09.6.09.6s-.06-.2-.14-.59l-.38-1.77-1.4-6.79-5.06-25-7.44-37.1-4.37-21.91c-.2-.94-.38-1.92-.58-2.84a3.75 3.75 0 0 0-1.61-2.17A3.68 3.68 0 0 0 279 367a6.68 6.68 0 0 0-1.43-.08h-3l-12.17-.09-84.16-.74-25.5-.28-6.94-.1H144Zm238.25-153.24a66.1 66.1 0 0 1-21.08 49.87q-4.73-13.65-9.43-27.3"/>
  <path fill="#263238" d="M310.59 158.07c8.09-4.42 17.86-5.06 26.9-3.25s17.46 5.9 25.44 10.52c4.48 2.59 8.94 5.44 12.16 9.48 5.87 7.39 11.68 19.53 12.24 29 .46 7.62-2.46 26.69-5.68 33.61-2.95 6.35-16.78 11.19-23.61 12.76l-62.64-72.9a31.74 31.74 0 0 1 15.19-19.22Z"/>
  <path fill="#263238" d="m299.79 167.89 15-2.68c-8.21 19.55-10.44 64.25-15.13 84.93-5.54-8-18.39-32.5-17.7-42.23s.04-41.67 17.83-40.02Z"/>
  <path fill="#ffbe9d" d="M371 200.43c-.81-11.42-8.21-20.78-19.3-23.61L317.11 168c-14.94-1.61-24.92 16.77-25.9 31.77-1.09 16.67-1.76 34.25.19 46.69 3.91 25 23.07 28.24 23.07 28.24v19.2l11.57 47.91 37.29-51.52 7.72-89.54c.03-.44-.05.25-.05-.32Z"/>
  <path fill="#263238" d="M298.72 218.66a3.21 3.21 0 0 0 3.09 3.24 3.07 3.07 0 0 0 3.31-2.89 3.21 3.21 0 0 0-3.08-3.24 3.07 3.07 0 0 0-3.32 2.89Zm-3.72-9.1c.4.42 2.83-1.37 6.28-1.36s6 1.75 6.35 1.33c.19-.19-.22-.94-1.32-1.75a8.82 8.82 0 0 0-5.08-1.58 8.52 8.52 0 0 0-5 1.6c-1.1.82-1.46 1.57-1.23 1.76Zm33.8 9.1a3.21 3.21 0 0 0 3.09 3.24 3.06 3.06 0 0 0 3.31-2.9 3.21 3.21 0 0 0-3.08-3.24 3.07 3.07 0 0 0-3.32 2.9Zm-1.07-9.1c.4.42 2.84-1.37 6.29-1.36s6 1.75 6.35 1.33c.18-.19-.22-.94-1.32-1.75a8.88 8.88 0 0 0-5.05-1.58 8.57 8.57 0 0 0-5 1.6c-1.1.82-1.46 1.57-1.27 1.76ZM317 236.66c0-.19-2.13-.57-5.61-1-.88-.09-1.71-.27-1.86-.87a4.45 4.45 0 0 1 .6-2.61l2.62-6.71c3.64-9.54 6.27-17.39 5.89-17.53s-3.65 7.47-7.29 17l-2.51 6.74a5.12 5.12 0 0 0-.47 3.46 2.2 2.2 0 0 0 1.45 1.29 5.38 5.38 0 0 0 1.49.21c3.45.2 5.62.22 5.69.02Z"/>
  <path fill="#eb996e" d="M347.64 265.79s-8.14 17.21-33.16 14.78v-5.88a63 63 0 0 0 33.16-8.9Z"/>
  <path fill="#263238" d="M328.82 197.09c.34.94 3.78.5 7.83 1s7.32 1.61 7.86.77c.24-.41-.33-1.29-1.65-2.2a13 13 0 0 0-5.82-2 13.23 13.23 0 0 0-6.13.7c-1.49.55-2.24 1.28-2.09 1.73ZM296.09 199c.6.79 3 0 5.84-.05s5.28.54 5.84-.28c.24-.4-.14-1.18-1.19-1.93a8.48 8.48 0 0 0-9.41.27c-1.02.8-1.35 1.61-1.08 1.99Z"/>
  <path fill="#263238" d="M298 176.92c1.53-3.76 5.66-6 9.71-6.22s8 1.33 11.54 3.36c14.89 8.61 22.55 29.4 37.26 38.31 3.62 2.19 8.33.18 11.41 3.08s5.07 7.54 3.37 11.41a35.08 35.08 0 0 0 5.11-8.63c1.12-3.17 1.26-6.84-.42-9.75-1.27-2.21-3.52-3.89-4.13-6.36-.55-2.18.31-4.45.22-6.69a14.67 14.67 0 0 0-2.29-6.38c-5.77-10.19-13.7-19.41-23.91-25.15a42.37 42.37 0 0 0-21.95-5.67 32.38 32.38 0 0 0-20.92 8.29c-3.29 3.07-6.75 6.24-5 10.4"/>
  <path fill="#ffbe9d" d="M367.56 218.55c.26-.72 13.31-5.42 13.48 8.44.17 13.47-13.42 10.82-13.45 10.43s-.03-18.87-.03-18.87Z"/>
  <path fill="#eb996e" d="M371.7 232.28c.06 0 .23.16.63.34a2.38 2.38 0 0 0 1.76 0c1.41-.53 2.59-2.81 2.63-5.23a7.73 7.73 0 0 0-.68-3.36 2.73 2.73 0 0 0-1.79-1.78 1.18 1.18 0 0 0-1.37.65c-.18.38-.09.65-.17.67s-.29-.22-.18-.78a1.5 1.5 0 0 1 .52-.84 1.74 1.74 0 0 1 1.29-.36 3.28 3.28 0 0 1 2.47 2.07 7.84 7.84 0 0 1 .85 3.74c-.06 2.72-1.42 5.27-3.37 5.85a2.5 2.5 0 0 1-2.14-.33c-.43-.31-.5-.61-.45-.64Z"/>
  <path fill="#455a64" d="M372.92 211.63a5.34 5.34 0 0 1-.81-.45c-.52-.33-1.32-.77-2.26-1.44a46.09 46.09 0 0 1-7.28-6.62 130.48 130.48 0 0 1-8.89-11.55 105.42 105.42 0 0 0-11.11-13.84 42.17 42.17 0 0 0-7.18-5.67 35.33 35.33 0 0 0-7.74-3.52 38.38 38.38 0 0 0-14.27-1.75 36.93 36.93 0 0 0-9.56 1.87c-1.11.34-1.93.71-2.5.93a5.13 5.13 0 0 1-.88.31 6.48 6.48 0 0 1 .83-.42 21.65 21.65 0 0 1 2.47-1 34.46 34.46 0 0 1 9.61-2.08 38.19 38.19 0 0 1 14.47 1.6 35.28 35.28 0 0 1 7.89 3.54 43 43 0 0 1 7.29 5.75 103.2 103.2 0 0 1 11.14 14 139.26 139.26 0 0 0 8.76 11.59 50.3 50.3 0 0 0 7.09 6.72c.92.69 1.69 1.16 2.18 1.52a5.49 5.49 0 0 1 .75.51Z"/>
  <path fill="#fff" d="M373.23 234.66a2.65 2.65 0 1 1-.63.2"/>
  <path fill="#263238" d="M372.6 234.86a3.65 3.65 0 0 0-1.21 1.81 2.28 2.28 0 0 0 .52 2.11 2.36 2.36 0 0 0 4.15-1.31 2.29 2.29 0 0 0-.8-2 3.59 3.59 0 0 0-2-.78s.2-.14.63-.15a2.75 2.75 0 0 1 1.68.59 2.7 2.7 0 0 1 1.08 2.43 2.89 2.89 0 0 1-5.13 1.63 2.7 2.7 0 0 1-.52-2.6 2.66 2.66 0 0 1 1-1.45c.35-.27.59-.31.6-.28Zm-3.07-19.42c.21 3.68.38 7.56-1.32 10.83s-6 5.5-9.18 3.67c-2.61-1.49-3.39-4.84-3.84-7.81-1.27-8.58-1.86-17.25-3.21-25.82Z"/>
  <path fill="#455a64" d="M301.32 170.52c0 .07 1.19-.23 3.34-.3a23.28 23.28 0 0 1 8.92 1.63 29.41 29.41 0 0 1 5.58 2.88 59.27 59.27 0 0 1 5.76 4.4 68.76 68.76 0 0 1 11.28 12.16c1.71 2.4 3.23 4.87 4.87 7.16a34.91 34.91 0 0 0 5.4 6.07 60.39 60.39 0 0 0 11.38 7.61c3.45 1.82 6.33 3.1 8.32 4l2.3 1a4.07 4.07 0 0 0 .83.3 3.86 3.86 0 0 0-.76-.43l-2.25-1.11c-2-1-4.79-2.32-8.18-4.19a62.28 62.28 0 0 1-11.18-7.7 34.11 34.11 0 0 1-5.26-6c-1.61-2.26-3.12-4.73-4.85-7.16a67.67 67.67 0 0 0-11.44-12.25 59.09 59.09 0 0 0-5.88-4.4 29.35 29.35 0 0 0-5.73-2.85 22.37 22.37 0 0 0-9.12-1.42 15.47 15.47 0 0 0-2.49.35 3.2 3.2 0 0 0-.84.25Zm68.58 36.6a6.11 6.11 0 0 0 1.19.8l3.42 2 1.14.65a3.5 3.5 0 0 0 1.48.49 1.42 1.42 0 0 0 .91-.21 1.18 1.18 0 0 0 .5-.89 3 3 0 0 0-.63-1.7l-4-6.34-.54.49a14.12 14.12 0 0 0 9.15 2.73 3.88 3.88 0 0 0 1.23-.21 1.65 1.65 0 0 0 1-.91 1.46 1.46 0 0 0-.23-1.36 5.27 5.27 0 0 0-.76-.84 28.07 28.07 0 0 1-4.59-5.79 48.46 48.46 0 0 1-2.92-6.2 7.06 7.06 0 0 0 .43 1.81 24.45 24.45 0 0 0 2 4.66 26.72 26.72 0 0 0 4.56 6c.5.48 1 1 .81 1.45s-.93.64-1.64.64a13.55 13.55 0 0 1-4.56-.55 13.72 13.72 0 0 1-4.11-2l-1.6-1.18 1.07 1.67 4 6.29a2.56 2.56 0 0 1 .57 1.32c0 .38-.34.6-.77.57a6.68 6.68 0 0 1-2.42-1l-3.52-1.8a6.22 6.22 0 0 0-1.17-.59Z"/>
  <path fill="#eb996e" d="M330.07 243a4.5 4.5 0 0 0-4.65-3.42 4.67 4.67 0 0 0-3.62 2.57 5.79 5.79 0 0 0-.21 4.51l.08.32a5.13 5.13 0 0 0 5.77 1.23 4.79 4.79 0 0 0 2.63-5.21Z"/>
  <path fill="#263238" d="M319.16 247.08c0-.52 3.49-.36 6.12-3.22s2.42-6.6 2.91-6.6c.22 0 .64.86.6 2.44a8.68 8.68 0 0 1-2.23 5.51 7.59 7.59 0 0 1-5.12 2.48c-1.44.06-2.31-.37-2.28-.61Z"/>
  <path fill="#fff" d="M436.72 459a.89.89 0 0 1-.23 0l-.7.07-2.67.22c-2.32.19-5.68.41-9.84.66a787.6 787.6 0 0 1-74.89.76l-2.68-.14h-.93 3.61l9.86.17c8.32.12 19.82.18 32.52 0s24.18-.66 32.49-1.06l9.85-.49 2.68-.12h.69Z"/>
</svg>