<svg xmlns="http://www.w3.org/2000/svg" fill="none" viewBox="0 0 1104 1104">
  <path fill="url(#a)" d="M188 182c-102 72-125 668 0 737 121 66 750-5 800-88s61-500 0-558c-63-60-701-165-800-91Z"/>
  <path fill="url(#b)" d="M422 36C301 50-14 560 61 679c74 116 657 364 739 317 86-49 298-405 276-485-24-83-530-489-654-475Z"/>
  <path fill="#9020E8" d="M911 875c38-58 77-124 110-185 8-77 11-168 6-246-64-66-177-162-293-245-154-31-342-50-458-42-58 78-121 177-166 271-11 96-11 210 3 301 88 69 260 151 414 209 141-11 293-35 384-63Z" opacity=".5" style="mix-blend-mode:screen"/>
  <path fill="#231C4C" d="M544 905c-169-2-384-149-478-221 11 14 25 28 47 45v2c94 78 243 185 373 210l41-3 22 9c166-6 351-141 469-243l3-17 3-5C869 792 649 908 544 905Z"/>
  <path fill="#fff" d="M560 781a72 72 0 1 0-10 143 72 72 0 0 0 10-143Zm227-30c-39 5-67 41-61 80a72 72 0 1 0 141-17c-6-38-42-66-80-63ZM580 469c-28 25-17 64-3 83l80-75c-14-16-47-35-77-8Z"/>
  <path fill="#fff" fill-rule="evenodd" d="m938 342-52 340c0 14-11 22-22 25l-417 52c-11 0-22-6-27-17L268 414l-55-121-119 13a28 28 0 1 1-6-55l138-16c11 0 22 5 28 16l58 135 596-74c8 0 17-3 22 5 6 6 8 17 8 25ZM756 527c-25 28-25 39-47 58-33 30-71 42-99 14l141-127-22-28c-50-55-125-85-196-22-78 69-56 160-6 218 61 69 144 72 218 6 31-28 50-55 58-83 6-25-25-63-47-36Z" clip-rule="evenodd"/>
  <path fill="#fff" d="M315 436S47 480 50 508c2 25 278-3 278-3l-13-69Zm44 102s-229 39-227 66c3 25 238 3 238 3l-11-69Zm47 105s-199 36-196 61c3 27 207 8 207 8l-11-69Zm554-406c3 14-8 28-22 31l-662 77c-14 3-28-8-30-22 0-17 8-30 24-30l663-80c14-3 27 8 27 24Z"/>
  <path fill="url(#c)" d="m1027 444-14-107c-122 22-295 121-522 243-185 96-334 82-441 38 0 25 2 44 11 58 8 17 27 33 49 53 14 93 39 168 78 190 49 28 190 30 339 19 127 47 240 78 273 58 28-16 69-63 111-121 38-14 66-30 77-44 14-25 25-78 33-144 39-77 64-146 55-179-5-14-22-36-49-64Z" opacity=".3" style="mix-blend-mode:overlay"/>
  <defs>
    <linearGradient id="a" x1="-65389.7" x2="-70905.2" y1="35594.5" y2="366525" gradientUnits="userSpaceOnUse">
      <stop offset=".1" stop-color="#8200AF"/>
      <stop offset="1" stop-color="#231C64"/>
    </linearGradient>
    <linearGradient id="b" x1="-16062.4" x2="519.1" y1="24342.6" y2="514960" gradientUnits="userSpaceOnUse">
      <stop stop-color="#F90"/>
      <stop offset="1" stop-color="#006831"/>
    </linearGradient>
    <linearGradient id="c" x1="-115362" x2="-93762.1" y1="22411.2" y2="243498" gradientUnits="userSpaceOnUse">
      <stop offset=".4" stop-color="#fff"/>
      <stop offset=".9" stop-color="#fff" stop-opacity="0"/>
    </linearGradient>
  </defs>
</svg>