<svg xmlns="http://www.w3.org/2000/svg" fill="none" viewBox="0 0 717 226">
  <path fill="#9020E8" fill-rule="evenodd" d="M103 204a102 102 0 1 0 0-204 102 102 0 0 0 0 204Zm0-28c74 0 98-20 98-74a98 98 0 0 0-196 0c0 54 23 74 98 74Z" clip-rule="evenodd"/>
  <path fill="#9020E8" fill-rule="evenodd" d="M173 4h7l1 1h2l2 1h3l2 1h2c1-1 1 0 2 1h1l2 1 1 1h1l2 1 1 1 2 1 3 3c1 2 3 1 4 0 1-3 3-2 3 2-1 3 0 3 5 1 4-2 4-2 2 2-2 3-3 4-5 4-2 1-2 2-2 4l-1 3c-1-1-1 0-1 4 1 5 0 6-2 10-2 3-3 4-4 11l-2 9-1 4c0 2-2 4-3 3l-1-1-2-1-2-1c-2 0-3-3-3-8v-4l-2-4-1-2V41l-2 1-1 1h-1a10 10 0 0 0-4 1l-1 1c-5 7-8 12-8 19l-2 8-1 5-6 8c-3 2-3 2-4 5v3a368 368 0 0 0-7 44v10l4 8c4 5 6 11 5 12l-6-1-1-1c-2 0-2 0-3-4 0-3-1-4-2-4l-2-1-1-1c-2 0-2-1-2-7v-31l-1-6-2 7-2 5-4 13-1 4 1 12 1 1v5l1 1c1 2 0 3-4 4h-2l-4-4v-3c0-4 0-5-2-7l-1-3 1-3 3-11c2-5 3-10 2-12l1-5a82 82 0 0 0 3-14l1-11-7-1c-14 0-16-1-25-3-9-3-14-6-19-10-6-4-10-4-12-1-2 4-4 7-9 11l-4 6-6 12-3 6-2 7c-4 9-5 10-6 18-1 12 0 17 2 22l2 6 1 4h-7l-1-1c-2-2-2-3-2-5 0-3-1-5-4-6-2-1-3-3-1-8 2-7 5-25 5-35l1-7 3-4c6-14 7-20 2-28-5-10-7-14-7-19s2-12 4-15l2-4-7 1-3 3v4c2 0 1 1-2 5-2 2-2 3-1 3 2-1 2 0-1 3l-1 4-2 5c-2 1-4 5-4 7l-1 3-1 2-1 1c-1-1-2 0-3 2l-1 2-1 1-1 3v6c0 3-1 3-2 0-1-4-2-3-1 4v1l-2-1c-1-2-1-1-1 0l-1 3a98 98 0 0 1 30-65l3-2 2-1h2l6 1 1-1 10-4c11-4 15-4 29 1 13 4 21 5 29 2h3l3-3h1v1-1l2-2c3-6 8-12 13-14l2-1 1-1-1-2c-1 0 0 0 0 0l1 1 2 1 1-2h7l2-1 3 1 2-1h14Z" clip-rule="evenodd"/>
  <path fill="#42C6FF" d="M144 159c0-2-3-3-4-4h-4l-5 1-3 2-2 2-4 2-4 3v-4l-1-2v-1l1-2v-3l1-10 2-9v-3l1-6 2-6 4-12 2-10 1-10-1-2-6-6-11-10-5-5-1-3-1-4-1-2v-6l-1-2v-3l-1 1-1-1v1l-1 3v2l-1 3-1 4-1 2v4l-3 4-8 6-8 7-4 4-2 2v6l2 12 5 9 2 8a130 130 0 0 0 2 11v4l3 15 1 6-1 3v2l-1 2-3-2-3-3-1-1-3-2-4-3-5-1c-2 1-4 2-5 5v6l4 9 6 9 12 9c6 2 15 0 20 0 6 1 16 2 21-2l10-9 6-7 2-4 1-5v-4Zm-30-48-2 2-1 2-3-1v-2l1-5 2-3 1-1 1-2v-4l-1-6-5-7-3-1h-4c-1-1-3 0-5 2-3 2-4 5-4 7v6l-1 1 1 3 1 2 2 1 1 2 2 6v1h-3l-1-2-4-4-3-4-2-8-2-6 3-5 8-9 7-8 2-1v-2l1 1 1 1 1 1a101 101 0 0 1 15 18l3 4-2 7-2 7-3 4-2 3Z"/>
  <path fill="#9020E8" d="M147 164v-2c-1-1-3 1-3 1l-5 1-3 1-6-3-4-2-1-7-1-7-1-11c-1-2-3-4-5-4s-1-3-1-4l-1-7-4-8c0-1-1-7-4-9H98c-3 2-5 8-5 9l-3 8-2 7c1 1 1 4-1 4l-5 4-1 11c1 1-1 5-1 7l-1 7-3 2-7 3-2-1-5-1c-1 0-2-2-3-1l-1 2v5l4 3h5l-1 1-1 6c1 3 8 7 10 8l7 3-4 2c-1 1 1 4 2 5 0 0-1 2 1 2l8-2h9l5-2 4 2h9l8 2c2 0 2-2 2-2l2-5-4-2 7-3c2-1 8-5 9-8v-6l-2-1h5l5-3-1-5Zm-56 1c0 3-1 2-2 5s-1 5-2 4l-5-3-6-2 5-1c1 0 4-2 4-4l1-5 2-7 1-3 1 5c0 2 2 7 1 11Zm33 6-6 3-1-4-3-5 2-11 1-5 1 3 1 7 2 5c0 2 3 4 4 4l5 1-6 2Z"/>
  <path fill="#9020E8" d="M330 154c-7 0-15-2-22-7l-12 2c-14 0-23-4-30-10-6-6-9-14-9-24 0-7 1-14 4-21-3-6-4-11-4-17 0-15 8-28 24-39 5-12 13-20 22-27 9-5 18-8 28-8 13 0 22 5 26 17l2 9c15 9 22 21 22 39 0 16-6 32-17 46v4c0 7-2 13-4 19a33 33 0 0 1-30 17ZM286 35c14-8 29-12 46-12 9 0 17 2 25 6l-2-9c-3-10-12-15-24-15-9 0-17 2-24 7-9 6-16 13-21 23Zm17 105a92 92 0 0 0 56-35c-2-6-6-11-11-15-6-5-11-7-17-7-7 0-13 4-17 11v1c-2 0-2-1-2-2 5-8 11-12 19-12 6 0 11 2 17 6 6 5 10 10 13 15 8-12 12-24 12-38 0-13-5-23-15-30-1 5-4 10-8 14s-9 6-14 6l-1-1 1-1c5 0 9-2 13-6s6-8 7-13c-7-5-15-7-24-7-20 0-37 6-50 18a69 69 0 0 0-4 20c16-18 32-27 50-27l3 1c0 1-1 2-4 2-7 0-16 3-25 10a93 93 0 0 0-25 24l1 8c2 24 10 43 25 58Zm-40-52c3-6 6-13 11-19 0-7 1-13 3-20-4 5-7 9-9 14a47 47 0 0 0-5 25Zm32 52h4a90 90 0 0 1-25-61c-8 12-12 24-12 34 0 9 3 16 8 21 6 5 14 7 25 6Zm36 12 9-1c7-3 13-7 17-14 3-6 5-13 4-20a91 91 0 0 1-48 30c6 4 12 5 18 5Zm43 63-11-1c-11-4-25-13-42-27-19-17-32-27-39-31-3-2-7-2-10-2s-6 0-9 2c-4 3-7 8-7 14 0 10 6 16 16 18l3 2-2 1h-3c-12-5-18-11-18-21 0-5 2-9 6-13s10-6 16-6l11 2 13 6 15 11 27 23c12 8 23 13 34 16l8 1c7 0 12-2 15-7l2-1h1l-1 2c-5 7-14 11-25 11Zm16-73c-6-1-9-5-9-13 0-12 6-26 18-44 0-1 2-2 6-2 5 0 7 1 7 3a66 66 0 0 0-13 19c-4 6-7 13-9 19l-1 8c0 3 1 5 3 5s5-2 9-6a510 510 0 0 0 25-31l1 4v8c0 17 3 25 10 25 4 0 9-3 14-9l5-4 1 1c0 2-3 5-8 9-6 5-12 8-17 8l-5-1c-4-1-7-7-8-15l-2-12-9 14c-8 10-14 15-18 14Z"/>
  <path fill="#9020E8" d="M468 77h-4l-2-2 1-1c5-4 10-7 13-7l2 1-3 5-5 4h-2Zm-11 64c-5 0-8-5-8-14v-3l1-3a147 147 0 0 1 4-18l3-14c1-1 2-2 5-2 4 0 6 1 6 3l-2 7c-1 3-3 5-4 5l-4 21v5c0 5 1 7 4 7 1 0 4-1 7-4l15-12h1l1 1c-3 5-8 9-16 15-5 4-9 6-13 6Z"/>
  <path fill="#9020E8" d="M440 226c-14 0-22-6-26-18l-2-8c0-9 5-18 15-25 14-9 42-20 84-30l5-22 4-22c-6 12-13 22-20 31l-4 6-5 3c-1 0-2 0-2-2l1-3 3-24c0-7-2-11-5-11l-5 2-2 1-1-1 2-3c4-3 8-5 11-5l4 1c3 2 5 7 5 15l-2 14a590 590 0 0 0 28-36c2 0 3 1 3 2l-4 26-8 26c5-1 8-3 8-6l2-3 1 2c0 5-4 9-13 11a150 150 0 0 1-48 69c-9 6-19 10-29 10Zm1-7c18 0 33-8 45-24 5-7 13-22 24-47a293 293 0 0 0-81 34c-9 6-14 12-14 19l1 4c3 9 11 14 25 14Zm114-75c-3 0-7-2-9-6-3-3-4-8-4-14l2-14c6-18 13-27 22-28l4-2c3 0 6 2 9 5 4 2 5 6 6 9 2 2 5 4 9 4l6-1h5l1 1-3 2-10 3h-3l-6-1c1 6-2 14-9 26-6 10-12 16-20 16Zm2-5c4 0 9-4 13-11a56 56 0 0 0 7-16c2-5 2-9 2-12-6-1-9-4-10-10-5 1-9 7-13 17-3 9-5 16-5 22 0 7 2 10 6 10Z"/>
  <path fill="#9020E8" d="M607 145c-8 0-12-5-12-16l1-11c2-8 6-15 11-23 6-10 13-15 19-15 3 0 6 1 8 4 2 1 3 4 3 6v2h-1l-1-1c-1-2-3-3-6-3-4 0-9 4-14 12a76 76 0 0 0-12 31c0 7 3 10 7 10 9 0 19-6 30-19h1l-1 3c-4 5-8 9-15 13-7 5-13 7-18 7Zm46-3c-6-1-8-4-8-11 0-10 4-20 13-32 10-13 19-19 29-19l9 2c3 2 4 4 4 7 0 4-1 6-4 7l1-5c0-4-2-5-6-5-3 0-8 1-12 5a93 93 0 0 0-24 33l-3 10c0 2 1 3 2 3 2 0 5-2 9-6 3-2 8-10 18-23l5-5c2 0 2 3 2 10v14c2 7 4 10 8 10l7-2c2-1 5-3 8-7l4-4 2 1c-1 2-3 5-8 9-7 5-12 8-18 8l-4-1c-4-1-7-6-8-13l-1-6v-5l-9 12c-7 9-12 14-16 13Z"/>
</svg>