<svg version="1.2" xmlns="http://www.w3.org/2000/svg" viewBox="0 0 533 533" width="533" height="533"><style>.a{fill:#aaa9d4}.b{fill:#ffc593}.c{fill:#3a2c24}.d{fill:#4c3f38}.e{fill:#f29554}.f{fill:#f29655}.g{fill:#3f312a}.h{fill:#3f3129}</style><path class="a" d="m268 531c-145.4 0-263-117.6-263-263 0-145.4 117.6-263 263-263 145.4 0 263 117.6 263 263 0 145.4-117.6 263-263 263z"/><path fill-rule="evenodd" class="b" d="m399.6 238.6c8.8 1.9 14.6 7.6 19.2 14.7 10 15.3 9.4 34.7-0.7 49.5-4.9 7.3-12.2 10.9-20.8 11.2-3.6 0.1-4.7 1.4-5.4 4.7-3.4 15.1-8.9 29.5-17 42.8-10.8 17.9-25.8 31.3-45 41.2-7.7 2.9-14.8 5.6-21.9 8.3 0 0-0.1-0.1-0.4-0.1-0.8 0.1-1.2 0.1-1.9 0.2-0.5 0.3-0.7 0.6-1.3 0.9-9 1.1-17.7 3.2-26.4 3.2-13.1 0.1-26.3-0.9-39.4-2-6.5-0.5-13-2.1-19.7-3.5-7.8-2.6-15.2-5-22.7-7.4-6.3-3.7-12.6-7.2-18.8-11-20-12.5-33.6-30.2-42.3-51.8-3.1-7.8-5.1-16.1-7.9-24.8-0.3-1.8-0.3-3-0.5-4.1-1.2-10.7-3.4-21.3-3.5-31.9 0-13.7 1.8-27.3 2.8-41 0.2-0.5 0.3-1.1 1-1.4 1 2.2 1.5 4.2 2.3 7.6 1.2-5.2 1.7-9 2.8-12.7 7.9-27.1 21.3-38.8 48.8-39.1 14.7-0.2 28.7 3.9 42.6 8.4 13.1 4.3 26.4 7.4 40.4 6.6 15.3-0.9 29.8-5.1 44.3-9.8 12-3.9 24.3-6.9 37.1-4.9 17.6 2.7 30.2 13.4 40.4 27.2 4.8 6.6 8.8 13.9 13.1 20.8q0.4-0.9 0.8-1.8zm-107.4 130.1c2.2-5.1 5-10 6.6-15.2 1.1-3.6-1.2-6.6-5-7.3-3.6-0.7-6.2 0.8-7.5 4.2-1.1 2.6-1.6 5.6-3.2 7.8-6.2 9.1-15.5 11.4-25.7 9.7-8.7-1.5-15.2-6.1-17.7-15.2-1.4-5.2-5-7.5-8.9-6.5-4.1 1.1-5.5 4.6-4.2 10.1 1.7 7.1 5.6 12.5 11.2 17.1 16.3 13.2 41 10.4 54.4-4.7zm-45.1-64.2c-1.3 1.7-2.8 3.3-3.8 5.1-4.4 8.2-0.3 23.1 12 21.5 5.3-0.7 10.7-0.1 16-0.1 7.4 0 10.8-3.8 12.3-13.3 0.9-5.2-3.6-14.1-8.4-14.3-9.1-0.5-18.3 0.4-28.1 1.1zm-39.3-14.5q0.2-1 0.5-1.9c1.6-6.7-1.3-13.4-7.2-16.3-6.4-3.3-13.6-2.1-18 3-4 4.7-5 10-2.6 15.7 2.3 5.6 6.8 8.4 12.7 8.7 6.5 0.4 11.4-2.5 14.6-9.2zm127.3 8.9c0.9-0.4 1.9-0.7 2.7-1.2 5.4-2.9 8.9-9.3 8-14.8-1-6.3-5.6-11.5-11.7-12.8-5.6-1.3-12.1 1.5-15.4 6.8-3 4.8-3.3 10-0.4 15 3.6 6.1 9.2 8.1 16.8 7z"/><path class="c" d="m399.7 238.2c-0.3 1-0.6 1.6-0.9 2.2-4.3-6.9-8.3-14.2-13.1-20.8-10.2-13.8-22.8-24.5-40.4-27.2-12.8-2-25.1 1-37.1 4.9-14.5 4.7-29 8.9-44.3 9.8-14 0.8-27.3-2.3-40.4-6.6-13.9-4.5-27.9-8.6-42.6-8.4-27.5 0.3-40.9 12-48.8 39.1-1.1 3.7-1.6 7.5-2.8 12.7-0.8-3.4-1.3-5.4-2.1-7.7-1.2-7.8-2.3-15.3-3.3-22.9-1.9-13.4 0.9-26.3 4.4-39.2 6.7-24.6 23.4-41.6 43-56.4 20-15.1 43.1-23.7 66.1-32.7 20.4-8.1 40.9-16.1 61.2-24.5 10.3-4.3 14.9-3.3 24.2 4.7 29.5 25.3 50.8 56.5 67.1 91.5 10.2 21.8 13.5 44.5 11.4 68.2-0.4 4.3-1 8.6-1.6 13.3z"/><path class="d" d="m307.9 410.9c7.2-2.6 14.3-5.3 21.8-8 11.2 2.7 22 5.3 33.1 8.1-1.7 9.3-3.5 18.3-5.1 27.4-0.2 0.8 0.2 1.8 0.1 3.2-0.7 1.5-1.5 2.4-1.7 3.5-2.6 13.9-5 27.9-7.6 41.8-2.1 11.7-4.3 23.4-6.4 35.1 0.1 0 0 0.3-0.4 0.3-4.2 1.2-8 2.4-11.9 3.6-8 1.4-16 2.8-24.4 3.7-0.4-6-0.3-11.5-0.4-16.9-0.1-3.6-0.6-7.1-1-10.7 0-0.2 0-0.4 0-1 0-0.5 0-0.9 0-0.9 0-4.4 0-8.8-0.1-14.1 0.2-9 0.3-17 0.6-24.8 0.5 0.5 0.7 0.7 1 0.9 0 0 0.3-0.1 0.3-0.2q-0.4-9-0.9-17.9c0-4-0.1-8 0-12.7 0.1-1 0.2-1.2 0.5-1.6 0.4-6.4 0.5-12.5 0.6-18.6 0.4-0.1 0.8-0.1 1.7-0.1 0.4 0.3 0.5 0.3 0.6 0.4q-0.2-0.2-0.4-0.5z"/><path class="d" d="m195.9 402.5c7.8 2.2 15.2 4.6 22.9 7.7 0.2 2.1 0.1 3.5-0.2 5.2-0.1 4.7 0.1 9.1 0.3 13.9 0.2 0.7 0.2 1.2 0.2 1.6 0.1 7.4 0.1 14.8-0.1 22.7-0.4 1-0.5 1.3-0.5 1.7q0.3-0.2 0.7-0.5c0 0 0.4 0.1 0.5 0.7 0.1 11.9 0.2 23.2-0.1 34.5-0.5 0.2-0.7 0.3-1 0.5 0.4 0.2 0.9 0.3 1.3 0.9 0.1 1.1 0 1.9-0.3 2.6-0.5 0.2-0.7 0.3-1 0.5 0.4 0.2 0.9 0.3 1.3 0.8 0.2 0.8 0.2 1.2 0.3 1.6 0 8.7 0 17.4-0.3 26.8-0.6 1.9-0.7 3.1-1.3 4.3-3.8-0.6-7.2-1.2-11-2-5.1-1.3-9.8-2.6-14.9-4-4.2-1.5-7.9-2.9-11.7-4.6-3.4-18.8-6.7-37.1-10.2-55.4-1.3-6.8-3.2-13.4-4.9-20-0.8-6.2-1.5-12.3-2.5-18.4-0.6-4-1.5-8.1-2.4-12.7 11.7-2.8 23.1-5.5 34.9-8.4z"/><path class="c" d="m342 521.9c2.2-11.6 4.4-23.3 6.5-35 2.6-13.9 5-27.9 7.6-41.8 0.2-1.1 1-2 1.9-3.1 11.4 12.4 22.6 24.9 33.4 37.8 3.8 4.5 6.7 9.8 10.2 15.1 0.1 0.5 0 0.9-0.3 1-2.4 1.2-4.4 2.5-6.8 3.8-3.2 1.8-6 3.5-9.2 5.2-4.4 2-8.4 4-12.8 6-4.1 1.7-7.9 3.4-11.9 5-0.2 0-0.6 0.2-0.9 0.2-0.6 0.3-0.9 0.5-1.3 0.8-0.2-0.1-0.4 0.1-0.8 0.1-5.5 1.7-10.5 3.3-15.6 4.9z"/><path class="c" d="m165.6 442.1c2 6.5 3.9 13.1 5.2 19.9 3.5 18.3 6.8 36.6 9.9 55.4-1.1 0.1-1.9-0.1-3-0.6-2.1-0.8-3.8-1.5-5.8-2.4-3.1-1.4-6-2.5-9-3.9-5.4-2.7-10.7-5.1-15.9-7.5 0 0 0.1 0-0.1-0.3-0.8-0.4-1.3-0.6-1.9-0.7 0 0 0.1 0 0-0.2-0.3-0.5-0.6-0.6-1.1-0.6-0.5-0.3-0.6-0.3-1-0.7-3.1-1.9-6-3.5-9.1-5.2-0.1-0.2-0.5-0.2-0.5-0.3-0.1 0-0.2 0-0.3-0.4-2.5-2-4.9-3.8-7.2-5.6 6.1-7.9 12-16.1 18.5-23.8 6.7-7.9 14-15.3 21.3-23.1z"/><path class="e" d="m127.7 239.6c-0.7 13.8-2.5 27.4-2.5 41.1 0.1 10.6 2.3 21.2 3.5 31.9 0.2 1.1 0.2 2.3 0.3 3.9-11-0.4-19.5-5.4-25.6-14.5-4.7-7.3-6.9-15.4-6.8-23.8 0.1-11.4 3.2-21.8 11.6-30.2 5.4-5.4 11.6-8.2 19.5-8.4z"/><path class="f" d="m218.8 415.1c0.1-1.4 0.2-2.8 0.3-4.7 6.5 0.7 13 2.3 19.5 2.8 13.1 1.1 26.3 2.1 39.4 2 8.7 0 17.4-2.1 26.5-2.8 0.5 6.2 0.6 11.9 0.6 17.6 0 0.1-0.1 0.3-0.2 0.8-6.7 2.2-13.2 4.6-20 6-22.2 4.5-44 3-65.4-5.9-0.4-0.4-0.4-0.9-0.5-2.1-0.1-5.1-0.1-9.4-0.2-13.7z"/><path class="e" d="m292 369c-13.2 14.8-37.9 17.6-54.2 4.4-5.6-4.6-9.5-10-11.2-17.1-1.3-5.5 0.1-9 4.2-10.1 3.9-1 7.5 1.3 8.9 6.5 2.5 9.1 9 13.7 17.7 15.2 10.2 1.7 19.5-0.6 25.7-9.7 1.6-2.2 2.1-5.2 3.2-7.8 1.3-3.4 3.9-4.9 7.5-4.2 3.8 0.7 6.1 3.7 5 7.3-1.6 5.2-4.4 10.1-6.8 15.5z"/><path class="e" d="m247.5 304.3c9.4-0.5 18.6-1.4 27.7-0.9 4.8 0.2 9.3 9.1 8.4 14.3-1.5 9.5-4.9 13.3-12.3 13.3-5.3 0-10.7-0.6-16 0.1-12.3 1.6-16.4-13.3-12-21.5 1-1.8 2.5-3.4 4.2-5.3z"/><path class="g" d="m207.6 290.3c-3 6.4-7.9 9.3-14.4 8.9-5.9-0.3-10.4-3.1-12.7-8.7-2.4-5.7-1.4-11 2.6-15.7 4.4-5.1 11.6-6.3 18-3 5.9 2.9 8.8 9.6 7.2 16.3-0.2 0.6-0.3 1.2-0.7 2.2z"/><path class="h" d="m334.7 299c-7.2 1-12.8-1-16.4-7.1-2.9-5-2.6-10.2 0.4-15 3.3-5.3 9.8-8.1 15.4-6.8 6.1 1.3 10.7 6.5 11.7 12.8 0.9 5.5-2.6 11.9-8 14.8-0.8 0.5-1.8 0.8-3.1 1.3z"/></svg>