<svg xmlns="http://www.w3.org/2000/svg" fill="none" viewBox="0 0 365 274">
  <path fill="#D6B49A" stroke="#000" stroke-linejoin="round" d="M163.6 154.8a37 37 0 0 0-22-15.7c-1.1-2.9-1.4-6-1-9L143 114l-28.7 11-29.2 10 12.2 11c2.3 2 4 4.5 5 7.4a37 37 0 0 0-6.8 26.1c1.8 12 10.2 19.7 15.8 24.7 4 3.7 8.6 6.8 13.4 9.3a18.5 18.5 0 0 0 15 3l6.8-2 .2-.1h.1a70 70 0 0 0 6.5-2.9 18.5 18.5 0 0 0 9.6-11.9c2.1-5 3.6-10.2 4.4-15.6 1-7.5 2.6-18.7-3.7-29.1Z"/>
  <path fill="#020202" stroke="#000" d="M115.6 128.8c16-5.8 28.3-12.5 27.4-15-1-2.4-14.6.3-30.6 6.1s-28.2 12.5-27.3 15c.9 2.4 14.5-.3 30.5-6.1Z"/>
  <path fill="#818181" stroke="#191818" d="M146.2 220.3v12.6c0 1 1 1.7 2.2 1.7 1.3 0 2.3-.8 2.3-1.7v-12.5l-2.3-.1h-2.2Zm120.3 0v12.6c0 1 1 1.7 2.3 1.7 1.3 0 2.3-.8 2.3-1.7v-12.5l-2.3-.1h-2.3Z"/>
  <path fill="#DCDBDA" stroke="#000" d="M278.2 217.1H115.1a1.6 1.6 0 0 0-1.6 1.7 1.6 1.6 0 0 0 1.6 1.6h161.5a1.6 1.6 0 0 0 1.6-1.7v-1.6Z"/>
  <path fill="#4EA7F1" stroke="#000" d="M107 132s-6 22.5-5 32c.6 5.5.4 14.8.2 21.4a8 8 0 0 1-16-.2c0-3.3-.4-5.9 0-7.8 2-11.3-1.2-11.5.7-22l1-3.3c1.8-5.7 3.7-11.3 5.9-16.9 2.2-.2 4.7-.8 7.5-1.4 2-.5 4-1.2 5.6-1.7Zm2.7 48c-1.4 0-2.4-2-2.7-2.8-2.7-5.3 1.3-14.5 2.9-17.8 1.5 3.4 5.2 12.6 2.5 17.8-.4.8-1.3 2.8-2.7 2.8Z"/>
  <path fill="#F8F3ED" stroke="#000" d="M292 156.3a51.2 51.2 0 0 0-40.8-10.8c-29 4.6-52.6 15.2-56.2 28.7a78 78 0 0 0-1.7 8.4c-7.2-1.2-19.3-1.8-26.3 5.8a3.6 3.6 0 0 0 2.3 6l6.3.5c5 .3 15.5 8 22.2 13 4.1 4.8 10 7.7 16.2 8.1h.1a23.7 23.7 0 0 0 23.7 1.5l24.4-.4a64 64 0 0 0 26 2.3c7.9-1 10.9-3 12.2-4 4.6-3.9 6.3-9.8 7.5-15.8a47.6 47.6 0 0 0-16-43.3Z"/>
  <path fill="#F8F3ED" d="M193 182.4a59.9 59.9 0 0 1-1.9-36.2 52.7 52.7 0 0 1-4.9-26.5 2.6 2.6 0 0 1 2.7-2.4c.5 0 1 .2 1.3.4l20.1 12.5c7.5-2 15.4-2.2 23-.6l18.3-15a2 2 0 0 1 3.4 1.4 70 70 0 0 1-2.6 30.8c1.4 4.3 1.8 8.8 1.1 13.3"/>
  <path stroke="#000" d="M193 182.4a59.9 59.9 0 0 1-1.9-36.2 52.7 52.7 0 0 1-4.9-26.5 2.6 2.6 0 0 1 2.7-2.4c.5 0 1 .2 1.3.4l20.1 12.5c7.5-2 15.4-2.2 23-.6l18.3-15a2 2 0 0 1 3.4 1.4 70 70 0 0 1-2.6 30.8c1.4 4.3 1.8 8.8 1.1 13.3"/>
  <path fill="#4EA7F1" stroke="#000" d="M88.9 209.4s-1.3 0-2.5-1.2c-1-.9-.2-5 2.7-9.6 2.4 4.7 3 8.7 2.1 9.6a4 4 0 0 1-2.3 1.2Z"/>
  <path fill="#333" stroke="#191818" d="M308.5 191.9c3.4 1.5 6.3 3.9 8.3 7 5.5 9 1.4 22.2-6.3 29.1-5.6 5-12 5.8-17.2 6.5-3 .4-16.7 2-26.2-6.5-2-1.7-6.4-5.8-5.7-10.8.3-2.6 2-6 5-7 5.8-1.9 9.2 7.6 20 8.8 1.6.1 8.3.7 13.4-3.5 1.7-1.4 3-3 4-4.9 1.8-3 4.7-9.1 4.7-18.7Z"/>
  <path stroke="#191818" stroke-linejoin="round" d="M237.8 217.4s10.5-4.8 13-14.3"/>
  <path fill="#333" stroke="#191818" d="m233.3 129.6 18.3-15a2 2 0 0 1 3.4 1.4c.5 3.4.6 6.9.6 12.3s-1.9 10.4-3.1 18.5a43.4 43.4 0 0 0-19.2-17.2Z"/>
  <path stroke="#191818" stroke-linejoin="round" d="M214.7 216.2a3.8 3.8 0 0 1-1.4-2.7c0-.8.3-1.6.9-2.3 1.9-2.2 5.2-1.3 9-2.3 2.7-.7 5.1-2.2 7-4.2"/>
  <path fill="#333" stroke="#191818" d="M221.4 169.8c12.8 0 23.3-8 23.3-17.8s-10.5-17.8-23.3-17.8c-13 0-23.4 8-23.4 17.8s10.5 17.8 23.4 17.8Z"/>
  <path fill="#F8F59C" stroke="#191818" d="M206.5 155.6a4.8 4.8 0 1 0 0-9.5 4.8 4.8 0 0 0 0 9.5Z"/>
  <path fill="#F3D2C9" stroke="#000" d="M254.9 116s-10.7 14.5-11.7 17.9c-.8 2.5 2.8 1.2 4.7.5a.4.4 0 0 1 .5.6l-1.2 2.6a1 1 0 0 0 .6 1.4h.6l1.5-.6h.2a.4.4 0 0 1 .3.4v.2l-.5 2.6 2.6 5.2a71 71 0 0 0 2.4-30.7Z"/>
  <path fill="#333" stroke="#191818" d="M210.2 130.2 190 117.5c-1.3-.8-3.6.3-3.6 2 0 3.4-.6 7.2.5 12.6a47.8 47.8 0 0 0 4.4 14 30.3 30.3 0 0 1 12.5-13c2-1.2 4.3-2.1 6.5-2.9Z"/>
  <path fill="#F3D2C9" stroke="#000" stroke-linejoin="round" d="M186.3 119.1s11.5 10 13 12.7c0 .1.4.8.1 1.2-.5.6-2.7-1-3.6-.2a1 1 0 0 0-.3.3 1.2 1.2 0 0 0 .1 1.3c.4.5.8 1.2.8 1.8l-.2.6c-.3.3-.9.4-1 .4-1 0-1.5-1-1.6-1a.7.7 0 0 0-.9 0l-.1.3v.7c.4.7 0 2.9-.2 3.8-.3 1.5-.9 2.9-1.7 4.1a51.7 51.7 0 0 1-4.4-26Z"/>
  <path fill="#000" stroke="#191818" d="M206.5 154.3a3.4 3.4 0 1 0 0-6.9 3.4 3.4 0 0 0 0 6.9Z"/>
  <path fill="#F8F59C" stroke="#191818" d="M237.3 155.6a4.8 4.8 0 1 0 0-9.5 4.8 4.8 0 0 0 0 9.5Z"/>
  <path fill="#000" stroke="#191818" d="M237.3 154.3a3.4 3.4 0 1 0 0-6.9 3.4 3.4 0 0 0 0 6.9Z"/>
  <path fill="#F3D2C9" stroke="#000" d="m220.3 151.8 1.5.2 1.5-.2h.1l.2.1a.3.3 0 0 1 0 .4l-1.4 2.2a.5.5 0 0 1-.4.2h-.2l-.2-.2-1.5-2.2v-.2a.3.3 0 0 1 .2-.3h.2Z"/>
  <path stroke="#000" stroke-linejoin="round" d="M221.7 154.7s.4 2.6-2.6 2.3"/>
  <path stroke="#000" stroke-linejoin="round" d="M221.8 154.8s-.4 2.7 2.7 2.4"/>
  <path fill="#000" fill-rule="evenodd" d="m264.7 150.1-10.7 3.3-.6-2 10.7-3.2.6 2Zm-84.7-.4 10.1 1.6-.3 2-10.1-1.6.3-2Zm84 7.7-10.1-1.6.3-2 10.1 1.6-.3 2Zm-83.9-1.5 9.3-2 .4 1.9-9.2 2-.5-2Z" clip-rule="evenodd"/>
  <path fill="#8BB174" stroke="#000" d="M75.9 61.5c6.8 3.1 14.5 10 23.7 19 14.1 13.6 23 35.6 25.8 44-1 .4-4.7-6.6-5.5-6.1a94.5 94.5 0 0 0-21.2-34 106.9 106.9 0 0 0-26.2-21.6l3.4-1.3Zm37.7 68A199.6 199.6 0 0 0 81 106a104.6 104.6 0 0 0-33.7-7.6l2.5-2.6a97 97 0 0 1 30.4 6.3 169 169 0 0 1 36.7 26l-3.3 1.2Z"/>
  <path fill="#8BB174" stroke="#000" d="M125.5 124.7c-2.7-3.6-9-14.8-12.8-18.4A91 91 0 0 0 87.3 89L84 90.3a96.8 96.8 0 0 1 27.9 20c2.7 2.8 8.3 13 10.4 15.8l3.3-1.4Z"/>
  <path fill="#333" stroke="#191818" d="m225.5 208.2 5.2 11.5c-2.6.3-5.2.3-7.8-.1 0 0-4.5-.5-7.4-2.8-2-1.5-2.2-2.6-2.2-3a3.7 3.7 0 0 1 1.3-2.8v-.1a8 8 0 0 1 4-1.4c1.6 0 3.7-.5 6.9-1.3Z"/>
  <path fill="#333" stroke="#191818" stroke-linejoin="round" d="m178.8 195.6 4.6-13.6a22.9 22.9 0 0 0-15 5.2s-2.2 2-2.3 3.7v.2a3.7 3.7 0 0 0 1.5 2.7l.2.1c1.2 1 2.8.8 5.1.9l2.7.1 3.2.7Z"/>
  <path fill="#DA4E22" stroke="#000" d="m44.5 52.4-4.2-2.3a6.1 6.1 0 0 1-3.2-6l.4-3.4a9.4 9.4 0 0 1 4-6.8 4.5 4.5 0 0 1 4.5-.3l1.3.5c5 1.7 9.4 4.6 13.2 8.3l-6.6 12-9.4-2Z"/>
  <path fill="#DA4E22" stroke="#000" d="M48.6 48.4h-.1a6.3 6.3 0 0 0-5.7 4.9l-.4 1.8a8.2 8.2 0 0 0 5 9.4l12.7 4.8L62 55.6l-8.7-6c-1.4-.9-3-1.3-4.7-1.2ZM70.9 40l-5-6.5a8.2 8.2 0 0 0-8.1-3l-1.6.3a4.8 4.8 0 0 0-3 7.4l4 5.8 13 4.7.7-8.7Z"/>
  <path fill="#F8F59C" stroke="#191818" d="M60.3 61a10 10 0 1 0 0-19.9 10 10 0 0 0 0 19.8Z"/>
  <path fill="#DA4E22" stroke="#000" d="m62.5 40-.4 3.7a5.2 5.2 0 0 0 1 4l6.6 8.4 3.9 10.1c.8-1.3 1.5-2.8 2-4.3 0 0 1.5-4.1 1.4-8.7a28.2 28.2 0 0 0-7.4-16.6c-.5-.5-1-.9-1.7-1-1.3-.4-2.3.3-2.9.7a6 6 0 0 0-2.5 3.7Z"/>
  <path fill="#DA4E22" stroke="#000" d="m59.9 69.3-7.5-3.5a6.5 6.5 0 0 1-3.2-8.5l1.5-3.5a8.5 8.5 0 0 1 10.7-4.6l9 3.3a8.3 8.3 0 0 1 5.4 9 11 11 0 0 1-2.6 5.2 11.8 11.8 0 0 1-9.3 3.4 11 11 0 0 1-4-.8ZM33.6 82l-.6-2.2a6 6 0 0 1 3-7 6.8 6.8 0 0 1 7.2.5c2 .7 10.6 3.8 15 12.9 1.6 3.2 2.5 6.6 2.5 10.2a1.3 1.3 0 0 1-1.9 1L33.6 82Zm-7.1 21 2.6 2 2.5 1.4c1 .5 2.2.9 3.3 1.2 2.4.7 8.3 2.4 15 0 5-1.9 8.2-5.3 9.8-7.6a1 1 0 0 0-.8-1.7l-28.6-3.2a5 5 0 0 0-5 2.7 4.2 4.2 0 0 0 1.2 5.2Z"/>
  <path fill="#DA4E22" stroke="#000" d="M24.4 87.7a9.7 9.7 0 0 0 5 6.4l8.8 4.5a40.4 40.4 0 0 0 9.3 2.4c4.2.5 8.8-.8 11.4-1.7a2 2 0 0 0 1.2-2.6 20 20 0 0 0-5.1-8 48 48 0 0 0-12.1-6.9l-7.5-2a9.3 9.3 0 0 0-7.3.9l-.8.4a6 6 0 0 0-2.9 6.6Zm55.7-12a1.5 1.5 0 0 0-1.5 1.9c.6 3.6 2.1 11.6 4.3 13.6 2.8 2.6 7.3 17.7 20 14.5 8.6-2.2 5.9-11.2 3.4-16.6-1.4-3-3.6-5.6-6.4-7.5a39.7 39.7 0 0 0-19.8-5.8Z"/>
  <path fill="#8BB174" stroke="#000" d="M130.7 122.5c.4-.2-4.1-44.5-17-61.5C101 44 98 41.2 98 41.2s-.3 13 5.2 22c5.5 9.2 11.9 24.4 13.7 27.8 1.8 3.3 8.5 33.9 8.5 33.9l5.4-2.4Z"/>
</svg>
