<svg xmlns="http://www.w3.org/2000/svg">
  <defs>
    <pattern id="a" width="79.51" height="40" patternTransform="scale(8)" patternUnits="userSpaceOnUse">
      <rect width="100%" height="100%" fill="hsla(304, 90%, 40%, 1)"/>
      <path fill="hsl(263, 50%, 90%, 1)" stroke-width="2" d="M0 0v.69a19.18 19.18 0 0 1 14.74 6.85 41.2 41.2 0 0 0-1.87 1.55c.18-.16.36-.33.55-.48A17.56 17.56 0 0 0 0 2.39v1.63c4.88 0 9.24 2.2 12.18 5.66l.46-.4a41.24 41.24 0 0 0-6.76 7.67l.61-.9A7.59 7.59 0 0 0 0 12.4v1.64a5.96 5.96 0 0 1 5.44 3.55l.34-.5a41.06 41.06 0 0 0-1.37 2.17l.7.08a41.1 41.1 0 0 0-1.85-.18l.9.07A4.24 4.24 0 0 0 0 15.73v1.65c1.13 0 2.1.71 2.46 1.72h.07A41.48 41.48 0 0 0 0 19.02v1.64a39.1 39.1 0 0 1 15.31 3.09 39.21 39.21 0 0 1 12.51 8.43 39.37 39.37 0 0 1 5.76 7.3 41.04 41.04 0 0 1 1.76-.22 41.06 41.06 0 0 0-1.37-2.17l.34.5a5.96 5.96 0 0 1 10.88 0l.35-.5c-.48.7-.94 1.43-1.37 2.17.59.06 1.18.13 1.76.22a39.37 39.37 0 0 1 5.76-7.3A39.22 39.22 0 0 1 79.5 20.66v-1.64c-.9 0-1.78.03-2.65.09l.2-.02a2.62 2.62 0 0 1 2.45-1.71v-1.64a4.23 4.23 0 0 0-4.15 3.49c.34-.04.69-.06 1.04-.09-.67.05-1.34.12-2 .2l.7-.08a41.06 41.06 0 0 0-1.37-2.17l.34.5a5.96 5.96 0 0 1 5.44-3.55V12.4a7.59 7.59 0 0 0-6.5 3.66c.22.3.42.6.62.9a41.24 41.24 0 0 0-6.77-7.68l.47.4A15.94 15.94 0 0 1 79.5 4.02V2.4a17.57 17.57 0 0 0-13.41 6.2l.55.49a41.2 41.2 0 0 0-1.87-1.55c.34-.4.7-.81 1.08-1.2A19.19 19.19 0 0 1 79.51.7V0h-6.17a20.97 20.97 0 0 0-9.9 6.56l1.01.75a40.98 40.98 0 0 0-6.1-3.83l.78.4a26.4 26.4 0 0 1 2-2.26A26.46 26.46 0 0 1 62.92 0h-2.4c-1.03.97-2.01 2-2.88 3.12l.29.15a40.77 40.77 0 0 0-2-.93l.12.05A30.04 30.04 0 0 1 58.08 0h-2.15c-.49.58-1 1.14-1.44 1.76l.6.24c-.75-.3-1.5-.58-2.27-.84.29-.4.6-.77.9-1.16h-2.07l-.47.64c.55.16 1.08.33 1.61.5A40.64 40.64 0 0 0 48.66 0l.79.18.13-.18H29.93l.13.18.77-.17c-1.4.3-2.76.68-4.1 1.13a40.59 40.59 0 0 1 1.6-.5L27.84 0H25.8c.3.39.61.76.9 1.16-.77.25-1.52.54-2.26.84l.59-.24c-.45-.62-.95-1.18-1.45-1.76h-2.14a30.04 30.04 0 0 1 2.03 2.4l.12-.06c-.67.3-1.34.6-2 .92l.29-.14A28.05 28.05 0 0 0 19 0h-2.41a26.45 26.45 0 0 1 1.79 1.62 26.4 26.4 0 0 1 2 2.26l.77-.4a40.98 40.98 0 0 0-6.1 3.83l1.02-.75A20.97 20.97 0 0 0 6.17 0Zm10.66 0a22.73 22.73 0 0 1 6.83 5.6c.46-.3.92-.59 1.4-.87A24.49 24.49 0 0 0 13.71 0Zm55.13 0a24.44 24.44 0 0 0-5.16 4.73c.47.28.93.57 1.4.87A22.73 22.73 0 0 1 68.84 0ZM39.75.66a39.1 39.1 0 0 1 15.32 3.09 39.21 39.21 0 0 1 12.5 8.43 39.37 39.37 0 0 1 5.76 7.3l.35-.04c-.74.1-1.48.23-2.21.37h.04A37.6 37.6 0 0 0 8 19.8h.05a40.79 40.79 0 0 0-2.22-.37l.36.04a39.37 39.37 0 0 1 5.75-7.3A39.22 39.22 0 0 1 39.75.66zm0 3.33a35.89 35.89 0 0 1 25.46 10.55 36.1 36.1 0 0 1 4.6 5.64l.8-.18a40.65 40.65 0 0 0-4.17 1.16c-.77.26-1.53.54-2.27.84l.6-.24A30.92 30.92 0 0 0 39.75 9.03a30.92 30.92 0 0 0-25.02 12.73l.62.25a40.62 40.62 0 0 0-6.44-2c.26.05.52.1.78.17a36.1 36.1 0 0 1 4.6-5.64A35.89 35.89 0 0 1 39.75 3.99zm26.69 17.17c.54-.18 1.09-.36 1.64-.52C61.9 11.62 51.52 5.7 39.75 5.7s-22.14 5.93-28.32 14.95c.55.16 1.1.34 1.64.52a32.84 32.84 0 0 1 3.58-4.26 32.56 32.56 0 0 1 23.1-9.57 32.56 32.56 0 0 1 23.1 9.57 32.84 32.84 0 0 1 3.59 4.26zM79.5 5.72c-4.4 0-8.34 2-10.95 5.13.39.38.77.78 1.15 1.18a12.61 12.61 0 0 1 9.8-4.67zM0 5.72v1.64c3.95 0 7.48 1.83 9.8 4.67.38-.4.76-.8 1.15-1.18A14.24 14.24 0 0 0 0 5.72Zm0 3.34v1.64a9.29 9.29 0 0 1 7.57 3.92c.35-.44.71-.87 1.08-1.3A10.9 10.9 0 0 0 0 9.06Zm79.5 0a10.9 10.9 0 0 0-8.64 4.26c.37.42.73.86 1.07 1.3a9.29 9.29 0 0 1 7.58-3.92zm-39.75 1.61a29.1 29.1 0 0 1 20.74 8.6 29.75 29.75 0 0 1 2.72 3.12l.13-.05c-.68.3-1.35.6-2 .93l.28-.15a27.58 27.58 0 0 0-21.87-10.75c-8.9 0-16.8 4.21-21.86 10.75l.29.15a40.77 40.77 0 0 0-2.01-.93l.13.05a29.75 29.75 0 0 1 2.7-3.13 29.14 29.14 0 0 1 20.74-8.59zm0 3.34a25.8 25.8 0 0 1 18.38 7.61 26.4 26.4 0 0 1 2 2.26l.8-.4a40.98 40.98 0 0 0-6.14 3.85 41 41 0 0 1 1.03-.77 20.9 20.9 0 0 0-32.14 0c.35.25.7.5 1.04.77a40.98 40.98 0 0 0-6.13-3.85l.78.4a26.4 26.4 0 0 1 2-2.26 25.82 25.82 0 0 1 18.38-7.61zm0 1.7a24.24 24.24 0 0 0-18.88 9.02c.47.28.94.57 1.4.87.46-.56.95-1.1 1.47-1.62a22.5 22.5 0 0 1 16.01-6.63 22.5 22.5 0 0 1 17.5 8.25c.45-.3.91-.59 1.39-.87a24.24 24.24 0 0 0-18.89-9.02zm0 4.97a19.19 19.19 0 0 1 14.75 6.86 41.2 41.2 0 0 0-1.9 1.56l.57-.5a17.56 17.56 0 0 0-26.83 0l.62.55a41.2 41.2 0 0 0-1.95-1.61c.35-.41.7-.81 1.09-1.2a19.19 19.19 0 0 1 13.65-5.65zM0 22.37V24a35.89 35.89 0 0 1 29.93 16h.94l.29-.06c-.09.01-.17.04-.25.06H48.6c-.08-.02-.16-.05-.25-.06l.29.06h.94A35.89 35.89 0 0 1 79.5 24v-1.65A37.6 37.6 0 0 0 47.75 39.8l.1.02a40.89 40.89 0 0 0-3.95-.6 4.23 4.23 0 0 0-8.3 0 40.89 40.89 0 0 0-3.94.6l.1-.02A37.61 37.61 0 0 0 0 22.35Zm39.75 1.66c4.88 0 9.25 2.2 12.18 5.66l.48-.41a41.24 41.24 0 0 0-6.79 7.7l.62-.91a7.59 7.59 0 0 0-6.49-3.66 7.59 7.59 0 0 0-6.49 3.66c.22.3.42.6.62.9a41.24 41.24 0 0 0-6.81-7.72l.5.44a15.94 15.94 0 0 1 12.18-5.66zM0 25.7v1.91c.23 0 .47-.01.7-.03.01-.07.04-.13.06-.2 4.14.1 8.16.92 11.96 2.53a32.56 32.56 0 0 1 10.38 7c.97.98 1.85 2.02 2.69 3.1h2.06A34.24 34.24 0 0 0 0 25.7Zm79.5 0A34.25 34.25 0 0 0 51.66 40h2.07a32.43 32.43 0 0 1 2.69-3.1 32.54 32.54 0 0 1 22.34-9.53l.06.2c.23.02.46.03.7.03zm-39.75.03c-4.4 0-8.33 2-10.95 5.13.4.38.78.78 1.15 1.18a12.62 12.62 0 0 1 19.6 0c.38-.4.76-.8 1.16-1.18a14.24 14.24 0 0 0-10.96-5.13zM0 29.03v1.64c7.83 0 15.2 3.05 20.74 8.59.24.24.46.5.69.74h2.15A30.85 30.85 0 0 0 0 29.03Zm79.5 0A30.84 30.84 0 0 0 55.93 40h2.15c.23-.25.45-.5.69-.74a29.14 29.14 0 0 1 20.74-8.6zm-39.75.03a10.9 10.9 0 0 0-8.64 4.26c.36.42.72.86 1.07 1.3a9.28 9.28 0 0 1 15.15 0c.35-.44.7-.88 1.07-1.3a10.9 10.9 0 0 0-8.65-4.26ZM0 32.37v1.64c6.13 0 11.94 2.12 16.59 6h2.4A27.47 27.47 0 0 0 0 32.36Zm79.5 0A27.48 27.48 0 0 0 60.52 40h2.4a25.8 25.8 0 0 1 16.6-5.99ZM0 35.71v1.64c3.78 0 7.42.92 10.66 2.65h3.06A24.1 24.1 0 0 0 0 35.7Zm79.5 0c-5.1 0-9.8 1.6-13.71 4.3h3.06a22.54 22.54 0 0 1 10.66-2.66V35.7zm-39.75 1.67c1.15 0 2.11.74 2.47 1.76-.82-.05-1.63-.12-2.47-.12-.83 0-1.64.07-2.46.12a2.62 2.62 0 0 1 2.46-1.76zM0 39.04V40h6.17A20.85 20.85 0 0 0 0 39.05Zm79.5 0a21 21 0 0 0-6.16.96h6.17z"/>
    </pattern>
  </defs>
  <rect width="800%" height="800%" fill="url(#a)"/>
</svg>
