<svg xmlns="http://www.w3.org/2000/svg" fill="none" viewBox="0 0 3085 1091">
  <path fill="#fff" d="M1244 612c0 19 2 34 8 46 6 11 17 24 33 39l-46 76c-22-14-53-46-64-64s-17-42-19-71c-23 38-55 68-96 89-40 21-85 31-136 31-68 0-120-18-157-53-37-37-56-89-56-156 0-63 20-112 58-147 39-35 97-58 176-68l105-14c29-4 51-9 66-15s25-15 31-26c5-12 7-28 6-50-8-94-66-140-175-140-40 0-75 7-104 22-28 14-53 37-74 68l-62-51C781 51 861 13 978 13c86 0 152 20 197 62 46 41 69 101 69 179v358Zm-299 67c62 0 113-18 152-55 38-36 58-84 58-143V358c-11 9-24 16-39 21-16 4-37 8-64 11l-99 12c-52 7-91 23-118 48-26 25-39 57-39 97 0 88 50 132 149 132Zm895 13v80h-403c-75 0-113-33-113-97v-44l397-491h-384V60h491v77l-422 518c3 24 19 37 47 37h387Zm362 96c-85 0-151-23-198-71s-70-116-70-203V318c0-87 23-154 70-202s113-72 198-72c84 0 150 24 197 72s71 115 71 202v196c0 87-24 155-71 203s-113 71-197 71Zm0-81c56 0 100-17 131-50 31-34 47-81 47-143V318c0-62-16-109-47-143-31-33-75-50-131-50-57 0-101 17-132 50-31 34-46 81-46 143v196c0 62 15 109 46 143 31 33 75 50 132 50Zm679-663c64 0 114 21 150 65 36 42 54 101 54 177v486h-91V301c0-56-12-98-36-129-23-31-56-47-98-47-49 0-91 21-127 61-35 40-60 95-75 165v421h-91V189c0-18-3-33-9-44-6-12-16-26-33-41l60-60c28 17 46 36 56 59 11 21 17 51 17 89v14c22-53 52-93 90-120 38-28 83-42 133-42ZM54 0H0v769h90V109h1v1c5 4 11 12 18 27v1l203 428 202-429c7-14 13-22 17-26l2-2v660h90V0h-54c-30 0-55 8-76 24-19 15-37 42-53 78L312 377 183 102c-16-36-34-63-54-78C109 8 83 0 54 0Zm2381 814h30c6 0 11 2 14 5 4 3 6 7 6 12 0 4-1 8-4 10-2 3-4 5-8 6 4 1 8 3 10 6s4 7 4 12c0 6-2 10-6 14-4 3-10 5-16 5h-30v-70Zm30 30 9-3c2-2 3-5 3-9s-1-7-3-9-6-3-9-3h-23v24h23Zm-2 34c5 0 9-1 12-3 3-3 4-6 4-11 0-4-1-8-4-10-3-3-7-4-12-4h-21v28h21Zm75-41v53c0 6-1 10-4 12-3 3-7 4-13 4h-13v-5h13c7 0 11-4 11-11v-14c-4 6-9 9-17 9-5 0-9-1-11-4-3-3-5-7-5-12v-26l-3-3 5-4 4 4 1 6v22c0 4 1 7 3 9s4 3 8 3 7-2 10-4c3-3 4-6 5-11v-28h6Zm41-23h5l7 2c2 1 4 4 5 7l15 28 15-28c2-3 3-6 5-7l7-2h5v70h-7v-63l-3 1-2 3-20 38-20-38-2-3-3-1v63h-7v-70Zm85 71-4-1-1-4 1-4 4-1 3 1 2 4-2 4-3 1Zm21-71h25c7 0 13 1 17 4 5 2 8 6 10 11s3 11 3 20-1 16-3 21-5 8-10 11c-4 2-10 3-17 3h-25v-70Zm25 64c5 0 10-1 13-3s6-5 7-9c2-4 2-10 2-17s0-13-2-17c-1-4-4-7-7-9s-8-3-13-3h-18v58h18Zm81-3v3l3 3-5 4-3-3-2-5c-1 3-4 5-7 6l-10 2c-5 0-9-1-12-3-2-3-4-6-4-11 0-4 2-7 4-9 3-3 8-4 14-5l7-1 5-1 3-1v-4c-1-6-5-9-13-9l-8 1-5 5-5-3c3-5 9-8 18-8 6 0 11 1 15 4 3 3 5 7 5 12v23Zm-22 5c4 0 8-1 11-4 3-2 4-5 4-9v-8l-3 1-4 1-8 1c-4 0-7 1-9 3-2 1-2 4-2 6 0 6 3 9 11 9Zm81-40-3 3v44c0 6-2 10-5 13s-7 4-13 4h-12v-5h12c3 0 6-1 8-3s3-5 3-9v-11l-6 6-10 2c-6 0-11-2-15-6-3-4-5-10-5-17v-2c0-5 0-9 2-12 2-4 4-6 7-8 4-2 7-3 11-3l10 2 7 6v-4l4-4 5 4Zm-25 39c4 0 7-1 10-3l5-8v-16l-5-8a16 16 0 0 0-21 2c-2 3-4 8-4 13v2c0 5 2 10 4 13 3 3 7 5 11 5Zm77-4v3l3 3-4 4c-3-1-4-2-5-4l-1-6c-2 3-4 6-7 7-3 2-6 3-10 3-5 0-9-1-11-4-3-3-4-7-4-12v-32h7v31c0 4 0 7 2 9s5 3 8 3c4 0 7-2 9-4 3-3 5-6 6-11v-28h7v38Zm35 5 7-2c3 0 5-2 7-4l4 4-8 5-11 2c-6 0-11-1-15-4-3-3-5-8-5-13v-15c0-5 2-9 5-12 4-3 9-5 15-5s11 2 14 5c4 3 5 7 5 13 0 4 0 6-2 8l-7 2h-23v4c0 4 1 7 3 9s6 3 11 3Zm-1-39c-4 0-8 1-10 4-2 2-3 4-3 8v6h20l4-1 2-5c0-3-2-6-4-8-2-3-5-4-9-4Zm54-5 7 2-2 6-6-2c-4 0-7 2-9 5l-5 12v25h-7v-38l-1-3-2-3 4-4c2 1 4 2 4 4l2 6v2c1-4 3-7 6-9l9-3Zm39 0 7 2-2 6-6-2c-4 0-7 2-9 5-3 3-4 7-5 12v25h-7v-38l-1-3-2-3 4-4c2 1 4 2 4 4l2 6v2c1-4 3-7 6-9l9-3Zm33 44 8-2c2 0 4-2 6-4l4 4-8 5-10 2c-7 0-12-1-15-4-4-3-6-8-6-13v-15c0-5 2-9 6-12 3-3 8-5 14-5s11 2 14 5c4 3 6 7 6 13l-2 8-8 2h-23v4c0 4 1 7 3 9 3 2 6 3 11 3Zm-1-39c-4 0-7 1-10 4-2 2-3 4-3 8v6h20l5-1 1-5c0-3-1-6-4-8-2-3-5-4-9-4Z"/>
  <path fill="#fff" d="M1451 736v177c0 12-4 23-12 32-7 8-17 13-27 13s-20-5-27-13c-7-9-11-20-11-32v-70l-11 12a661 661 0 0 1-489 236 661 661 0 0 1-490-237 49 49 0 0 1 3-63 35 35 0 0 1 54 4c2 2 166 207 433 207s431-205 433-207l1-2 11-13h-53c-10 0-27-8-35-15-9-9-11-16-11-28 0-11 4-24 11-33 7-8 17-13 27-13h154c10 0 20 5 27 13 8 9 12 20 12 32Z"/>
</svg>