<svg xmlns="http://www.w3.org/2000/svg" fill="none" viewBox="0 0 3085 1091">
  <path fill="#fff" d="M1244 612c0 19 2 34 8 46 6 11 17 24 33 39l-46 76c-22-14-53-46-64-64s-17-42-19-71c-23 38-55 68-96 89-40 21-85 31-136 31-68 0-120-18-157-53-37-37-56-89-56-156 0-63 20-112 58-147 39-35 97-58 176-68l105-14c29-4 51-9 66-15s25-15 31-26c5-12 7-28 6-50-8-94-66-140-175-140-40 0-75 7-104 22-28 14-53 37-74 68l-62-51C781 51 861 13 978 13c86 0 152 20 197 62 46 41 69 101 69 179v358Zm-299 67c62 0 113-18 152-55 38-36 58-84 58-143V358c-11 9-24 16-39 21-16 4-37 8-64 11l-99 12c-52 7-91 23-118 48-26 25-39 57-39 97 0 88 50 132 149 132Zm895 13v80h-403c-75 0-113-33-113-97v-44l397-491h-384V60h491v77l-422 518c3 24 19 37 47 37h387Zm362 96c-85 0-151-23-198-71s-70-116-70-203V318c0-87 23-154 70-202s113-72 198-72c84 0 150 24 197 72s71 115 71 202v196c0 87-24 155-71 203s-113 71-197 71Zm0-81c56 0 100-17 131-50 31-34 47-81 47-143V318c0-62-16-109-47-143-31-33-75-50-131-50-57 0-101 17-132 50-31 34-46 81-46 143v196c0 62 15 109 46 143 31 33 75 50 132 50Zm679-663c64 0 114 21 150 65 36 42 54 101 54 177v486h-91V301c0-56-12-98-36-129-23-31-56-47-98-47-49 0-91 21-127 61-35 40-60 95-75 165v421h-91V189c0-18-3-33-9-44-6-12-16-26-33-41l60-60c28 17 46 36 56 59 11 21 17 51 17 89v14c22-53 52-93 90-120 38-28 83-42 133-42ZM54 0H0v769h90V109h1v1c5 4 11 12 18 27v1l203 428 202-429c7-14 13-22 17-26l2-2v660h90V0h-54c-30 0-55 8-76 24-19 15-37 42-53 78L312 377 183 102c-16-36-34-63-54-78C109 8 83 0 54 0Zm1794 823h58c11 0 20 3 27 9s10 14 10 24c0 7-2 14-6 19s-9 9-16 11a34 34 0 0 1 26 34c0 11-4 20-11 26-8 7-18 10-31 10h-57V823Zm57 58c7 0 13-3 17-7 5-4 7-10 7-17s-2-13-6-17c-5-4-11-6-18-6h-43v47h43Zm-3 64c10 0 18-2 23-7 6-4 8-11 8-20 0-8-2-15-8-19-5-5-13-7-23-7h-40v53h40Zm144-78v101c0 10-3 18-9 23-5 5-14 8-25 8h-23v-10h23c14 0 21-7 21-21v-27c-6 11-17 17-31 17-10 0-17-3-23-8-5-6-8-14-8-23v-44l-1-5c-1-2-2-4-5-6l9-7c4 2 6 4 8 7l2 11v43c0 7 2 12 5 16 4 4 9 6 16 6s14-3 19-8 8-11 9-19v-54h13Zm78-44h8c6 0 11 1 14 4 4 2 7 7 10 13l29 54 28-54c3-6 7-11 10-13 4-3 8-4 14-4h8v133h-13V837l-5 2-4 5-38 73-39-73-4-5c-1-2-3-2-5-2v119h-13V823Zm161 135c-2 0-5-1-7-3l-2-6 2-7c2-2 5-3 7-3 3 0 5 1 7 3s3 4 3 7c0 2-1 5-3 6-2 2-4 3-7 3Zm41-135h47c14 0 25 2 34 6 8 5 14 12 18 21 3 10 5 23 5 40 0 16-2 29-5 39-4 9-10 16-18 21-8 4-20 6-34 6h-47V823Zm47 122c11 0 19-2 26-5 6-4 10-10 13-18s4-19 4-32c0-14-1-25-4-33s-7-14-14-17c-6-4-14-6-25-6h-34v111h34Zm155-5 1 6 5 5-9 7-7-6c-2-2-2-5-3-9-3 5-8 9-13 11-6 3-12 4-20 4-9 0-17-2-22-7-5-4-8-11-8-19s3-14 8-19c6-4 14-7 25-8l15-2 10-2c2 0 3-2 4-3l1-6c-1-12-10-18-25-18-6 0-11 1-15 3s-7 5-10 9l-9-7c6-10 17-14 34-14 12 0 22 2 28 7 6 6 10 13 10 23v45Zm-43 8c9 0 16-2 22-7 5-4 8-10 8-18v-15l-5 3-9 1-15 1c-7 1-12 3-16 7-4 3-6 7-6 12 0 11 7 16 21 16Zm155-76-4 5-2 6v80c0 10-2 18-8 23s-14 8-26 8h-23v-10h23c7 0 13-2 16-6 4-3 6-8 6-15v-22c-4 5-8 9-13 11-5 3-10 4-17 4-12 0-22-4-29-12s-11-18-11-32v-4c0-8 2-16 5-23a36 36 0 0 1 35-20c6 0 12 1 17 4 6 2 10 6 14 11l1-9 8-6 8 7Zm-46 74c7 0 13-2 18-5 4-4 7-9 10-16v-30c-3-6-6-12-10-15-5-3-11-5-18-5-9 0-16 3-21 9s-8 14-8 24v4c0 10 3 19 8 25s12 9 21 9Zm146-6 1 6 5 5-9 7c-4-2-6-4-8-7l-2-11v-2c-3 7-8 12-13 15-6 3-12 5-19 5-10 0-17-3-22-8-5-6-8-13-8-23v-60h13v59c0 7 2 12 5 16 4 4 9 6 15 6 7 0 13-3 18-8 5-4 9-11 11-20v-53h13v73Zm66 8c6 0 11-1 15-3 4-1 8-4 12-8l8 8c-4 4-9 8-15 10-5 2-12 3-20 3-13 0-22-3-29-8-7-6-10-14-10-25v-29c0-9 3-17 10-23 7-5 16-8 28-8s21 3 27 9c7 6 10 14 10 25 0 7-2 12-4 14-3 3-8 4-15 4h-43v8c0 8 2 14 6 17 5 4 11 6 20 6Zm-2-73c-7 0-13 2-18 6-4 4-6 9-6 16v11h38l9-2 2-8c0-8-2-13-6-17-5-4-11-6-19-6Zm105-10c4 0 9 1 12 3l-3 12c-4-3-8-4-13-4-6 0-11 3-16 9s-8 14-10 24v47h-13v-73l-1-6-5-5 9-7c3 2 6 4 7 7 2 3 3 6 3 11v5c3-7 7-13 12-17s11-6 18-6Zm74 0c5 0 9 1 12 3l-3 12c-4-3-8-4-12-4-6 0-12 3-17 9-4 6-8 14-10 24v47h-13v-73l-1-6-5-5 9-7c4 2 6 4 8 7l2 11v5c3-7 7-13 12-17s11-6 18-6Zm63 83c5 0 10-1 14-3 4-1 8-4 12-8l8 8c-4 4-9 8-15 10-5 2-12 3-20 3-12 0-22-3-29-8-7-6-10-14-10-25v-29c0-9 3-17 10-23 7-5 16-8 28-8s21 3 27 9c7 6 10 14 10 25 0 7-1 12-4 14-3 3-7 4-15 4h-43v8c0 8 2 14 6 17 5 4 12 6 21 6Zm-2-73c-8 0-14 2-19 6-4 4-6 9-6 16v11h38l9-2 2-8c0-8-2-13-6-17-5-4-11-6-18-6Z"/>
  <path fill="#9C4BB9" d="M1451 736v177c0 12-4 23-12 32-7 8-17 13-27 13s-20-5-27-13c-7-9-11-20-11-32v-70l-11 12a661 661 0 0 1-489 236 661 661 0 0 1-490-237 49 49 0 0 1 3-63 35 35 0 0 1 54 4c2 2 166 207 433 207s431-205 433-207l1-2 11-13h-53c-10 0-27-8-35-15-9-9-11-16-11-28 0-11 4-24 11-33 7-8 17-13 27-13h154c10 0 20 5 27 13 8 9 12 20 12 32Z"/>
</svg>